%TF.GenerationSoftware,KiCad,Pcbnew,8.0.4*%
%TF.CreationDate,2025-04-23T20:08:26+02:00*%
%TF.ProjectId,PMTLeechv2,504d544c-6565-4636-9876-322e6b696361,rev?*%
%TF.SameCoordinates,Original*%
%TF.FileFunction,Copper,L1,Top*%
%TF.FilePolarity,Positive*%
%FSLAX46Y46*%
G04 Gerber Fmt 4.6, Leading zero omitted, Abs format (unit mm)*
G04 Created by KiCad (PCBNEW 8.0.4) date 2025-04-23 20:08:26*
%MOMM*%
%LPD*%
G01*
G04 APERTURE LIST*
G04 Aperture macros list*
%AMRoundRect*
0 Rectangle with rounded corners*
0 $1 Rounding radius*
0 $2 $3 $4 $5 $6 $7 $8 $9 X,Y pos of 4 corners*
0 Add a 4 corners polygon primitive as box body*
4,1,4,$2,$3,$4,$5,$6,$7,$8,$9,$2,$3,0*
0 Add four circle primitives for the rounded corners*
1,1,$1+$1,$2,$3*
1,1,$1+$1,$4,$5*
1,1,$1+$1,$6,$7*
1,1,$1+$1,$8,$9*
0 Add four rect primitives between the rounded corners*
20,1,$1+$1,$2,$3,$4,$5,0*
20,1,$1+$1,$4,$5,$6,$7,0*
20,1,$1+$1,$6,$7,$8,$9,0*
20,1,$1+$1,$8,$9,$2,$3,0*%
G04 Aperture macros list end*
%TA.AperFunction,SMDPad,CuDef*%
%ADD10RoundRect,0.200000X-0.275000X0.200000X-0.275000X-0.200000X0.275000X-0.200000X0.275000X0.200000X0*%
%TD*%
%TA.AperFunction,SMDPad,CuDef*%
%ADD11RoundRect,0.200000X0.275000X-0.200000X0.275000X0.200000X-0.275000X0.200000X-0.275000X-0.200000X0*%
%TD*%
%TA.AperFunction,SMDPad,CuDef*%
%ADD12RoundRect,0.162500X-0.162500X0.447500X-0.162500X-0.447500X0.162500X-0.447500X0.162500X0.447500X0*%
%TD*%
%TA.AperFunction,ComponentPad*%
%ADD13O,1.600000X2.400000*%
%TD*%
%TA.AperFunction,ComponentPad*%
%ADD14R,1.600000X2.400000*%
%TD*%
%TA.AperFunction,ComponentPad*%
%ADD15O,1.700000X1.700000*%
%TD*%
%TA.AperFunction,ComponentPad*%
%ADD16R,1.700000X1.700000*%
%TD*%
%TA.AperFunction,SMDPad,CuDef*%
%ADD17RoundRect,0.243750X0.456250X-0.243750X0.456250X0.243750X-0.456250X0.243750X-0.456250X-0.243750X0*%
%TD*%
%TA.AperFunction,ComponentPad*%
%ADD18C,1.600000*%
%TD*%
%TA.AperFunction,ComponentPad*%
%ADD19R,1.600000X1.600000*%
%TD*%
%TA.AperFunction,SMDPad,CuDef*%
%ADD20RoundRect,0.243750X-0.456250X0.243750X-0.456250X-0.243750X0.456250X-0.243750X0.456250X0.243750X0*%
%TD*%
%TA.AperFunction,ViaPad*%
%ADD21C,0.600000*%
%TD*%
%TA.AperFunction,Conductor*%
%ADD22C,0.200000*%
%TD*%
G04 APERTURE END LIST*
D10*
%TO.P,R30,2*%
%TO.N,5V_control*%
X156718000Y-65912000D03*
%TO.P,R30,1*%
%TO.N,Net-(Q2-G)*%
X156718000Y-64262000D03*
%TD*%
D11*
%TO.P,R99,2*%
%TO.N,GPIO2_0_LS*%
X177038000Y-108332000D03*
%TO.P,R99,1*%
%TO.N,Net-(D35-A)*%
X177038000Y-109982000D03*
%TD*%
%TO.P,R98,2*%
%TO.N,GPIO2_1_LS*%
X172974000Y-108332000D03*
%TO.P,R98,1*%
%TO.N,Net-(D34-A)*%
X172974000Y-109982000D03*
%TD*%
%TO.P,R97,2*%
%TO.N,GPIO2_2_LS*%
X168910000Y-108332000D03*
%TO.P,R97,1*%
%TO.N,Net-(D33-A)*%
X168910000Y-109982000D03*
%TD*%
%TO.P,R96,2*%
%TO.N,VCC_SRAM*%
X175514000Y-99442000D03*
%TO.P,R96,1*%
%TO.N,Net-(D32-A)*%
X175514000Y-101092000D03*
%TD*%
%TO.P,R95,2*%
%TO.N,3V3*%
X166878000Y-87122000D03*
%TO.P,R95,1*%
%TO.N,Net-(D31-A)*%
X166878000Y-88772000D03*
%TD*%
%TO.P,R43,2*%
%TO.N,EXTRA_PIN_4*%
X123698000Y-87122000D03*
%TO.P,R43,1*%
%TO.N,Net-(J3-Pin_7)*%
X123698000Y-88772000D03*
%TD*%
D10*
%TO.P,R42,2*%
%TO.N,EXTRA_PIN_2*%
X151638000Y-66040000D03*
%TO.P,R42,1*%
%TO.N,Net-(J3-Pin_5)*%
X151638000Y-64390000D03*
%TD*%
D11*
%TO.P,R41,2*%
%TO.N,HIGH_SPEED_CLK_ACTIVE_LED*%
X113538000Y-87122000D03*
%TO.P,R41,1*%
%TO.N,Net-(D3-A)*%
X113538000Y-88772000D03*
%TD*%
D10*
%TO.P,R40,2*%
%TO.N,TX7*%
X121158000Y-66040000D03*
%TO.P,R40,1*%
%TO.N,Net-(J3-Pin_3)*%
X121158000Y-64390000D03*
%TD*%
%TO.P,R39,2*%
%TO.N,RX7*%
X123698000Y-66040000D03*
%TO.P,R39,1*%
%TO.N,Net-(J3-Pin_2)*%
X123698000Y-64390000D03*
%TD*%
D11*
%TO.P,R38,2*%
%TO.N,EXTRA_PIN_3*%
X121158000Y-87122000D03*
%TO.P,R38,1*%
%TO.N,Net-(J3-Pin_6)*%
X121158000Y-88772000D03*
%TD*%
D10*
%TO.P,R37,2*%
%TO.N,EXTRA_PIN_1*%
X159258000Y-66040000D03*
%TO.P,R37,1*%
%TO.N,Net-(J3-Pin_4)*%
X159258000Y-64390000D03*
%TD*%
%TO.P,R36,2*%
%TO.N,RESET_CPU_PIN*%
X161798000Y-66040000D03*
%TO.P,R36,1*%
%TO.N,Net-(J1-Pin_1)*%
X161798000Y-64390000D03*
%TD*%
%TO.P,R35,2*%
%TO.N,TEENSY_LISTENING*%
X164338000Y-66040000D03*
%TO.P,R35,1*%
%TO.N,Net-(D2-A)*%
X164338000Y-64390000D03*
%TD*%
%TO.P,R34,2*%
%TO.N,EXT_CLK_ACTIVE_LED*%
X118618000Y-66040000D03*
%TO.P,R34,1*%
%TO.N,Net-(D1-A)*%
X118618000Y-64390000D03*
%TD*%
%TO.P,R32,2*%
%TO.N,GPIO2_29_LS*%
X116078000Y-88772000D03*
%TO.P,R32,1*%
%TO.N,GPIO2_29*%
X116078000Y-87122000D03*
%TD*%
%TO.P,R31,2*%
%TO.N,GPIO2_28_LS*%
X118618000Y-88772000D03*
%TO.P,R31,1*%
%TO.N,GPIO2_28*%
X118618000Y-87122000D03*
%TD*%
%TO.P,R29,2*%
%TO.N,EXT_CLK_PIN*%
X116078000Y-66040000D03*
%TO.P,R29,1*%
%TO.N,Net-(J1-Pin_2)*%
X116078000Y-64390000D03*
%TD*%
D11*
%TO.P,R28,2*%
%TO.N,GPIO2_16_LS*%
X149098000Y-64390000D03*
%TO.P,R28,1*%
%TO.N,GPIO2_16*%
X149098000Y-66040000D03*
%TD*%
%TO.P,R27,2*%
%TO.N,GPIO2_12_LS*%
X113538000Y-64390000D03*
%TO.P,R27,1*%
%TO.N,GPIO2_12*%
X113538000Y-66040000D03*
%TD*%
%TO.P,R26,2*%
%TO.N,GPIO2_11_LS*%
X146558000Y-64390000D03*
%TO.P,R26,1*%
%TO.N,GPIO2_11*%
X146558000Y-66040000D03*
%TD*%
%TO.P,R25,2*%
%TO.N,GPIO2_10_LS*%
X154178000Y-64390000D03*
%TO.P,R25,1*%
%TO.N,GPIO2_10*%
X154178000Y-66040000D03*
%TD*%
D10*
%TO.P,R24,2*%
%TO.N,GPIO2_3_LS*%
X138938000Y-88772000D03*
%TO.P,R24,1*%
%TO.N,GPIO2_3*%
X138938000Y-87122000D03*
%TD*%
D11*
%TO.P,R23,2*%
%TO.N,GPIO2_2_LS*%
X141478000Y-64390000D03*
%TO.P,R23,1*%
%TO.N,GPIO2_2*%
X141478000Y-66040000D03*
%TD*%
%TO.P,R22,2*%
%TO.N,GPIO2_1_LS*%
X138938000Y-64390000D03*
%TO.P,R22,1*%
%TO.N,GPIO2_1*%
X138938000Y-66040000D03*
%TD*%
%TO.P,R21,2*%
%TO.N,GPIO2_0_LS*%
X144018000Y-64390000D03*
%TO.P,R21,1*%
%TO.N,GPIO2_0*%
X144018000Y-66040000D03*
%TD*%
%TO.P,R20,2*%
%TO.N,GPIO1_31_LS*%
X126238000Y-64390000D03*
%TO.P,R20,1*%
%TO.N,GPIO1_31*%
X126238000Y-66040000D03*
%TD*%
%TO.P,R19,2*%
%TO.N,GPIO1_30_LS*%
X128778000Y-64390000D03*
%TO.P,R19,1*%
%TO.N,GPIO1_30*%
X128778000Y-66040000D03*
%TD*%
D10*
%TO.P,R18,2*%
%TO.N,GPIO1_29_LS*%
X128778000Y-88772000D03*
%TO.P,R18,1*%
%TO.N,GPIO1_29*%
X128778000Y-87122000D03*
%TD*%
%TO.P,R17,2*%
%TO.N,GPIO1_28_LS*%
X126238000Y-88772000D03*
%TO.P,R17,1*%
%TO.N,GPIO1_28*%
X126238000Y-87122000D03*
%TD*%
%TO.P,R16,2*%
%TO.N,GPIO1_27_LS*%
X159258000Y-88772000D03*
%TO.P,R16,1*%
%TO.N,GPIO1_27*%
X159258000Y-87122000D03*
%TD*%
%TO.P,R15,2*%
%TO.N,GPIO1_26_LS*%
X156718000Y-88772000D03*
%TO.P,R15,1*%
%TO.N,GPIO1_26*%
X156718000Y-87122000D03*
%TD*%
%TO.P,R14,2*%
%TO.N,GPIO1_25_LS*%
X164338000Y-88772000D03*
%TO.P,R14,1*%
%TO.N,GPIO1_25*%
X164338000Y-87122000D03*
%TD*%
%TO.P,R13,2*%
%TO.N,GPIO1_24_LS*%
X161798000Y-88772000D03*
%TO.P,R13,1*%
%TO.N,GPIO1_24*%
X161798000Y-87122000D03*
%TD*%
%TO.P,R12,2*%
%TO.N,GPIO1_23_LS*%
X146558000Y-88772000D03*
%TO.P,R12,1*%
%TO.N,GPIO1_23*%
X146558000Y-87122000D03*
%TD*%
%TO.P,R11,2*%
%TO.N,GPIO1_22_LS*%
X149098000Y-88772000D03*
%TO.P,R11,1*%
%TO.N,GPIO1_22*%
X149098000Y-87122000D03*
%TD*%
%TO.P,R10,2*%
%TO.N,GPIO1_21_LS*%
X133858000Y-88772000D03*
%TO.P,R10,1*%
%TO.N,GPIO1_21*%
X133858000Y-87122000D03*
%TD*%
%TO.P,R9,2*%
%TO.N,GPIO1_20_LS*%
X131318000Y-88772000D03*
%TO.P,R9,1*%
%TO.N,GPIO1_20*%
X131318000Y-87122000D03*
%TD*%
%TO.P,R8,2*%
%TO.N,GPIO1_19_LS*%
X144018000Y-88772000D03*
%TO.P,R8,1*%
%TO.N,GPIO1_19*%
X144018000Y-87122000D03*
%TD*%
%TO.P,R7,2*%
%TO.N,GPIO1_18_LS*%
X141478000Y-88772000D03*
%TO.P,R7,1*%
%TO.N,GPIO1_18*%
X141478000Y-87122000D03*
%TD*%
%TO.P,R6,2*%
%TO.N,GPIO1_17_LS*%
X151638000Y-88772000D03*
%TO.P,R6,1*%
%TO.N,GPIO1_17*%
X151638000Y-87122000D03*
%TD*%
%TO.P,R5,2*%
%TO.N,GPIO1_16_LS*%
X154178000Y-88772000D03*
%TO.P,R5,1*%
%TO.N,GPIO1_16*%
X154178000Y-87122000D03*
%TD*%
D11*
%TO.P,R4,2*%
%TO.N,GPIO1_13_LS*%
X131318000Y-64390000D03*
%TO.P,R4,1*%
%TO.N,GPIO1_13*%
X131318000Y-66040000D03*
%TD*%
%TO.P,R3,2*%
%TO.N,GPIO1_12_LS*%
X133858000Y-64390000D03*
%TO.P,R3,1*%
%TO.N,GPIO1_12*%
X133858000Y-66040000D03*
%TD*%
%TO.P,R2,2*%
%TO.N,GPIO1_3_LS*%
X169418000Y-64390000D03*
%TO.P,R2,1*%
%TO.N,GPIO1_3*%
X169418000Y-66040000D03*
%TD*%
%TO.P,R1,2*%
%TO.N,GPIO1_2_LS*%
X166878000Y-64390000D03*
%TO.P,R1,1*%
%TO.N,GPIO1_2*%
X166878000Y-66040000D03*
%TD*%
D12*
%TO.P,Q2,3,D*%
%TO.N,VCC_SRAM*%
X172974000Y-89702000D03*
%TO.P,Q2,2,S*%
%TO.N,5V*%
X172024000Y-87082000D03*
%TO.P,Q2,1,G*%
%TO.N,Net-(Q2-G)*%
X173924000Y-87082000D03*
%TD*%
D13*
%TO.P,J5,32,Pin_32*%
%TO.N,VCC_SRAM*%
X163068000Y-123952000D03*
%TO.P,J5,31,Pin_31*%
%TO.N,GPIO1_28_LS*%
X160528000Y-123952000D03*
%TO.P,J5,30,Pin_30*%
%TO.N,GPIO1_30_LS*%
X157988000Y-123952000D03*
%TO.P,J5,29,Pin_29*%
%TO.N,GPIO2_0_LS*%
X155448000Y-123952000D03*
%TO.P,J5,28,Pin_28*%
%TO.N,GPIO1_26_LS*%
X152908000Y-123952000D03*
%TO.P,J5,27,Pin_27*%
%TO.N,GPIO1_21_LS*%
X150368000Y-123952000D03*
%TO.P,J5,26,Pin_26*%
%TO.N,GPIO1_22_LS*%
X147828000Y-123952000D03*
%TO.P,J5,25,Pin_25*%
%TO.N,GPIO1_24_LS*%
X145288000Y-123952000D03*
%TO.P,J5,24,Pin_24*%
%TO.N,GPIO2_1_LS*%
X142748000Y-123952000D03*
%TO.P,J5,23,Pin_23*%
%TO.N,GPIO1_23_LS*%
X140208000Y-123952000D03*
%TO.P,J5,22,Pin_22*%
%TO.N,GPIO2_2_LS*%
X137668000Y-123952000D03*
%TO.P,J5,21,Pin_21*%
%TO.N,GPIO2_3_LS*%
X135128000Y-123952000D03*
%TO.P,J5,20,Pin_20*%
%TO.N,GPIO2_10_LS*%
X132588000Y-123952000D03*
%TO.P,J5,19,Pin_19*%
%TO.N,GPIO2_11_LS*%
X130048000Y-123952000D03*
%TO.P,J5,18,Pin_18*%
%TO.N,GPIO2_12_LS*%
X127508000Y-123952000D03*
%TO.P,J5,17,Pin_17*%
%TO.N,GPIO2_16_LS*%
X124968000Y-123952000D03*
%TO.P,J5,16,Pin_16*%
%TO.N,GND*%
X124968000Y-108712000D03*
%TO.P,J5,15,Pin_15*%
%TO.N,GPIO2_29_LS*%
X127508000Y-108712000D03*
%TO.P,J5,14,Pin_14*%
%TO.N,GPIO2_28_LS*%
X130048000Y-108712000D03*
%TO.P,J5,13,Pin_13*%
%TO.N,GPIO1_2_LS*%
X132588000Y-108712000D03*
%TO.P,J5,12,Pin_12*%
%TO.N,GPIO1_3_LS*%
X135128000Y-108712000D03*
%TO.P,J5,11,Pin_11*%
%TO.N,GPIO1_12_LS*%
X137668000Y-108712000D03*
%TO.P,J5,10,Pin_10*%
%TO.N,GPIO1_13_LS*%
X140208000Y-108712000D03*
%TO.P,J5,9,Pin_9*%
%TO.N,GPIO1_16_LS*%
X142748000Y-108712000D03*
%TO.P,J5,8,Pin_8*%
%TO.N,GPIO1_17_LS*%
X145288000Y-108712000D03*
%TO.P,J5,7,Pin_7*%
%TO.N,GPIO1_18_LS*%
X147828000Y-108712000D03*
%TO.P,J5,6,Pin_6*%
%TO.N,GPIO1_19_LS*%
X150368000Y-108712000D03*
%TO.P,J5,5,Pin_5*%
%TO.N,GPIO1_20_LS*%
X152908000Y-108712000D03*
%TO.P,J5,4,Pin_4*%
%TO.N,GPIO1_25_LS*%
X155448000Y-108712000D03*
%TO.P,J5,3,Pin_3*%
%TO.N,GPIO1_27_LS*%
X157988000Y-108712000D03*
%TO.P,J5,2,Pin_2*%
%TO.N,GPIO1_29_LS*%
X160528000Y-108712000D03*
D14*
%TO.P,J5,1,Pin_1*%
%TO.N,GPIO1_31_LS*%
X163068000Y-108712000D03*
%TD*%
D15*
%TO.P,J3,7,Pin_7*%
%TO.N,Net-(J3-Pin_7)*%
X106426000Y-113030000D03*
%TO.P,J3,6,Pin_6*%
%TO.N,Net-(J3-Pin_6)*%
X106426000Y-110490000D03*
%TO.P,J3,5,Pin_5*%
%TO.N,Net-(J3-Pin_5)*%
X106426000Y-107950000D03*
%TO.P,J3,4,Pin_4*%
%TO.N,Net-(J3-Pin_4)*%
X106426000Y-105410000D03*
%TO.P,J3,3,Pin_3*%
%TO.N,Net-(J3-Pin_3)*%
X106426000Y-102870000D03*
%TO.P,J3,2,Pin_2*%
%TO.N,Net-(J3-Pin_2)*%
X106426000Y-100330000D03*
D16*
%TO.P,J3,1,Pin_1*%
%TO.N,GND*%
X106426000Y-97790000D03*
%TD*%
D15*
%TO.P,J1,3,Pin_3*%
%TO.N,GND*%
X120157000Y-133858000D03*
%TO.P,J1,2,Pin_2*%
%TO.N,Net-(J1-Pin_2)*%
X117617000Y-133858000D03*
D16*
%TO.P,J1,1,Pin_1*%
%TO.N,Net-(J1-Pin_1)*%
X115077000Y-133858000D03*
%TD*%
D17*
%TO.P,D3,1,K*%
%TO.N,GND*%
X110236000Y-124811000D03*
%TO.P,D3,2,A*%
%TO.N,Net-(D3-A)*%
X110236000Y-122936000D03*
%TD*%
D18*
%TO.P,U1,48,VIN*%
%TO.N,5V*%
X171974000Y-84016000D03*
%TO.P,U1,47,GND*%
%TO.N,GND*%
X169434000Y-84016000D03*
%TO.P,U1,46,3V3*%
%TO.N,3V3*%
X166894000Y-84016000D03*
%TO.P,U1,45,23_A9_CRX1_MCLK1*%
%TO.N,GPIO1_25*%
X164354000Y-84016000D03*
%TO.P,U1,44,22_A8_CTX1*%
%TO.N,GPIO1_24*%
X161814000Y-84016000D03*
%TO.P,U1,43,21_A7_RX5_BCLK1*%
%TO.N,GPIO1_27*%
X159274000Y-84016000D03*
%TO.P,U1,42,20_A6_TX5_LRCLK1*%
%TO.N,GPIO1_26*%
X156734000Y-84016000D03*
%TO.P,U1,41,19_A5_SCL*%
%TO.N,GPIO1_16*%
X154194000Y-84016000D03*
%TO.P,U1,40,18_A4_SDA*%
%TO.N,GPIO1_17*%
X151654000Y-84016000D03*
%TO.P,U1,39,17_A3_TX4_SDA1*%
%TO.N,GPIO1_22*%
X149114000Y-84016000D03*
%TO.P,U1,38,16_A2_RX4_SCL1*%
%TO.N,GPIO1_23*%
X146574000Y-84016000D03*
%TO.P,U1,37,15_A1_RX3_SPDIF_IN*%
%TO.N,GPIO1_19*%
X144034000Y-84016000D03*
%TO.P,U1,36,14_A0_TX3_SPDIF_OUT*%
%TO.N,GPIO1_18*%
X141494000Y-84016000D03*
%TO.P,U1,35,13_SCK_LED*%
%TO.N,GPIO2_3*%
X138954000Y-84016000D03*
%TO.P,U1,34,GND*%
%TO.N,GND*%
X136414000Y-84016000D03*
%TO.P,U1,33,41_A17*%
%TO.N,GPIO1_21*%
X133874000Y-84016000D03*
%TO.P,U1,32,40_A16*%
%TO.N,GPIO1_20*%
X131334000Y-84016000D03*
%TO.P,U1,31,39_MISO1_OUT1A*%
%TO.N,GPIO1_29*%
X128794000Y-84016000D03*
%TO.P,U1,30,38_CS1_IN1*%
%TO.N,GPIO1_28*%
X126254000Y-84016000D03*
%TO.P,U1,29,37_CS*%
%TO.N,EXTRA_PIN_4*%
X123714000Y-84016000D03*
%TO.P,U1,28,36_CS*%
%TO.N,EXTRA_PIN_3*%
X121174000Y-84016000D03*
%TO.P,U1,27,35_TX8*%
%TO.N,GPIO2_28*%
X118634000Y-84016000D03*
%TO.P,U1,26,34_RX8*%
%TO.N,GPIO2_29*%
X116094000Y-84016000D03*
%TO.P,U1,25,33_MCLK2*%
%TO.N,HIGH_SPEED_CLK_ACTIVE_LED*%
X113554000Y-84016000D03*
%TO.P,U1,24,32_OUT1B*%
%TO.N,GPIO2_12*%
X113554000Y-68776000D03*
%TO.P,U1,23,31_CTX3*%
%TO.N,EXT_CLK_PIN*%
X116094000Y-68776000D03*
%TO.P,U1,22,30_CRX3*%
%TO.N,EXT_CLK_ACTIVE_LED*%
X118634000Y-68776000D03*
%TO.P,U1,21,29_TX7*%
%TO.N,TX7*%
X121174000Y-68776000D03*
%TO.P,U1,20,28_RX7*%
%TO.N,RX7*%
X123714000Y-68776000D03*
%TO.P,U1,19,27_A13_SCK1*%
%TO.N,GPIO1_31*%
X126254000Y-68776000D03*
%TO.P,U1,18,26_A12_MOSI1*%
%TO.N,GPIO1_30*%
X128794000Y-68776000D03*
%TO.P,U1,17,25_A11_RX6_SDA2*%
%TO.N,GPIO1_13*%
X131334000Y-68776000D03*
%TO.P,U1,16,24_A10_TX6_SCL2*%
%TO.N,GPIO1_12*%
X133874000Y-68776000D03*
%TO.P,U1,15,3V3*%
%TO.N,unconnected-(U1-3V3-Pad15)*%
X136414000Y-68776000D03*
%TO.P,U1,14,12_MISO_MQSL*%
%TO.N,GPIO2_1*%
X138954000Y-68776000D03*
%TO.P,U1,13,11_MOSI_CTX1*%
%TO.N,GPIO2_2*%
X141494000Y-68776000D03*
%TO.P,U1,12,10_CS_MQSR*%
%TO.N,GPIO2_0*%
X144034000Y-68776000D03*
%TO.P,U1,11,9_OUT1C*%
%TO.N,GPIO2_11*%
X146574000Y-68776000D03*
%TO.P,U1,10,8_TX2_IN1*%
%TO.N,GPIO2_16*%
X149114000Y-68776000D03*
%TO.P,U1,9,7_RX2_OUT1A*%
%TO.N,EXTRA_PIN_2*%
X151654000Y-68776000D03*
%TO.P,U1,8,6_OUT1D*%
%TO.N,GPIO2_10*%
X154194000Y-68776000D03*
%TO.P,U1,7,5_IN2*%
%TO.N,5V_control*%
X156734000Y-68776000D03*
%TO.P,U1,6,4_BCLK2*%
%TO.N,EXTRA_PIN_1*%
X159274000Y-68776000D03*
%TO.P,U1,5,3_LRCLK2*%
%TO.N,RESET_CPU_PIN*%
X161814000Y-68776000D03*
%TO.P,U1,4,2_OUT2*%
%TO.N,TEENSY_LISTENING*%
X164354000Y-68776000D03*
%TO.P,U1,3,1_TX1_CTX2_MISO1*%
%TO.N,GPIO1_2*%
X166894000Y-68776000D03*
%TO.P,U1,2,0_RX1_CRX2_CS1*%
%TO.N,GPIO1_3*%
X169434000Y-68776000D03*
D19*
%TO.P,U1,1,GND*%
%TO.N,GND*%
X171974000Y-68776000D03*
%TD*%
D15*
%TO.P,J2,3,Pin_3*%
%TO.N,GPIO1_30_LS*%
X172974001Y-96012000D03*
%TO.P,J2,2,Pin_2*%
%TO.N,VCC_SRAM*%
X175514000Y-96012000D03*
D16*
%TO.P,J2,1,Pin_1*%
%TO.N,GPIO1_28_LS*%
X178054000Y-96012000D03*
%TD*%
D17*
%TO.P,D1,2,A*%
%TO.N,Net-(D1-A)*%
X119380000Y-122936000D03*
%TO.P,D1,1,K*%
%TO.N,GND*%
X119380000Y-124811000D03*
%TD*%
%TO.P,D2,2,A*%
%TO.N,Net-(D2-A)*%
X169164000Y-130634500D03*
%TO.P,D2,1,K*%
%TO.N,GND*%
X169164000Y-132509500D03*
%TD*%
%TO.P,D33,2,A*%
%TO.N,Net-(D33-A)*%
X168910000Y-112077000D03*
%TO.P,D33,1,K*%
%TO.N,GND*%
X168910000Y-113952002D03*
%TD*%
%TO.P,D32,2,A*%
%TO.N,Net-(D32-A)*%
X175514000Y-102772998D03*
%TO.P,D32,1,K*%
%TO.N,GND*%
X175514000Y-104648000D03*
%TD*%
%TO.P,D34,2,A*%
%TO.N,Net-(D34-A)*%
X172974000Y-112077000D03*
%TO.P,D34,1,K*%
%TO.N,GND*%
X172974000Y-113952002D03*
%TD*%
%TO.P,D35,2,A*%
%TO.N,Net-(D35-A)*%
X177038000Y-112077000D03*
%TO.P,D35,1,K*%
%TO.N,GND*%
X177038000Y-113952002D03*
%TD*%
D20*
%TO.P,D31,2,A*%
%TO.N,Net-(D31-A)*%
X178054000Y-88997002D03*
%TO.P,D31,1,K*%
%TO.N,GND*%
X178054000Y-87122000D03*
%TD*%
D15*
%TO.P,J8,32,Pin_32*%
%TO.N,GPIO1_31_LS*%
X163068000Y-132588000D03*
%TO.P,J8,31,Pin_31*%
%TO.N,GPIO1_29_LS*%
X160528000Y-132588000D03*
%TO.P,J8,30,Pin_30*%
%TO.N,GPIO1_27_LS*%
X157988000Y-132588000D03*
%TO.P,J8,29,Pin_29*%
%TO.N,GPIO1_25_LS*%
X155448000Y-132588000D03*
%TO.P,J8,28,Pin_28*%
%TO.N,GPIO1_20_LS*%
X152908000Y-132588000D03*
%TO.P,J8,27,Pin_27*%
%TO.N,GPIO1_19_LS*%
X150368000Y-132588000D03*
%TO.P,J8,26,Pin_26*%
%TO.N,GPIO1_18_LS*%
X147828000Y-132588000D03*
%TO.P,J8,25,Pin_25*%
%TO.N,GPIO1_17_LS*%
X145288000Y-132588000D03*
%TO.P,J8,24,Pin_24*%
%TO.N,GPIO1_16_LS*%
X142748000Y-132588000D03*
%TO.P,J8,23,Pin_23*%
%TO.N,GPIO1_13_LS*%
X140208000Y-132588000D03*
%TO.P,J8,22,Pin_22*%
%TO.N,GPIO1_12_LS*%
X137668000Y-132588000D03*
%TO.P,J8,21,Pin_21*%
%TO.N,GPIO1_3_LS*%
X135128000Y-132588000D03*
%TO.P,J8,20,Pin_20*%
%TO.N,GPIO1_2_LS*%
X132588000Y-132588000D03*
%TO.P,J8,19,Pin_19*%
%TO.N,GPIO2_28_LS*%
X130048000Y-132588000D03*
%TO.P,J8,18,Pin_18*%
%TO.N,GPIO2_29_LS*%
X127508000Y-132588000D03*
%TO.P,J8,17,Pin_17*%
%TO.N,GND*%
X124968000Y-132588000D03*
%TO.P,J8,16,Pin_16*%
%TO.N,GPIO2_16_LS*%
X124968000Y-130048000D03*
%TO.P,J8,15,Pin_15*%
%TO.N,GPIO2_12_LS*%
X127508000Y-130048000D03*
%TO.P,J8,14,Pin_14*%
%TO.N,GPIO2_11_LS*%
X130048000Y-130048000D03*
%TO.P,J8,13,Pin_13*%
%TO.N,GPIO2_10_LS*%
X132588000Y-130048000D03*
%TO.P,J8,12,Pin_12*%
%TO.N,GPIO2_3_LS*%
X135128000Y-130048000D03*
%TO.P,J8,11,Pin_11*%
%TO.N,GPIO2_2_LS*%
X137668000Y-130048000D03*
%TO.P,J8,10,Pin_10*%
%TO.N,GPIO1_23_LS*%
X140208000Y-130048000D03*
%TO.P,J8,9,Pin_9*%
%TO.N,GPIO2_1_LS*%
X142748000Y-130048000D03*
%TO.P,J8,8,Pin_8*%
%TO.N,GPIO1_24_LS*%
X145288000Y-130048000D03*
%TO.P,J8,7,Pin_7*%
%TO.N,GPIO1_22_LS*%
X147828000Y-130048000D03*
%TO.P,J8,6,Pin_6*%
%TO.N,GPIO1_21_LS*%
X150368000Y-130048000D03*
%TO.P,J8,5,Pin_5*%
%TO.N,GPIO1_26_LS*%
X152908000Y-130048000D03*
%TO.P,J8,4,Pin_4*%
%TO.N,GPIO2_0_LS*%
X155448000Y-130048000D03*
%TO.P,J8,3,Pin_3*%
%TO.N,GPIO1_30_LS*%
X157988000Y-130048000D03*
%TO.P,J8,2,Pin_2*%
%TO.N,GPIO1_28_LS*%
X160528000Y-130048000D03*
D16*
%TO.P,J8,1,Pin_1*%
%TO.N,VCC_SRAM*%
X163068000Y-130048000D03*
%TD*%
D21*
%TO.N,Net-(D2-A)*%
X163068000Y-94488000D03*
X166878000Y-94488000D03*
%TO.N,Net-(J3-Pin_3)*%
X109474000Y-102870000D03*
X109474000Y-78740000D03*
X120142000Y-78740000D03*
%TO.N,Net-(J3-Pin_2)*%
X110998000Y-100330000D03*
X110998000Y-79502000D03*
X122682000Y-79502000D03*
%TO.N,Net-(J3-Pin_4)*%
X123444000Y-105410000D03*
X123444000Y-91002000D03*
X157388000Y-90932000D03*
%TO.N,Net-(J3-Pin_5)*%
X119888000Y-107188000D03*
X119888000Y-91694000D03*
X150368000Y-91602000D03*
%TO.N,Net-(J3-Pin_6)*%
X121666000Y-111760000D03*
%TO.N,Net-(J3-Pin_7)*%
X122682000Y-113030000D03*
%TO.N,Net-(J1-Pin_1)*%
X160782000Y-71120000D03*
%TO.N,Net-(J1-Pin_2)*%
X117348000Y-118872000D03*
X114554000Y-118872000D03*
%TO.N,Net-(J1-Pin_1)*%
X180048000Y-117348000D03*
X116332000Y-117348000D03*
X180048000Y-71120000D03*
%TO.N,Net-(D31-A)*%
X166878000Y-91948000D03*
X178054000Y-91948000D03*
%TO.N,GPIO2_2_LS*%
X138909157Y-106934000D03*
X168910000Y-106864000D03*
%TO.N,GPIO2_1_LS*%
X172974000Y-99568000D03*
%TO.N,GPIO2_0_LS*%
X156718000Y-106264000D03*
X177038000Y-106264000D03*
%TO.N,VCC_SRAM*%
X173990000Y-103886000D03*
X164084000Y-103886000D03*
%TO.N,GPIO1_28_LS*%
X178054000Y-105664000D03*
%TO.N,Net-(Q2-G)*%
X173736000Y-79248000D03*
X155448000Y-79248000D03*
%TO.N,GPIO2_12_LS*%
X128778000Y-94234000D03*
X112268000Y-94234000D03*
%TO.N,GPIO2_29_LS*%
X116078000Y-98298000D03*
X127508000Y-98460000D03*
%TO.N,GPIO2_28_LS*%
X118618000Y-99060000D03*
X130048000Y-99060000D03*
%TO.N,GPIO1_28_LS*%
X126838000Y-105664000D03*
X161544000Y-105664000D03*
%TO.N,GPIO1_29_LS*%
X129032000Y-93218000D03*
X160528000Y-93472000D03*
%TO.N,GPIO1_20_LS*%
X130888000Y-104902000D03*
X152908000Y-104902000D03*
%TO.N,GPIO1_21_LS*%
X152238000Y-93980000D03*
X133858000Y-93980000D03*
%TO.N,GPIO2_3_LS*%
X138938000Y-95504000D03*
X136652000Y-95504000D03*
%TO.N,GPIO1_18_LS*%
X147828000Y-104324000D03*
X140970000Y-104140000D03*
%TO.N,GPIO1_19_LS*%
X144018000Y-94742000D03*
X150368000Y-94742000D03*
%TO.N,GPIO1_23_LS*%
X146558000Y-95504000D03*
X141732000Y-95504000D03*
%TO.N,GPIO1_17_LS*%
X151638000Y-103724000D03*
X145288000Y-103724000D03*
%TO.N,GPIO1_16_LS*%
X142748000Y-103378000D03*
X153670000Y-103124000D03*
%TO.N,GPIO1_24_LS*%
X146812000Y-98552000D03*
X161798000Y-98552000D03*
%TO.N,GPIO1_25_LS*%
X164338000Y-103054000D03*
X155448000Y-103124000D03*
%TO.N,GPIO1_3_LS*%
X135128000Y-102616000D03*
X167894000Y-102362000D03*
%TO.N,GPIO1_2_LS*%
X132588000Y-102108000D03*
X165608000Y-101854000D03*
%TO.N,GPIO2_10_LS*%
X134112000Y-101368000D03*
X152908000Y-101092000D03*
%TO.N,GPIO2_16_LS*%
X126238000Y-100838000D03*
X147828000Y-100768000D03*
%TO.N,GPIO2_11_LS*%
X145288000Y-96174000D03*
X131826000Y-96174000D03*
%TO.N,GPIO2_0_LS*%
X156718000Y-100076000D03*
X143002000Y-100168000D03*
%TO.N,GPIO2_1_LS*%
X144018000Y-99568000D03*
X138268000Y-99568000D03*
%TO.N,GPIO1_12_LS*%
X137668000Y-98898000D03*
X132842000Y-98898000D03*
%TO.N,GPIO1_13_LS*%
X140208000Y-98298000D03*
X130302000Y-98298000D03*
%TO.N,GPIO1_30_LS*%
X159512000Y-97536000D03*
X127762000Y-97536000D03*
%TO.N,GPIO1_31_LS*%
X163068000Y-96774000D03*
X125222000Y-96774000D03*
%TD*%
D22*
%TO.N,Net-(D2-A)*%
X166878000Y-94488000D02*
X166878000Y-128348500D01*
X163068000Y-92710000D02*
X163068000Y-94488000D01*
X166878000Y-128348500D02*
X169164000Y-130634500D01*
%TO.N,VCC_SRAM*%
X175514000Y-99442000D02*
X175514000Y-96012000D01*
X173990000Y-100330000D02*
X174878000Y-99442000D01*
X174878000Y-99442000D02*
X175514000Y-99442000D01*
%TO.N,Net-(D32-A)*%
X175514000Y-102772998D02*
X175514000Y-101092000D01*
%TO.N,Net-(D3-A)*%
X113538000Y-119634000D02*
X113538000Y-88772000D01*
X110236000Y-122936000D02*
X113538000Y-119634000D01*
%TO.N,Net-(D1-A)*%
X117534000Y-106309268D02*
X117534000Y-65474000D01*
X119380000Y-122936000D02*
X119380000Y-108155268D01*
X119380000Y-108155268D02*
X117534000Y-106309268D01*
X117534000Y-65474000D02*
X118618000Y-64390000D01*
%TO.N,Net-(J3-Pin_3)*%
X109474000Y-78740000D02*
X109474000Y-102870000D01*
X120074000Y-65474000D02*
X120074000Y-78672000D01*
X121158000Y-64390000D02*
X120074000Y-65474000D01*
X120074000Y-78672000D02*
X120142000Y-78740000D01*
%TO.N,Net-(J3-Pin_2)*%
X110998000Y-79502000D02*
X110998000Y-100330000D01*
X122614000Y-79434000D02*
X122682000Y-79502000D01*
X122614000Y-65474000D02*
X122614000Y-79434000D01*
X123698000Y-64390000D02*
X122614000Y-65474000D01*
%TO.N,Net-(J3-Pin_4)*%
X123444000Y-91002000D02*
X123444000Y-105410000D01*
X157388000Y-90076314D02*
X157388000Y-90932000D01*
X158174000Y-89290314D02*
X157388000Y-90076314D01*
X158174000Y-65474000D02*
X158174000Y-89290314D01*
X159258000Y-64390000D02*
X158174000Y-65474000D01*
%TO.N,Net-(J3-Pin_5)*%
X119888000Y-91694000D02*
X119888000Y-107188000D01*
X150368000Y-65660000D02*
X150368000Y-91602000D01*
X151638000Y-64390000D02*
X150368000Y-65660000D01*
%TO.N,Net-(J3-Pin_6)*%
X121666000Y-89280000D02*
X121666000Y-111760000D01*
X121666000Y-89280000D02*
X122874000Y-88072000D01*
X121158000Y-88772000D02*
X121666000Y-89280000D01*
%TO.N,Net-(J3-Pin_7)*%
X122682000Y-89788000D02*
X122682000Y-113030000D01*
X123698000Y-88772000D02*
X122682000Y-89788000D01*
%TO.N,Net-(D2-A)*%
X163068000Y-65660000D02*
X163068000Y-92710000D01*
X164338000Y-64390000D02*
X163068000Y-65660000D01*
%TO.N,Net-(J1-Pin_1)*%
X160714000Y-71052000D02*
X160782000Y-71120000D01*
X160714000Y-65474000D02*
X160714000Y-71052000D01*
X161798000Y-64390000D02*
X160714000Y-65474000D01*
%TO.N,Net-(J1-Pin_2)*%
X117617000Y-119141000D02*
X117617000Y-133858000D01*
X117348000Y-118872000D02*
X117617000Y-119141000D01*
X114654000Y-118772000D02*
X114554000Y-118872000D01*
X114654000Y-65814000D02*
X114654000Y-118772000D01*
X116078000Y-64390000D02*
X114654000Y-65814000D01*
%TO.N,Net-(J1-Pin_1)*%
X116332000Y-132603000D02*
X116332000Y-117348000D01*
X115077000Y-133858000D02*
X116332000Y-132603000D01*
X180048000Y-117348000D02*
X180048000Y-71120000D01*
%TO.N,Net-(D31-A)*%
X178054000Y-91948000D02*
X178054000Y-88997002D01*
X166878000Y-88772000D02*
X166878000Y-91948000D01*
%TO.N,GPIO2_2_LS*%
X168910000Y-108332000D02*
X168910000Y-106864000D01*
X138909157Y-98748314D02*
X138909157Y-106934000D01*
X138909157Y-106934000D02*
X138909157Y-109445157D01*
%TO.N,GPIO2_1_LS*%
X172974000Y-108332000D02*
X172974000Y-99568000D01*
%TO.N,GPIO2_0_LS*%
X177038000Y-108332000D02*
X177038000Y-106264000D01*
%TO.N,Net-(D33-A)*%
X168910000Y-112077000D02*
X168910000Y-109982000D01*
%TO.N,Net-(D35-A)*%
X177038000Y-112077000D02*
X177038000Y-109982000D01*
%TO.N,Net-(D34-A)*%
X172974000Y-112077000D02*
X172974000Y-109982000D01*
%TO.N,VCC_SRAM*%
X173990000Y-103886000D02*
X173990000Y-100330000D01*
X164168000Y-103970000D02*
X164084000Y-103886000D01*
X163068000Y-123952000D02*
X164168000Y-122852000D01*
X164168000Y-122852000D02*
X164168000Y-103970000D01*
%TO.N,GPIO1_28_LS*%
X178054000Y-105664000D02*
X178054000Y-96012000D01*
%TO.N,VCC_SRAM*%
X175514000Y-92242000D02*
X172974000Y-89702000D01*
X175514000Y-96012000D02*
X175514000Y-92242000D01*
%TO.N,Net-(Q2-G)*%
X173924000Y-79690000D02*
X173924000Y-87082000D01*
X173736000Y-79502000D02*
X173924000Y-79690000D01*
X173736000Y-79248000D02*
X173736000Y-79502000D01*
X155448000Y-65532000D02*
X155448000Y-79248000D01*
X156718000Y-64262000D02*
X155448000Y-65532000D01*
%TO.N,5V*%
X171974000Y-87032000D02*
X172024000Y-87082000D01*
X171974000Y-84016000D02*
X171974000Y-87032000D01*
%TO.N,GPIO2_12_LS*%
X112268000Y-94234000D02*
X112268000Y-65660000D01*
X128778000Y-109397635D02*
X128778000Y-94234000D01*
X127508000Y-123952000D02*
X127508000Y-110667635D01*
X127508000Y-110667635D02*
X128778000Y-109397635D01*
%TO.N,GPIO2_29_LS*%
X116078000Y-98298000D02*
X116078000Y-88772000D01*
X127508000Y-108712000D02*
X127508000Y-98460000D01*
%TO.N,GPIO2_28_LS*%
X118618000Y-99060000D02*
X118618000Y-88772000D01*
X130048000Y-108712000D02*
X130048000Y-99060000D01*
%TO.N,GPIO1_28_LS*%
X126838000Y-89372000D02*
X126238000Y-88772000D01*
X126838000Y-105664000D02*
X126838000Y-89372000D01*
X161628000Y-105748000D02*
X161544000Y-105664000D01*
X161628000Y-109567635D02*
X161628000Y-105748000D01*
X160528000Y-123952000D02*
X160528000Y-110667635D01*
X160528000Y-110667635D02*
X161628000Y-109567635D01*
%TO.N,GPIO1_29_LS*%
X129032000Y-93218000D02*
X128778000Y-92964000D01*
X128778000Y-92964000D02*
X128778000Y-88772000D01*
X160528000Y-108712000D02*
X160528000Y-93472000D01*
%TO.N,GPIO1_20_LS*%
X130902000Y-89188000D02*
X131318000Y-88772000D01*
X130902000Y-104556000D02*
X130902000Y-89188000D01*
X130888000Y-104902000D02*
X130888000Y-104570000D01*
X130888000Y-104570000D02*
X130902000Y-104556000D01*
X152908000Y-108712000D02*
X152908000Y-104902000D01*
%TO.N,GPIO1_21_LS*%
X150368000Y-110686314D02*
X150368000Y-123952000D01*
X151468000Y-107866000D02*
X151468000Y-109586314D01*
X152238000Y-107096000D02*
X151468000Y-107866000D01*
X152238000Y-93980000D02*
X152238000Y-107096000D01*
X151468000Y-109586314D02*
X150368000Y-110686314D01*
X133858000Y-88772000D02*
X133858000Y-93980000D01*
%TO.N,GPIO2_3_LS*%
X135128000Y-110686314D02*
X135128000Y-123952000D01*
X136568000Y-109246314D02*
X135128000Y-110686314D01*
X136652000Y-96266000D02*
X136568000Y-96350000D01*
X136652000Y-95504000D02*
X136652000Y-96266000D01*
X136568000Y-96350000D02*
X136568000Y-109246314D01*
X138938000Y-88772000D02*
X138938000Y-95504000D01*
%TO.N,GPIO1_18_LS*%
X147828000Y-104324000D02*
X147828000Y-108712000D01*
X140808000Y-103978000D02*
X140970000Y-104140000D01*
X140808000Y-89442000D02*
X140808000Y-103978000D01*
X141478000Y-88772000D02*
X140808000Y-89442000D01*
%TO.N,GPIO1_19_LS*%
X150368000Y-94742000D02*
X150368000Y-108712000D01*
X144018000Y-88772000D02*
X144018000Y-94742000D01*
%TO.N,GPIO1_23_LS*%
X140208000Y-110686314D02*
X140208000Y-123952000D01*
X141648000Y-109246314D02*
X140208000Y-110686314D01*
X141648000Y-96096000D02*
X141648000Y-109246314D01*
X141732000Y-96012000D02*
X141648000Y-96096000D01*
X141732000Y-95504000D02*
X141732000Y-96012000D01*
X146558000Y-88772000D02*
X146558000Y-95504000D01*
%TO.N,GPIO1_22_LS*%
X149098000Y-109416314D02*
X147828000Y-110686314D01*
X149098000Y-88772000D02*
X149098000Y-109416314D01*
X147828000Y-110686314D02*
X147828000Y-123952000D01*
%TO.N,GPIO1_17_LS*%
X145288000Y-103724000D02*
X145288000Y-108712000D01*
X151638000Y-88772000D02*
X151638000Y-103724000D01*
%TO.N,GPIO1_16_LS*%
X142748000Y-103378000D02*
X142748000Y-108712000D01*
X153670000Y-90678000D02*
X153670000Y-103124000D01*
X154178000Y-88772000D02*
X154178000Y-90170000D01*
X154178000Y-90170000D02*
X153670000Y-90678000D01*
%TO.N,GPIO1_26_LS*%
X152908000Y-110686314D02*
X152908000Y-123952000D01*
X154348000Y-91142000D02*
X154348000Y-109246314D01*
X156718000Y-88772000D02*
X154348000Y-91142000D01*
X154348000Y-109246314D02*
X152908000Y-110686314D01*
%TO.N,GPIO1_27_LS*%
X157988000Y-90042000D02*
X157988000Y-108712000D01*
X159258000Y-88772000D02*
X157988000Y-90042000D01*
%TO.N,GPIO1_24_LS*%
X145288000Y-110686314D02*
X145288000Y-123952000D01*
X146728000Y-99398000D02*
X146728000Y-109246314D01*
X146812000Y-99314000D02*
X146728000Y-99398000D01*
X146812000Y-98552000D02*
X146812000Y-99314000D01*
X161798000Y-88772000D02*
X161798000Y-98552000D01*
X146728000Y-109246314D02*
X145288000Y-110686314D01*
%TO.N,GPIO1_25_LS*%
X155448000Y-103124000D02*
X155448000Y-108712000D01*
X164338000Y-88772000D02*
X164338000Y-103054000D01*
%TO.N,GPIO1_3_LS*%
X135128000Y-102616000D02*
X135128000Y-108712000D01*
X167994000Y-102262000D02*
X167894000Y-102362000D01*
X167994000Y-65814000D02*
X167994000Y-102262000D01*
X169418000Y-64390000D02*
X167994000Y-65814000D01*
%TO.N,GPIO1_2_LS*%
X132588000Y-102108000D02*
X132588000Y-108712000D01*
X166878000Y-64390000D02*
X165608000Y-65660000D01*
X165608000Y-65660000D02*
X165608000Y-101854000D01*
%TO.N,5V_control*%
X156734000Y-65928000D02*
X156718000Y-65912000D01*
X156734000Y-68776000D02*
X156734000Y-65928000D01*
%TO.N,GPIO2_10_LS*%
X132588000Y-110686314D02*
X132588000Y-123952000D01*
X133858000Y-109416314D02*
X132588000Y-110686314D01*
X133858000Y-101622000D02*
X133858000Y-109416314D01*
X152908000Y-65185000D02*
X152908000Y-101092000D01*
X153703000Y-64390000D02*
X152908000Y-65185000D01*
X134112000Y-101368000D02*
X133858000Y-101622000D01*
X154178000Y-64390000D02*
X153703000Y-64390000D01*
%TO.N,GPIO2_16_LS*%
X126238000Y-109416314D02*
X124968000Y-110686314D01*
X126238000Y-100838000D02*
X126238000Y-109416314D01*
X148014000Y-100582000D02*
X147828000Y-100768000D01*
X124968000Y-110686314D02*
X124968000Y-123952000D01*
X148014000Y-65474000D02*
X148014000Y-100582000D01*
X149098000Y-64390000D02*
X148014000Y-65474000D01*
%TO.N,GPIO2_11_LS*%
X130048000Y-110686314D02*
X130048000Y-123952000D01*
X131488000Y-97112000D02*
X131488000Y-109246314D01*
X131488000Y-109246314D02*
X130048000Y-110686314D01*
X131826000Y-96174000D02*
X131826000Y-96774000D01*
X145288000Y-65660000D02*
X145288000Y-96174000D01*
X131826000Y-96774000D02*
X131488000Y-97112000D01*
X146558000Y-64390000D02*
X145288000Y-65660000D01*
%TO.N,GPIO2_0_LS*%
X155448000Y-110686314D02*
X155448000Y-123952000D01*
X156718000Y-109416314D02*
X155448000Y-110686314D01*
X156718000Y-100076000D02*
X156718000Y-109416314D01*
X142934000Y-100100000D02*
X143002000Y-100168000D01*
X142934000Y-65474000D02*
X142934000Y-100100000D01*
X144018000Y-64390000D02*
X142934000Y-65474000D01*
%TO.N,GPIO2_2_LS*%
X140394000Y-65474000D02*
X140394000Y-97263471D01*
X138909157Y-109445157D02*
X137668000Y-110686314D01*
X141478000Y-64390000D02*
X140394000Y-65474000D01*
X140394000Y-97263471D02*
X138909157Y-98748314D01*
X137668000Y-110686314D02*
X137668000Y-123952000D01*
%TO.N,GPIO2_1_LS*%
X142748000Y-110686314D02*
X142748000Y-123952000D01*
X144018000Y-109416314D02*
X142748000Y-110686314D01*
X144018000Y-99568000D02*
X144018000Y-109416314D01*
X138268000Y-89289648D02*
X138268000Y-99568000D01*
X137854000Y-65474000D02*
X137854000Y-88875648D01*
X137854000Y-88875648D02*
X138268000Y-89289648D01*
X138938000Y-64390000D02*
X137854000Y-65474000D01*
%TO.N,GPIO1_12_LS*%
X137668000Y-98898000D02*
X137668000Y-108712000D01*
X132774000Y-98830000D02*
X132842000Y-98898000D01*
X132774000Y-65474000D02*
X132774000Y-98830000D01*
X133858000Y-64390000D02*
X132774000Y-65474000D01*
%TO.N,GPIO1_13_LS*%
X140208000Y-98298000D02*
X140208000Y-108712000D01*
X130234000Y-65474000D02*
X130234000Y-98230000D01*
X131318000Y-64390000D02*
X130234000Y-65474000D01*
X130234000Y-98230000D02*
X130302000Y-98298000D01*
%TO.N,GPIO1_30_LS*%
X157988000Y-110686314D02*
X157988000Y-123952000D01*
X159258000Y-109416314D02*
X157988000Y-110686314D01*
X159258000Y-98298000D02*
X159258000Y-109416314D01*
X159512000Y-98044000D02*
X159258000Y-98298000D01*
X159512000Y-97536000D02*
X159512000Y-98044000D01*
X127694000Y-97468000D02*
X127762000Y-97536000D01*
X127694000Y-65474000D02*
X127694000Y-97468000D01*
X128778000Y-64390000D02*
X127694000Y-65474000D01*
%TO.N,GPIO1_31_LS*%
X163068000Y-96774000D02*
X163068000Y-108712000D01*
X125154000Y-96706000D02*
X125222000Y-96774000D01*
X125154000Y-65474000D02*
X125154000Y-96706000D01*
X126238000Y-64390000D02*
X125154000Y-65474000D01*
%TO.N,GPIO2_12_LS*%
X113538000Y-64390000D02*
X112268000Y-65660000D01*
%TO.N,GND*%
X123818000Y-131438000D02*
X123818000Y-109862000D01*
X124968000Y-132588000D02*
X123818000Y-131438000D01*
X123818000Y-109862000D02*
X124968000Y-108712000D01*
%TO.N,GPIO2_29_LS*%
X126358000Y-109862000D02*
X127508000Y-108712000D01*
X126358000Y-131438000D02*
X126358000Y-109862000D01*
X127508000Y-132588000D02*
X126358000Y-131438000D01*
%TO.N,GPIO2_28_LS*%
X128898000Y-131438000D02*
X128898000Y-109862000D01*
X130048000Y-132588000D02*
X128898000Y-131438000D01*
X128898000Y-109862000D02*
X130048000Y-108712000D01*
%TO.N,GPIO1_2_LS*%
X131438000Y-131438000D02*
X131438000Y-109862000D01*
X131438000Y-109862000D02*
X132588000Y-108712000D01*
X132588000Y-132588000D02*
X131438000Y-131438000D01*
%TO.N,GPIO1_3_LS*%
X133978000Y-109862000D02*
X135128000Y-108712000D01*
X133978000Y-131438000D02*
X133978000Y-109862000D01*
X135128000Y-132588000D02*
X133978000Y-131438000D01*
%TO.N,GPIO1_12_LS*%
X136518000Y-109862000D02*
X137668000Y-108712000D01*
X136518000Y-131438000D02*
X136518000Y-109862000D01*
X137668000Y-132588000D02*
X136518000Y-131438000D01*
%TO.N,GPIO1_13_LS*%
X139058000Y-109862000D02*
X140208000Y-108712000D01*
X140208000Y-132588000D02*
X139058000Y-131438000D01*
X139058000Y-131438000D02*
X139058000Y-109862000D01*
%TO.N,GPIO1_16_LS*%
X141598000Y-131438000D02*
X141598000Y-109862000D01*
X142748000Y-132588000D02*
X141598000Y-131438000D01*
X141598000Y-109862000D02*
X142748000Y-108712000D01*
%TO.N,GPIO1_17_LS*%
X144138000Y-109862000D02*
X145288000Y-108712000D01*
X145288000Y-132588000D02*
X144138000Y-131438000D01*
X144138000Y-131438000D02*
X144138000Y-109862000D01*
%TO.N,GPIO1_18_LS*%
X146678000Y-131438000D02*
X146678000Y-109862000D01*
X146678000Y-109862000D02*
X147828000Y-108712000D01*
X147828000Y-132588000D02*
X146678000Y-131438000D01*
%TO.N,GPIO1_19_LS*%
X149218000Y-131438000D02*
X149218000Y-109862000D01*
X150368000Y-132588000D02*
X149218000Y-131438000D01*
X149218000Y-109862000D02*
X150368000Y-108712000D01*
%TO.N,GPIO1_20_LS*%
X151758000Y-109862000D02*
X152908000Y-108712000D01*
X151758000Y-131438000D02*
X151758000Y-109862000D01*
X152908000Y-132588000D02*
X151758000Y-131438000D01*
%TO.N,GPIO1_25_LS*%
X154058000Y-131198000D02*
X154058000Y-110102000D01*
X154058000Y-110102000D02*
X155448000Y-108712000D01*
X155448000Y-132588000D02*
X154058000Y-131198000D01*
%TO.N,GPIO1_27_LS*%
X156598000Y-110102000D02*
X157988000Y-108712000D01*
X156598000Y-131198000D02*
X156598000Y-110102000D01*
X157988000Y-132588000D02*
X156598000Y-131198000D01*
%TO.N,GPIO1_29_LS*%
X159138000Y-110102000D02*
X160528000Y-108712000D01*
X159138000Y-131198000D02*
X159138000Y-110102000D01*
X160528000Y-132588000D02*
X159138000Y-131198000D01*
%TO.N,GPIO1_31_LS*%
X161678000Y-110102000D02*
X163068000Y-108712000D01*
X161678000Y-131198000D02*
X161678000Y-110102000D01*
X163068000Y-132588000D02*
X161678000Y-131198000D01*
%TO.N,GPIO2_16_LS*%
X124968000Y-123952000D02*
X124968000Y-130048000D01*
%TO.N,GPIO2_12_LS*%
X127508000Y-123952000D02*
X127508000Y-130048000D01*
%TO.N,GPIO2_11_LS*%
X130048000Y-123952000D02*
X130048000Y-130048000D01*
%TO.N,GPIO2_10_LS*%
X132588000Y-123952000D02*
X132588000Y-130048000D01*
%TO.N,GPIO2_3_LS*%
X135128000Y-123952000D02*
X135128000Y-130048000D01*
%TO.N,GPIO2_2_LS*%
X137668000Y-123952000D02*
X137668000Y-130048000D01*
%TO.N,GPIO1_23_LS*%
X140208000Y-123952000D02*
X140208000Y-130048000D01*
%TO.N,GPIO2_1_LS*%
X142748000Y-123952000D02*
X142748000Y-130048000D01*
%TO.N,GPIO1_24_LS*%
X145288000Y-123952000D02*
X145288000Y-130048000D01*
%TO.N,GPIO1_22_LS*%
X147828000Y-123952000D02*
X147828000Y-130048000D01*
%TO.N,GPIO1_21_LS*%
X150368000Y-123952000D02*
X150368000Y-130048000D01*
%TO.N,GPIO1_26_LS*%
X152908000Y-123952000D02*
X152908000Y-130048000D01*
%TO.N,GPIO2_0_LS*%
X155448000Y-123952000D02*
X155448000Y-130048000D01*
%TO.N,GPIO1_30_LS*%
X157988000Y-123952000D02*
X157988000Y-130048000D01*
%TO.N,GPIO1_28_LS*%
X160528000Y-123952000D02*
X160528000Y-130048000D01*
%TO.N,VCC_SRAM*%
X163068000Y-123952000D02*
X163068000Y-130048000D01*
%TO.N,HIGH_SPEED_CLK_ACTIVE_LED*%
X113554000Y-84016000D02*
X113554000Y-87106000D01*
X113554000Y-87106000D02*
X113538000Y-87122000D01*
%TO.N,GPIO2_29*%
X116094000Y-87106000D02*
X116078000Y-87122000D01*
X116094000Y-84016000D02*
X116094000Y-87106000D01*
%TO.N,GPIO2_28*%
X118634000Y-87106000D02*
X118618000Y-87122000D01*
X118634000Y-84016000D02*
X118634000Y-87106000D01*
%TO.N,EXTRA_PIN_3*%
X121174000Y-87106000D02*
X121158000Y-87122000D01*
X121174000Y-84016000D02*
X121174000Y-87106000D01*
%TO.N,EXTRA_PIN_4*%
X123714000Y-87106000D02*
X123698000Y-87122000D01*
X123714000Y-84016000D02*
X123714000Y-87106000D01*
%TO.N,GPIO1_28*%
X126254000Y-84016000D02*
X126254000Y-87106000D01*
X126254000Y-87106000D02*
X126238000Y-87122000D01*
%TO.N,GPIO1_29*%
X128794000Y-87106000D02*
X128778000Y-87122000D01*
X128794000Y-84016000D02*
X128794000Y-87106000D01*
%TO.N,GPIO1_20*%
X131334000Y-87106000D02*
X131318000Y-87122000D01*
X131334000Y-84016000D02*
X131334000Y-87106000D01*
%TO.N,GPIO1_21*%
X133874000Y-87106000D02*
X133858000Y-87122000D01*
X133874000Y-84016000D02*
X133874000Y-87106000D01*
%TO.N,GPIO2_3*%
X138954000Y-87106000D02*
X138938000Y-87122000D01*
X138954000Y-84016000D02*
X138954000Y-87106000D01*
%TO.N,GPIO1_18*%
X141494000Y-87106000D02*
X141478000Y-87122000D01*
X141494000Y-84016000D02*
X141494000Y-87106000D01*
%TO.N,GPIO1_19*%
X144034000Y-87106000D02*
X144018000Y-87122000D01*
X144034000Y-84016000D02*
X144034000Y-87106000D01*
%TO.N,GPIO1_23*%
X146574000Y-87106000D02*
X146558000Y-87122000D01*
X146574000Y-84016000D02*
X146574000Y-87106000D01*
%TO.N,GPIO1_22*%
X149114000Y-87106000D02*
X149098000Y-87122000D01*
X149114000Y-84016000D02*
X149114000Y-87106000D01*
%TO.N,GPIO1_17*%
X151654000Y-84016000D02*
X151654000Y-87106000D01*
X151654000Y-87106000D02*
X151638000Y-87122000D01*
%TO.N,GPIO1_16*%
X154194000Y-87106000D02*
X154178000Y-87122000D01*
X154194000Y-84016000D02*
X154194000Y-87106000D01*
%TO.N,GPIO1_26*%
X156734000Y-87106000D02*
X156718000Y-87122000D01*
X156734000Y-84016000D02*
X156734000Y-87106000D01*
%TO.N,GPIO1_27*%
X159274000Y-84016000D02*
X159274000Y-87106000D01*
X159274000Y-87106000D02*
X159258000Y-87122000D01*
%TO.N,GPIO1_24*%
X161814000Y-84016000D02*
X161814000Y-87106000D01*
X161814000Y-87106000D02*
X161798000Y-87122000D01*
%TO.N,GPIO1_25*%
X164354000Y-87106000D02*
X164338000Y-87122000D01*
X164354000Y-84016000D02*
X164354000Y-87106000D01*
%TO.N,3V3*%
X166894000Y-87106000D02*
X166878000Y-87122000D01*
X166894000Y-84016000D02*
X166894000Y-87106000D01*
%TO.N,GPIO1_3*%
X169434000Y-68776000D02*
X169434000Y-66056000D01*
X169434000Y-66056000D02*
X169418000Y-66040000D01*
%TO.N,GPIO1_2*%
X166894000Y-66056000D02*
X166878000Y-66040000D01*
X166894000Y-68776000D02*
X166894000Y-66056000D01*
%TO.N,TEENSY_LISTENING*%
X164354000Y-68776000D02*
X164354000Y-66056000D01*
X164354000Y-66056000D02*
X164338000Y-66040000D01*
%TO.N,RESET_CPU_PIN*%
X161814000Y-66056000D02*
X161798000Y-66040000D01*
X161814000Y-68776000D02*
X161814000Y-66056000D01*
%TO.N,EXTRA_PIN_1*%
X159274000Y-66056000D02*
X159258000Y-66040000D01*
X159274000Y-68776000D02*
X159274000Y-66056000D01*
%TO.N,GPIO2_10*%
X154194000Y-66056000D02*
X154178000Y-66040000D01*
X154194000Y-68776000D02*
X154194000Y-66056000D01*
%TO.N,EXTRA_PIN_2*%
X151654000Y-66056000D02*
X151638000Y-66040000D01*
X151654000Y-68776000D02*
X151654000Y-66056000D01*
%TO.N,GPIO2_16*%
X149114000Y-66056000D02*
X149098000Y-66040000D01*
X149114000Y-68776000D02*
X149114000Y-66056000D01*
%TO.N,GPIO2_11*%
X146574000Y-66056000D02*
X146558000Y-66040000D01*
X146574000Y-68776000D02*
X146574000Y-66056000D01*
%TO.N,GPIO2_0*%
X144034000Y-66056000D02*
X144018000Y-66040000D01*
X144034000Y-68776000D02*
X144034000Y-66056000D01*
%TO.N,GPIO2_2*%
X141494000Y-66056000D02*
X141478000Y-66040000D01*
X141494000Y-68776000D02*
X141494000Y-66056000D01*
%TO.N,GPIO2_1*%
X138954000Y-68776000D02*
X138954000Y-66056000D01*
X138954000Y-66056000D02*
X138938000Y-66040000D01*
%TO.N,GPIO1_12*%
X133874000Y-68776000D02*
X133874000Y-66056000D01*
X133874000Y-66056000D02*
X133858000Y-66040000D01*
%TO.N,GPIO1_13*%
X131334000Y-66056000D02*
X131318000Y-66040000D01*
X131334000Y-68776000D02*
X131334000Y-66056000D01*
%TO.N,GPIO1_30*%
X128794000Y-66056000D02*
X128778000Y-66040000D01*
X128794000Y-68776000D02*
X128794000Y-66056000D01*
%TO.N,GPIO1_31*%
X126254000Y-66056000D02*
X126238000Y-66040000D01*
X126254000Y-68776000D02*
X126254000Y-66056000D01*
%TO.N,RX7*%
X123714000Y-68776000D02*
X123714000Y-66056000D01*
X123714000Y-66056000D02*
X123698000Y-66040000D01*
%TO.N,TX7*%
X121174000Y-66056000D02*
X121158000Y-66040000D01*
X121174000Y-68776000D02*
X121174000Y-66056000D01*
%TO.N,EXT_CLK_ACTIVE_LED*%
X118634000Y-66056000D02*
X118618000Y-66040000D01*
X118634000Y-68776000D02*
X118634000Y-66056000D01*
%TO.N,EXT_CLK_PIN*%
X116094000Y-66310000D02*
X116094000Y-68776000D01*
X116078000Y-66294000D02*
X116094000Y-66310000D01*
X116078000Y-66040000D02*
X116078000Y-66294000D01*
%TO.N,GPIO2_12*%
X113554000Y-66056000D02*
X113538000Y-66040000D01*
X113554000Y-68776000D02*
X113554000Y-66056000D01*
%TD*%
%TA.AperFunction,Conductor*%
%TO.N,GND*%
G36*
X112737519Y-63512185D02*
G01*
X112783274Y-63564989D01*
X112793218Y-63634147D01*
X112764193Y-63697703D01*
X112758161Y-63704181D01*
X112707531Y-63754810D01*
X112707530Y-63754811D01*
X112619522Y-63900393D01*
X112568913Y-64062807D01*
X112562500Y-64133386D01*
X112562500Y-64464902D01*
X112542815Y-64531941D01*
X112526181Y-64552583D01*
X111787481Y-65291282D01*
X111787479Y-65291284D01*
X111766540Y-65327554D01*
X111752182Y-65352423D01*
X111732413Y-65386663D01*
X111708423Y-65428214D01*
X111708423Y-65428215D01*
X111667499Y-65580943D01*
X111667499Y-65580945D01*
X111667499Y-65749046D01*
X111667500Y-65749059D01*
X111667500Y-78752905D01*
X111647815Y-78819944D01*
X111595011Y-78865699D01*
X111525853Y-78875643D01*
X111477528Y-78857899D01*
X111347523Y-78776211D01*
X111177254Y-78716631D01*
X111177249Y-78716630D01*
X110998004Y-78696435D01*
X110997996Y-78696435D01*
X110818750Y-78716630D01*
X110818745Y-78716631D01*
X110648476Y-78776211D01*
X110495737Y-78872184D01*
X110485906Y-78882015D01*
X110424582Y-78915498D01*
X110354891Y-78910511D01*
X110298958Y-78868638D01*
X110274544Y-78803173D01*
X110275008Y-78780447D01*
X110279565Y-78740002D01*
X110279565Y-78739996D01*
X110259369Y-78560750D01*
X110259368Y-78560745D01*
X110225036Y-78462630D01*
X110199789Y-78390478D01*
X110103816Y-78237738D01*
X109976262Y-78110184D01*
X109823523Y-78014211D01*
X109653254Y-77954631D01*
X109653249Y-77954630D01*
X109474004Y-77934435D01*
X109473996Y-77934435D01*
X109294750Y-77954630D01*
X109294745Y-77954631D01*
X109124476Y-78014211D01*
X108971737Y-78110184D01*
X108844184Y-78237737D01*
X108748211Y-78390476D01*
X108688631Y-78560745D01*
X108688630Y-78560750D01*
X108668435Y-78739996D01*
X108668435Y-78740003D01*
X108688630Y-78919249D01*
X108688631Y-78919254D01*
X108748211Y-79089523D01*
X108844185Y-79242263D01*
X108846445Y-79245097D01*
X108847334Y-79247275D01*
X108847889Y-79248158D01*
X108847734Y-79248255D01*
X108872855Y-79309783D01*
X108873500Y-79322412D01*
X108873500Y-102287587D01*
X108853815Y-102354626D01*
X108846450Y-102364896D01*
X108844186Y-102367734D01*
X108748211Y-102520476D01*
X108688631Y-102690745D01*
X108688630Y-102690750D01*
X108668435Y-102869996D01*
X108668435Y-102870003D01*
X108688630Y-103049249D01*
X108688631Y-103049254D01*
X108748211Y-103219523D01*
X108819931Y-103333664D01*
X108844184Y-103372262D01*
X108971738Y-103499816D01*
X109001370Y-103518435D01*
X109119991Y-103592970D01*
X109124478Y-103595789D01*
X109280822Y-103650496D01*
X109294745Y-103655368D01*
X109294750Y-103655369D01*
X109473996Y-103675565D01*
X109474000Y-103675565D01*
X109474004Y-103675565D01*
X109653249Y-103655369D01*
X109653252Y-103655368D01*
X109653255Y-103655368D01*
X109823522Y-103595789D01*
X109976262Y-103499816D01*
X110103816Y-103372262D01*
X110199789Y-103219522D01*
X110259368Y-103049255D01*
X110259369Y-103049249D01*
X110279565Y-102870003D01*
X110279565Y-102869996D01*
X110259369Y-102690750D01*
X110259368Y-102690745D01*
X110245884Y-102652211D01*
X110199789Y-102520478D01*
X110174291Y-102479899D01*
X110136504Y-102419761D01*
X110103816Y-102367738D01*
X110103814Y-102367736D01*
X110103813Y-102367734D01*
X110101550Y-102364896D01*
X110100659Y-102362715D01*
X110100111Y-102361842D01*
X110100264Y-102361745D01*
X110075144Y-102300209D01*
X110074500Y-102287587D01*
X110074500Y-100795280D01*
X110094185Y-100728241D01*
X110146989Y-100682486D01*
X110216147Y-100672542D01*
X110279703Y-100701567D01*
X110303492Y-100729306D01*
X110368184Y-100832262D01*
X110495738Y-100959816D01*
X110648478Y-101055789D01*
X110818745Y-101115368D01*
X110818750Y-101115369D01*
X110997996Y-101135565D01*
X110998000Y-101135565D01*
X110998004Y-101135565D01*
X111177249Y-101115369D01*
X111177252Y-101115368D01*
X111177255Y-101115368D01*
X111347522Y-101055789D01*
X111500262Y-100959816D01*
X111627816Y-100832262D01*
X111723789Y-100679522D01*
X111783368Y-100509255D01*
X111785709Y-100488478D01*
X111803565Y-100330003D01*
X111803565Y-100329996D01*
X111783369Y-100150750D01*
X111783368Y-100150745D01*
X111763717Y-100094586D01*
X111723789Y-99980478D01*
X111721592Y-99976982D01*
X111660504Y-99879761D01*
X111627816Y-99827738D01*
X111627814Y-99827736D01*
X111627813Y-99827734D01*
X111625550Y-99824896D01*
X111624659Y-99822715D01*
X111624111Y-99821842D01*
X111624264Y-99821745D01*
X111599144Y-99760209D01*
X111598500Y-99747587D01*
X111598500Y-94983094D01*
X111618185Y-94916055D01*
X111670989Y-94870300D01*
X111740147Y-94860356D01*
X111788471Y-94878100D01*
X111826193Y-94901802D01*
X111918475Y-94959788D01*
X112088745Y-95019368D01*
X112088750Y-95019369D01*
X112267996Y-95039565D01*
X112268000Y-95039565D01*
X112268004Y-95039565D01*
X112447249Y-95019369D01*
X112447252Y-95019368D01*
X112447255Y-95019368D01*
X112617522Y-94959789D01*
X112747528Y-94878100D01*
X112814764Y-94859100D01*
X112881599Y-94879467D01*
X112926814Y-94932735D01*
X112937500Y-94983094D01*
X112937500Y-119333903D01*
X112917815Y-119400942D01*
X112901181Y-119421584D01*
X110411084Y-121911681D01*
X110349761Y-121945166D01*
X110323403Y-121948000D01*
X109730144Y-121948000D01*
X109628223Y-121958413D01*
X109463077Y-122013137D01*
X109463066Y-122013142D01*
X109315000Y-122104471D01*
X109314996Y-122104474D01*
X109191974Y-122227496D01*
X109191971Y-122227500D01*
X109100642Y-122375566D01*
X109100637Y-122375577D01*
X109045913Y-122540723D01*
X109035500Y-122642644D01*
X109035500Y-123229355D01*
X109045913Y-123331276D01*
X109100637Y-123496422D01*
X109100642Y-123496433D01*
X109191971Y-123644499D01*
X109191974Y-123644503D01*
X109314999Y-123767528D01*
X109316183Y-123768258D01*
X109316823Y-123768970D01*
X109320664Y-123772007D01*
X109320145Y-123772663D01*
X109362906Y-123820208D01*
X109374125Y-123889171D01*
X109346279Y-123953252D01*
X109320877Y-123975262D01*
X109320977Y-123975388D01*
X109318177Y-123977601D01*
X109316184Y-123979329D01*
X109315315Y-123979864D01*
X109315309Y-123979869D01*
X109192370Y-124102808D01*
X109101096Y-124250785D01*
X109101094Y-124250790D01*
X109046407Y-124415826D01*
X109036000Y-124517684D01*
X109036000Y-124561000D01*
X111436000Y-124561000D01*
X111436000Y-124517697D01*
X111435999Y-124517684D01*
X111425592Y-124415826D01*
X111370905Y-124250790D01*
X111370903Y-124250785D01*
X111279629Y-124102808D01*
X111156690Y-123979869D01*
X111156685Y-123979865D01*
X111155822Y-123979333D01*
X111155353Y-123978812D01*
X111151023Y-123975388D01*
X111151608Y-123974648D01*
X111109096Y-123927386D01*
X111097873Y-123858424D01*
X111125716Y-123794341D01*
X111151398Y-123772086D01*
X111151336Y-123772007D01*
X111153106Y-123770607D01*
X111155820Y-123768255D01*
X111157003Y-123767526D01*
X111280026Y-123644503D01*
X111371362Y-123496425D01*
X111426087Y-123331275D01*
X111436500Y-123229348D01*
X111436500Y-122642652D01*
X111436499Y-122642644D01*
X111436496Y-122642576D01*
X111436500Y-122642559D01*
X111436500Y-122639495D01*
X111437232Y-122639495D01*
X111452740Y-122574621D01*
X111472650Y-122548583D01*
X113906713Y-120114521D01*
X113906716Y-120114520D01*
X114018520Y-120002716D01*
X114068639Y-119915904D01*
X114097577Y-119865785D01*
X114137806Y-119715646D01*
X114174168Y-119655989D01*
X114237015Y-119625459D01*
X114298534Y-119630701D01*
X114374737Y-119657366D01*
X114374743Y-119657367D01*
X114374745Y-119657368D01*
X114374746Y-119657368D01*
X114374750Y-119657369D01*
X114553996Y-119677565D01*
X114554000Y-119677565D01*
X114554004Y-119677565D01*
X114733249Y-119657369D01*
X114733252Y-119657368D01*
X114733255Y-119657368D01*
X114903522Y-119597789D01*
X115056262Y-119501816D01*
X115183816Y-119374262D01*
X115279789Y-119221522D01*
X115339368Y-119051255D01*
X115339369Y-119051249D01*
X115359565Y-118872003D01*
X115359565Y-118871996D01*
X115339369Y-118692750D01*
X115339366Y-118692737D01*
X115279790Y-118522479D01*
X115273506Y-118512478D01*
X115254500Y-118446507D01*
X115254500Y-98905940D01*
X115274185Y-98838901D01*
X115326989Y-98793146D01*
X115396147Y-98783202D01*
X115459703Y-98812227D01*
X115466181Y-98818259D01*
X115575738Y-98927816D01*
X115649782Y-98974341D01*
X115685921Y-98997049D01*
X115728478Y-99023789D01*
X115881258Y-99077249D01*
X115898745Y-99083368D01*
X115898750Y-99083369D01*
X116077996Y-99103565D01*
X116078000Y-99103565D01*
X116078004Y-99103565D01*
X116257249Y-99083369D01*
X116257252Y-99083368D01*
X116257255Y-99083368D01*
X116427522Y-99023789D01*
X116580262Y-98927816D01*
X116707816Y-98800262D01*
X116707819Y-98800256D01*
X116712159Y-98794816D01*
X116714508Y-98796689D01*
X116756812Y-98759252D01*
X116825862Y-98748585D01*
X116889718Y-98776944D01*
X116928105Y-98835324D01*
X116933500Y-98871501D01*
X116933500Y-106222598D01*
X116933499Y-106222616D01*
X116933499Y-106388322D01*
X116933498Y-106388322D01*
X116974423Y-106541053D01*
X116988413Y-106565284D01*
X116988412Y-106565284D01*
X116988413Y-106565285D01*
X117053475Y-106677977D01*
X117053481Y-106677985D01*
X117172349Y-106796853D01*
X117172355Y-106796858D01*
X118743181Y-108367684D01*
X118776666Y-108429007D01*
X118779500Y-108455365D01*
X118779500Y-121866461D01*
X118759815Y-121933500D01*
X118707011Y-121979255D01*
X118694504Y-121984167D01*
X118607077Y-122013137D01*
X118607066Y-122013142D01*
X118459000Y-122104471D01*
X118458996Y-122104474D01*
X118429181Y-122134290D01*
X118367858Y-122167775D01*
X118298166Y-122162791D01*
X118242233Y-122120919D01*
X118217816Y-122055455D01*
X118217500Y-122046609D01*
X118217500Y-119061945D01*
X118217500Y-119061943D01*
X118176577Y-118909216D01*
X118171550Y-118900510D01*
X118166129Y-118891118D01*
X118150298Y-118843005D01*
X118133369Y-118692750D01*
X118133368Y-118692745D01*
X118073788Y-118522476D01*
X117977815Y-118369737D01*
X117850262Y-118242184D01*
X117697523Y-118146211D01*
X117527254Y-118086631D01*
X117527249Y-118086630D01*
X117348004Y-118066435D01*
X117347996Y-118066435D01*
X117168750Y-118086630D01*
X117168742Y-118086632D01*
X117097454Y-118111577D01*
X117027675Y-118115138D01*
X116967048Y-118080409D01*
X116934821Y-118018415D01*
X116932500Y-117994535D01*
X116932500Y-117930412D01*
X116952185Y-117863373D01*
X116959555Y-117853097D01*
X116961810Y-117850267D01*
X116961816Y-117850262D01*
X117057789Y-117697522D01*
X117117368Y-117527255D01*
X117137565Y-117348000D01*
X117117368Y-117168745D01*
X117057789Y-116998478D01*
X116961816Y-116845738D01*
X116834262Y-116718184D01*
X116681523Y-116622211D01*
X116511254Y-116562631D01*
X116511249Y-116562630D01*
X116332004Y-116542435D01*
X116331996Y-116542435D01*
X116152750Y-116562630D01*
X116152745Y-116562631D01*
X115982476Y-116622211D01*
X115829737Y-116718184D01*
X115702184Y-116845737D01*
X115606211Y-116998476D01*
X115546631Y-117168745D01*
X115546630Y-117168750D01*
X115526435Y-117347996D01*
X115526435Y-117348003D01*
X115546630Y-117527249D01*
X115546631Y-117527254D01*
X115606211Y-117697523D01*
X115702185Y-117850263D01*
X115704445Y-117853097D01*
X115705334Y-117855275D01*
X115705889Y-117856158D01*
X115705734Y-117856255D01*
X115730855Y-117917783D01*
X115731500Y-117930412D01*
X115731500Y-132302901D01*
X115711815Y-132369940D01*
X115695181Y-132390582D01*
X115614582Y-132471181D01*
X115553259Y-132504666D01*
X115526901Y-132507500D01*
X114179129Y-132507500D01*
X114179123Y-132507501D01*
X114119516Y-132513908D01*
X113984671Y-132564202D01*
X113984664Y-132564206D01*
X113869455Y-132650452D01*
X113869452Y-132650455D01*
X113783206Y-132765664D01*
X113783202Y-132765671D01*
X113732908Y-132900517D01*
X113726501Y-132960116D01*
X113726500Y-132960135D01*
X113726500Y-134755870D01*
X113726501Y-134755876D01*
X113732908Y-134815483D01*
X113783204Y-134950332D01*
X113784153Y-134952070D01*
X113784574Y-134954005D01*
X113786303Y-134958641D01*
X113785636Y-134958889D01*
X113799007Y-135020342D01*
X113774593Y-135085807D01*
X113718660Y-135127680D01*
X113675323Y-135135500D01*
X107651751Y-135135500D01*
X107644264Y-135135274D01*
X107354205Y-135117728D01*
X107339340Y-135115923D01*
X107057201Y-135064219D01*
X107042663Y-135060635D01*
X106768832Y-134975306D01*
X106754831Y-134969997D01*
X106493263Y-134852275D01*
X106480004Y-134845316D01*
X106332047Y-134755873D01*
X106234537Y-134696926D01*
X106222217Y-134688422D01*
X105996426Y-134511526D01*
X105985218Y-134501596D01*
X105782403Y-134298781D01*
X105772473Y-134287573D01*
X105676449Y-134165007D01*
X105595573Y-134061776D01*
X105587075Y-134049465D01*
X105438680Y-133803989D01*
X105431727Y-133790743D01*
X105314000Y-133529163D01*
X105308693Y-133515167D01*
X105295947Y-133474265D01*
X105223363Y-133241335D01*
X105219780Y-133226798D01*
X105168075Y-132944657D01*
X105166271Y-132929794D01*
X105164751Y-132904673D01*
X105148726Y-132639736D01*
X105148500Y-132632249D01*
X105148500Y-131958711D01*
X106353500Y-131958711D01*
X106353500Y-132201288D01*
X106385161Y-132441785D01*
X106447947Y-132676104D01*
X106540773Y-132900205D01*
X106540777Y-132900214D01*
X106557855Y-132929794D01*
X106662064Y-133110289D01*
X106662066Y-133110292D01*
X106662067Y-133110293D01*
X106809733Y-133302736D01*
X106809739Y-133302743D01*
X106981256Y-133474260D01*
X106981263Y-133474266D01*
X107043908Y-133522335D01*
X107173711Y-133621936D01*
X107383788Y-133743224D01*
X107607900Y-133836054D01*
X107842211Y-133898838D01*
X108022586Y-133922584D01*
X108082711Y-133930500D01*
X108082712Y-133930500D01*
X108325289Y-133930500D01*
X108375983Y-133923826D01*
X108565789Y-133898838D01*
X108800100Y-133836054D01*
X109024212Y-133743224D01*
X109234289Y-133621936D01*
X109426738Y-133474265D01*
X109598265Y-133302738D01*
X109745936Y-133110289D01*
X109867224Y-132900212D01*
X109960054Y-132676100D01*
X110022838Y-132441789D01*
X110054500Y-132201288D01*
X110054500Y-131958712D01*
X110022838Y-131718211D01*
X109960054Y-131483900D01*
X109953248Y-131467470D01*
X109924680Y-131398499D01*
X109867224Y-131259788D01*
X109745936Y-131049711D01*
X109666266Y-130945883D01*
X109598266Y-130857263D01*
X109598260Y-130857256D01*
X109426743Y-130685739D01*
X109426736Y-130685733D01*
X109234293Y-130538067D01*
X109234292Y-130538066D01*
X109234289Y-130538064D01*
X109024212Y-130416776D01*
X109024205Y-130416773D01*
X108800104Y-130323947D01*
X108565785Y-130261161D01*
X108325289Y-130229500D01*
X108325288Y-130229500D01*
X108082712Y-130229500D01*
X108082711Y-130229500D01*
X107842214Y-130261161D01*
X107607895Y-130323947D01*
X107383794Y-130416773D01*
X107383785Y-130416777D01*
X107173706Y-130538067D01*
X106981263Y-130685733D01*
X106981256Y-130685739D01*
X106809739Y-130857256D01*
X106809733Y-130857263D01*
X106662067Y-131049706D01*
X106540777Y-131259785D01*
X106540773Y-131259794D01*
X106447947Y-131483895D01*
X106385161Y-131718214D01*
X106353500Y-131958711D01*
X105148500Y-131958711D01*
X105148500Y-125104315D01*
X109036000Y-125104315D01*
X109046407Y-125206173D01*
X109101094Y-125371209D01*
X109101096Y-125371214D01*
X109192370Y-125519191D01*
X109315308Y-125642129D01*
X109463285Y-125733403D01*
X109463290Y-125733405D01*
X109628326Y-125788092D01*
X109730184Y-125798499D01*
X109730197Y-125798500D01*
X109986000Y-125798500D01*
X110486000Y-125798500D01*
X110741803Y-125798500D01*
X110741815Y-125798499D01*
X110843673Y-125788092D01*
X111008709Y-125733405D01*
X111008714Y-125733403D01*
X111156691Y-125642129D01*
X111279629Y-125519191D01*
X111370903Y-125371214D01*
X111370905Y-125371209D01*
X111425592Y-125206173D01*
X111435999Y-125104315D01*
X111436000Y-125104302D01*
X111436000Y-125061000D01*
X110486000Y-125061000D01*
X110486000Y-125798500D01*
X109986000Y-125798500D01*
X109986000Y-125061000D01*
X109036000Y-125061000D01*
X109036000Y-125104315D01*
X105148500Y-125104315D01*
X105148500Y-113953344D01*
X105168185Y-113886305D01*
X105220989Y-113840550D01*
X105290147Y-113830606D01*
X105353703Y-113859631D01*
X105374074Y-113882220D01*
X105387505Y-113901401D01*
X105554599Y-114068495D01*
X105651384Y-114136265D01*
X105748165Y-114204032D01*
X105748167Y-114204033D01*
X105748170Y-114204035D01*
X105962337Y-114303903D01*
X106190592Y-114365063D01*
X106378918Y-114381539D01*
X106425999Y-114385659D01*
X106426000Y-114385659D01*
X106426001Y-114385659D01*
X106465234Y-114382226D01*
X106661408Y-114365063D01*
X106889663Y-114303903D01*
X107103830Y-114204035D01*
X107297401Y-114068495D01*
X107464495Y-113901401D01*
X107600035Y-113707830D01*
X107699903Y-113493663D01*
X107761063Y-113265408D01*
X107781659Y-113030000D01*
X107761063Y-112794592D01*
X107699903Y-112566337D01*
X107600035Y-112352171D01*
X107537081Y-112262262D01*
X107464494Y-112158597D01*
X107297402Y-111991506D01*
X107297396Y-111991501D01*
X107111842Y-111861575D01*
X107068217Y-111806998D01*
X107061023Y-111737500D01*
X107092546Y-111675145D01*
X107111842Y-111658425D01*
X107222780Y-111580745D01*
X107297401Y-111528495D01*
X107464495Y-111361401D01*
X107600035Y-111167830D01*
X107699903Y-110953663D01*
X107761063Y-110725408D01*
X107781659Y-110490000D01*
X107781220Y-110484988D01*
X107769917Y-110355796D01*
X107761063Y-110254592D01*
X107699903Y-110026337D01*
X107600035Y-109812171D01*
X107539267Y-109725384D01*
X107464494Y-109618597D01*
X107297402Y-109451506D01*
X107297396Y-109451501D01*
X107111842Y-109321575D01*
X107068217Y-109266998D01*
X107061023Y-109197500D01*
X107092546Y-109135145D01*
X107111842Y-109118425D01*
X107181972Y-109069319D01*
X107297401Y-108988495D01*
X107464495Y-108821401D01*
X107600035Y-108627830D01*
X107699903Y-108413663D01*
X107761063Y-108185408D01*
X107781659Y-107950000D01*
X107761063Y-107714592D01*
X107699903Y-107486337D01*
X107600035Y-107272171D01*
X107589683Y-107257386D01*
X107464494Y-107078597D01*
X107297402Y-106911506D01*
X107297396Y-106911501D01*
X107111842Y-106781575D01*
X107068217Y-106726998D01*
X107061023Y-106657500D01*
X107092546Y-106595145D01*
X107111842Y-106578425D01*
X107134026Y-106562891D01*
X107297401Y-106448495D01*
X107464495Y-106281401D01*
X107600035Y-106087830D01*
X107699903Y-105873663D01*
X107761063Y-105645408D01*
X107781659Y-105410000D01*
X107761063Y-105174592D01*
X107699903Y-104946337D01*
X107600035Y-104732171D01*
X107598514Y-104729998D01*
X107464494Y-104538597D01*
X107297402Y-104371506D01*
X107297396Y-104371501D01*
X107111842Y-104241575D01*
X107068217Y-104186998D01*
X107061023Y-104117500D01*
X107092546Y-104055145D01*
X107111842Y-104038425D01*
X107151650Y-104010551D01*
X107297401Y-103908495D01*
X107464495Y-103741401D01*
X107600035Y-103547830D01*
X107699903Y-103333663D01*
X107761063Y-103105408D01*
X107781659Y-102870000D01*
X107761063Y-102634592D01*
X107699903Y-102406337D01*
X107600035Y-102192171D01*
X107593439Y-102182750D01*
X107464494Y-101998597D01*
X107297402Y-101831506D01*
X107297396Y-101831501D01*
X107111842Y-101701575D01*
X107068217Y-101646998D01*
X107061023Y-101577500D01*
X107092546Y-101515145D01*
X107111842Y-101498425D01*
X107223256Y-101420412D01*
X107297401Y-101368495D01*
X107464495Y-101201401D01*
X107600035Y-101007830D01*
X107699903Y-100793663D01*
X107761063Y-100565408D01*
X107781659Y-100330000D01*
X107761063Y-100094592D01*
X107699903Y-99866337D01*
X107600035Y-99652171D01*
X107545115Y-99573737D01*
X107464496Y-99458600D01*
X107406158Y-99400262D01*
X107342179Y-99336283D01*
X107308696Y-99274963D01*
X107313680Y-99205271D01*
X107355551Y-99149337D01*
X107386529Y-99132422D01*
X107518086Y-99083354D01*
X107518093Y-99083350D01*
X107633187Y-98997190D01*
X107633190Y-98997187D01*
X107719350Y-98882093D01*
X107719354Y-98882086D01*
X107769596Y-98747379D01*
X107769598Y-98747372D01*
X107775999Y-98687844D01*
X107776000Y-98687827D01*
X107776000Y-98040000D01*
X106859012Y-98040000D01*
X106891925Y-97982993D01*
X106926000Y-97855826D01*
X106926000Y-97724174D01*
X106891925Y-97597007D01*
X106859012Y-97540000D01*
X107776000Y-97540000D01*
X107776000Y-96892172D01*
X107775999Y-96892155D01*
X107769598Y-96832627D01*
X107769596Y-96832620D01*
X107719354Y-96697913D01*
X107719350Y-96697906D01*
X107633190Y-96582812D01*
X107633187Y-96582809D01*
X107518093Y-96496649D01*
X107518086Y-96496645D01*
X107383379Y-96446403D01*
X107383372Y-96446401D01*
X107323844Y-96440000D01*
X106676000Y-96440000D01*
X106676000Y-97356988D01*
X106618993Y-97324075D01*
X106491826Y-97290000D01*
X106360174Y-97290000D01*
X106233007Y-97324075D01*
X106176000Y-97356988D01*
X106176000Y-96440000D01*
X105528155Y-96440000D01*
X105468627Y-96446401D01*
X105468620Y-96446403D01*
X105333910Y-96496646D01*
X105331921Y-96497733D01*
X105329707Y-96498214D01*
X105325601Y-96499746D01*
X105325380Y-96499155D01*
X105263647Y-96512581D01*
X105198184Y-96488160D01*
X105156316Y-96432224D01*
X105148500Y-96388897D01*
X105148500Y-66426712D01*
X106353500Y-66426712D01*
X106353500Y-66669288D01*
X106356499Y-66692067D01*
X106385161Y-66909785D01*
X106447947Y-67144104D01*
X106540773Y-67368205D01*
X106540776Y-67368212D01*
X106662064Y-67578289D01*
X106662066Y-67578292D01*
X106662067Y-67578293D01*
X106809733Y-67770736D01*
X106809739Y-67770743D01*
X106981256Y-67942260D01*
X106981263Y-67942266D01*
X107024517Y-67975456D01*
X107173711Y-68089936D01*
X107383788Y-68211224D01*
X107607900Y-68304054D01*
X107842211Y-68366838D01*
X108022586Y-68390584D01*
X108082711Y-68398500D01*
X108082712Y-68398500D01*
X108325289Y-68398500D01*
X108373388Y-68392167D01*
X108565789Y-68366838D01*
X108800100Y-68304054D01*
X109024212Y-68211224D01*
X109234289Y-68089936D01*
X109426738Y-67942265D01*
X109598265Y-67770738D01*
X109745936Y-67578289D01*
X109867224Y-67368212D01*
X109960054Y-67144100D01*
X110022838Y-66909789D01*
X110054500Y-66669288D01*
X110054500Y-66426712D01*
X110022838Y-66186211D01*
X109960054Y-65951900D01*
X109867224Y-65727788D01*
X109745936Y-65517711D01*
X109619107Y-65352424D01*
X109598266Y-65325263D01*
X109598260Y-65325256D01*
X109426743Y-65153739D01*
X109426736Y-65153733D01*
X109234293Y-65006067D01*
X109234292Y-65006066D01*
X109234289Y-65006064D01*
X109024212Y-64884776D01*
X109024205Y-64884773D01*
X108800104Y-64791947D01*
X108565785Y-64729161D01*
X108325289Y-64697500D01*
X108325288Y-64697500D01*
X108082712Y-64697500D01*
X108082711Y-64697500D01*
X107842214Y-64729161D01*
X107607895Y-64791947D01*
X107383794Y-64884773D01*
X107383785Y-64884777D01*
X107239645Y-64967997D01*
X107185396Y-64999318D01*
X107173706Y-65006067D01*
X106981263Y-65153733D01*
X106981256Y-65153739D01*
X106809739Y-65325256D01*
X106809733Y-65325263D01*
X106662067Y-65517706D01*
X106540777Y-65727785D01*
X106540773Y-65727794D01*
X106447947Y-65951895D01*
X106385161Y-66186214D01*
X106370627Y-66296616D01*
X106353500Y-66426712D01*
X105148500Y-66426712D01*
X105148500Y-65995750D01*
X105148726Y-65988263D01*
X105166271Y-65698205D01*
X105168076Y-65683340D01*
X105190119Y-65563059D01*
X105219780Y-65401197D01*
X105223364Y-65386663D01*
X105308696Y-65112822D01*
X105313998Y-65098841D01*
X105431731Y-64837249D01*
X105438676Y-64824016D01*
X105587080Y-64578526D01*
X105595567Y-64566230D01*
X105772480Y-64340417D01*
X105782395Y-64329226D01*
X105985226Y-64126395D01*
X105996417Y-64116480D01*
X106222230Y-63939567D01*
X106234526Y-63931080D01*
X106480016Y-63782676D01*
X106493249Y-63775731D01*
X106754841Y-63657998D01*
X106768822Y-63652696D01*
X107042668Y-63567362D01*
X107057197Y-63563780D01*
X107339344Y-63512075D01*
X107354201Y-63510271D01*
X107644264Y-63492726D01*
X107651751Y-63492500D01*
X107713892Y-63492500D01*
X112670480Y-63492500D01*
X112737519Y-63512185D01*
G37*
%TD.AperFunction*%
%TA.AperFunction,Conductor*%
G36*
X177851736Y-63492726D02*
G01*
X178141796Y-63510271D01*
X178156657Y-63512075D01*
X178344624Y-63546522D01*
X178438798Y-63563780D01*
X178453335Y-63567363D01*
X178727172Y-63652695D01*
X178741163Y-63658000D01*
X179002743Y-63775727D01*
X179015989Y-63782680D01*
X179261465Y-63931075D01*
X179273776Y-63939573D01*
X179431073Y-64062807D01*
X179499573Y-64116473D01*
X179510781Y-64126403D01*
X179713596Y-64329218D01*
X179723526Y-64340426D01*
X179773287Y-64403941D01*
X179863126Y-64518613D01*
X179900422Y-64566217D01*
X179908926Y-64578537D01*
X180037936Y-64791946D01*
X180057316Y-64824004D01*
X180064275Y-64837263D01*
X180181997Y-65098831D01*
X180187306Y-65112832D01*
X180272635Y-65386663D01*
X180276219Y-65401201D01*
X180327923Y-65683340D01*
X180329728Y-65698205D01*
X180347274Y-65988263D01*
X180347500Y-65995750D01*
X180347500Y-70209424D01*
X180327815Y-70276463D01*
X180275011Y-70322218D01*
X180209617Y-70332644D01*
X180048004Y-70314435D01*
X180047996Y-70314435D01*
X179868750Y-70334630D01*
X179868745Y-70334631D01*
X179698476Y-70394211D01*
X179545737Y-70490184D01*
X179418184Y-70617737D01*
X179322211Y-70770476D01*
X179262631Y-70940745D01*
X179262630Y-70940750D01*
X179242435Y-71119996D01*
X179242435Y-71120003D01*
X179262630Y-71299249D01*
X179262631Y-71299254D01*
X179322211Y-71469523D01*
X179418185Y-71622263D01*
X179420445Y-71625097D01*
X179421334Y-71627275D01*
X179421889Y-71628158D01*
X179421734Y-71628255D01*
X179446855Y-71689783D01*
X179447500Y-71702412D01*
X179447500Y-86573752D01*
X179427815Y-86640791D01*
X179375011Y-86686546D01*
X179305853Y-86696490D01*
X179242297Y-86667465D01*
X179205794Y-86612757D01*
X179188904Y-86561788D01*
X179188903Y-86561785D01*
X179097629Y-86413808D01*
X178974691Y-86290870D01*
X178826714Y-86199596D01*
X178826709Y-86199594D01*
X178661673Y-86144907D01*
X178559815Y-86134500D01*
X178304000Y-86134500D01*
X178304000Y-87248000D01*
X178284315Y-87315039D01*
X178231511Y-87360794D01*
X178180000Y-87372000D01*
X176854000Y-87372000D01*
X176854000Y-87415315D01*
X176864407Y-87517173D01*
X176919094Y-87682209D01*
X176919096Y-87682214D01*
X177010370Y-87830191D01*
X177133306Y-87953127D01*
X177134173Y-87953662D01*
X177134644Y-87954186D01*
X177138977Y-87957612D01*
X177138391Y-87958351D01*
X177180901Y-88005607D01*
X177192129Y-88074568D01*
X177164290Y-88138653D01*
X177138601Y-88160916D01*
X177138664Y-88160995D01*
X177136914Y-88162378D01*
X177134193Y-88164737D01*
X177133003Y-88165470D01*
X177132996Y-88165476D01*
X177009974Y-88288498D01*
X177009971Y-88288502D01*
X176918642Y-88436568D01*
X176918637Y-88436579D01*
X176863913Y-88601725D01*
X176853500Y-88703646D01*
X176853500Y-89290357D01*
X176863913Y-89392278D01*
X176918637Y-89557424D01*
X176918642Y-89557435D01*
X177009971Y-89705501D01*
X177009974Y-89705505D01*
X177132996Y-89828527D01*
X177133000Y-89828530D01*
X177281066Y-89919859D01*
X177281069Y-89919860D01*
X177281075Y-89919864D01*
X177368504Y-89948835D01*
X177425948Y-89988606D01*
X177452772Y-90053122D01*
X177453500Y-90066540D01*
X177453500Y-91365587D01*
X177433815Y-91432626D01*
X177426450Y-91442896D01*
X177424186Y-91445734D01*
X177328211Y-91598476D01*
X177268631Y-91768745D01*
X177268630Y-91768750D01*
X177248435Y-91947996D01*
X177248435Y-91948003D01*
X177268630Y-92127249D01*
X177268631Y-92127254D01*
X177328211Y-92297523D01*
X177406287Y-92421779D01*
X177424184Y-92450262D01*
X177551738Y-92577816D01*
X177704478Y-92673789D01*
X177874745Y-92733368D01*
X177874750Y-92733369D01*
X178053996Y-92753565D01*
X178054000Y-92753565D01*
X178054004Y-92753565D01*
X178233249Y-92733369D01*
X178233252Y-92733368D01*
X178233255Y-92733368D01*
X178403522Y-92673789D01*
X178556262Y-92577816D01*
X178683816Y-92450262D01*
X178779789Y-92297522D01*
X178839368Y-92127255D01*
X178841959Y-92104262D01*
X178859565Y-91948003D01*
X178859565Y-91947996D01*
X178839369Y-91768750D01*
X178839368Y-91768745D01*
X178813215Y-91694003D01*
X178779789Y-91598478D01*
X178683816Y-91445738D01*
X178683814Y-91445736D01*
X178683813Y-91445734D01*
X178681550Y-91442896D01*
X178680659Y-91440715D01*
X178680111Y-91439842D01*
X178680264Y-91439745D01*
X178655144Y-91378209D01*
X178654500Y-91365587D01*
X178654500Y-90066540D01*
X178674185Y-89999501D01*
X178726989Y-89953746D01*
X178739486Y-89948837D01*
X178826925Y-89919864D01*
X178975003Y-89828528D01*
X179098026Y-89705505D01*
X179189362Y-89557427D01*
X179205794Y-89507835D01*
X179245567Y-89450392D01*
X179310082Y-89423569D01*
X179378858Y-89435884D01*
X179430058Y-89483427D01*
X179447500Y-89546841D01*
X179447500Y-94695937D01*
X179427815Y-94762976D01*
X179375011Y-94808731D01*
X179305853Y-94818675D01*
X179249189Y-94795203D01*
X179146335Y-94718206D01*
X179146328Y-94718202D01*
X179011482Y-94667908D01*
X179011483Y-94667908D01*
X178951883Y-94661501D01*
X178951881Y-94661500D01*
X178951873Y-94661500D01*
X178951864Y-94661500D01*
X177156129Y-94661500D01*
X177156123Y-94661501D01*
X177096516Y-94667908D01*
X176961671Y-94718202D01*
X176961664Y-94718206D01*
X176846455Y-94804452D01*
X176846452Y-94804455D01*
X176760206Y-94919664D01*
X176760203Y-94919669D01*
X176711189Y-95051083D01*
X176669317Y-95107016D01*
X176603853Y-95131433D01*
X176535580Y-95116581D01*
X176507326Y-95095430D01*
X176385402Y-94973506D01*
X176385395Y-94973501D01*
X176365812Y-94959789D01*
X176329281Y-94934209D01*
X176191831Y-94837965D01*
X176191826Y-94837962D01*
X176186091Y-94835288D01*
X176133653Y-94789113D01*
X176114500Y-94722908D01*
X176114500Y-92162945D01*
X176114500Y-92162943D01*
X176073577Y-92010216D01*
X176037655Y-91947996D01*
X175994524Y-91873290D01*
X175994521Y-91873286D01*
X175994520Y-91873284D01*
X175882716Y-91761480D01*
X175882715Y-91761479D01*
X175878385Y-91757149D01*
X175878374Y-91757139D01*
X173835818Y-89714583D01*
X173802333Y-89653260D01*
X173799499Y-89626902D01*
X173799499Y-89200901D01*
X173793431Y-89134117D01*
X173793428Y-89134106D01*
X173745532Y-88980401D01*
X173745531Y-88980400D01*
X173745531Y-88980398D01*
X173662236Y-88842612D01*
X173662234Y-88842610D01*
X173662233Y-88842608D01*
X173548391Y-88728766D01*
X173410602Y-88645469D01*
X173270227Y-88601727D01*
X173256887Y-88597570D01*
X173256885Y-88597569D01*
X173256883Y-88597569D01*
X173210117Y-88593319D01*
X173190091Y-88591500D01*
X173190088Y-88591500D01*
X172757901Y-88591500D01*
X172691117Y-88597568D01*
X172691106Y-88597571D01*
X172537401Y-88645467D01*
X172399608Y-88728766D01*
X172285766Y-88842608D01*
X172202469Y-88980397D01*
X172154569Y-89134116D01*
X172148500Y-89200911D01*
X172148500Y-90203098D01*
X172154568Y-90269882D01*
X172154571Y-90269893D01*
X172202467Y-90423598D01*
X172202468Y-90423600D01*
X172202469Y-90423602D01*
X172248495Y-90499738D01*
X172285766Y-90561391D01*
X172399608Y-90675233D01*
X172399610Y-90675234D01*
X172399612Y-90675236D01*
X172537398Y-90758531D01*
X172691113Y-90806430D01*
X172757909Y-90812500D01*
X173183902Y-90812499D01*
X173250941Y-90832183D01*
X173271583Y-90848818D01*
X174877181Y-92454416D01*
X174910666Y-92515739D01*
X174913500Y-92542097D01*
X174913500Y-94722908D01*
X174893815Y-94789947D01*
X174841914Y-94835286D01*
X174836173Y-94837963D01*
X174836169Y-94837965D01*
X174642597Y-94973505D01*
X174475508Y-95140594D01*
X174345575Y-95326158D01*
X174290998Y-95369782D01*
X174221499Y-95376975D01*
X174159145Y-95345453D01*
X174142425Y-95326157D01*
X174012495Y-95140597D01*
X173845403Y-94973506D01*
X173845396Y-94973501D01*
X173825813Y-94959789D01*
X173789282Y-94934209D01*
X173651835Y-94837967D01*
X173651831Y-94837965D01*
X173623965Y-94824971D01*
X173437664Y-94738097D01*
X173437660Y-94738096D01*
X173437656Y-94738094D01*
X173209414Y-94676938D01*
X173209404Y-94676936D01*
X172974002Y-94656341D01*
X172974000Y-94656341D01*
X172738597Y-94676936D01*
X172738587Y-94676938D01*
X172510345Y-94738094D01*
X172510336Y-94738098D01*
X172296172Y-94837964D01*
X172296170Y-94837965D01*
X172102598Y-94973505D01*
X171935506Y-95140597D01*
X171799966Y-95334169D01*
X171799965Y-95334171D01*
X171700099Y-95548335D01*
X171700095Y-95548344D01*
X171638939Y-95776586D01*
X171638937Y-95776596D01*
X171618342Y-96011999D01*
X171618342Y-96012000D01*
X171638937Y-96247403D01*
X171638939Y-96247413D01*
X171700095Y-96475655D01*
X171700097Y-96475659D01*
X171700098Y-96475663D01*
X171760699Y-96605621D01*
X171799966Y-96689830D01*
X171799968Y-96689834D01*
X171863995Y-96781273D01*
X171935506Y-96883401D01*
X172102600Y-97050495D01*
X172183105Y-97106865D01*
X172296166Y-97186032D01*
X172296168Y-97186033D01*
X172296171Y-97186035D01*
X172510338Y-97285903D01*
X172738593Y-97347063D01*
X172915035Y-97362500D01*
X172974000Y-97367659D01*
X172974001Y-97367659D01*
X172974002Y-97367659D01*
X173032967Y-97362500D01*
X173209409Y-97347063D01*
X173437664Y-97285903D01*
X173651831Y-97186035D01*
X173845402Y-97050495D01*
X174012496Y-96883401D01*
X174142425Y-96697842D01*
X174197002Y-96654218D01*
X174266500Y-96647024D01*
X174328855Y-96678547D01*
X174345575Y-96697842D01*
X174475505Y-96883401D01*
X174642599Y-97050495D01*
X174723104Y-97106865D01*
X174836165Y-97186032D01*
X174836167Y-97186033D01*
X174836170Y-97186035D01*
X174841898Y-97188706D01*
X174894339Y-97234872D01*
X174913500Y-97301090D01*
X174913500Y-98550284D01*
X174893815Y-98617323D01*
X174853652Y-98656400D01*
X174803811Y-98686530D01*
X174683530Y-98806811D01*
X174649818Y-98862577D01*
X174605703Y-98905812D01*
X174509284Y-98961479D01*
X173974112Y-99496651D01*
X173912789Y-99530136D01*
X173843097Y-99525152D01*
X173787164Y-99483280D01*
X173763211Y-99422853D01*
X173759368Y-99388745D01*
X173699789Y-99218478D01*
X173691490Y-99205271D01*
X173625613Y-99100428D01*
X173603816Y-99065738D01*
X173476262Y-98938184D01*
X173323523Y-98842211D01*
X173153254Y-98782631D01*
X173153249Y-98782630D01*
X172974004Y-98762435D01*
X172973996Y-98762435D01*
X172794750Y-98782630D01*
X172794745Y-98782631D01*
X172624476Y-98842211D01*
X172471737Y-98938184D01*
X172344184Y-99065737D01*
X172248211Y-99218476D01*
X172188631Y-99388745D01*
X172188630Y-99388750D01*
X172168435Y-99567996D01*
X172168435Y-99568003D01*
X172188630Y-99747249D01*
X172188631Y-99747254D01*
X172248211Y-99917523D01*
X172287769Y-99980478D01*
X172333106Y-100052632D01*
X172344185Y-100070263D01*
X172346445Y-100073097D01*
X172347334Y-100075275D01*
X172347889Y-100076158D01*
X172347734Y-100076255D01*
X172372855Y-100137783D01*
X172373500Y-100150412D01*
X172373500Y-107440284D01*
X172353815Y-107507323D01*
X172313652Y-107546400D01*
X172263811Y-107576530D01*
X172143530Y-107696811D01*
X172055522Y-107842393D01*
X172004913Y-108004807D01*
X171998500Y-108075386D01*
X171998500Y-108588613D01*
X172004913Y-108659192D01*
X172055522Y-108821606D01*
X172143530Y-108967188D01*
X172245661Y-109069319D01*
X172279146Y-109130642D01*
X172274162Y-109200334D01*
X172245661Y-109244681D01*
X172143531Y-109346810D01*
X172143530Y-109346811D01*
X172055522Y-109492393D01*
X172004913Y-109654807D01*
X171998500Y-109725386D01*
X171998500Y-110238613D01*
X172004913Y-110309192D01*
X172004913Y-110309194D01*
X172004914Y-110309196D01*
X172055522Y-110471606D01*
X172137527Y-110607259D01*
X172143530Y-110617188D01*
X172263811Y-110737469D01*
X172263813Y-110737470D01*
X172263815Y-110737472D01*
X172313650Y-110767598D01*
X172360838Y-110819126D01*
X172373500Y-110873715D01*
X172373500Y-111007461D01*
X172353815Y-111074500D01*
X172301011Y-111120255D01*
X172288504Y-111125167D01*
X172201077Y-111154137D01*
X172201066Y-111154142D01*
X172053000Y-111245471D01*
X172052996Y-111245474D01*
X171929974Y-111368496D01*
X171929971Y-111368500D01*
X171838642Y-111516566D01*
X171838637Y-111516577D01*
X171783913Y-111681723D01*
X171773500Y-111783644D01*
X171773500Y-112370355D01*
X171783913Y-112472276D01*
X171838637Y-112637422D01*
X171838642Y-112637433D01*
X171929971Y-112785499D01*
X171929974Y-112785503D01*
X172052999Y-112908528D01*
X172054183Y-112909258D01*
X172054823Y-112909970D01*
X172058664Y-112913007D01*
X172058145Y-112913663D01*
X172100906Y-112961206D01*
X172112127Y-113030169D01*
X172084283Y-113094251D01*
X172058877Y-113116264D01*
X172058977Y-113116390D01*
X172056190Y-113118593D01*
X172054184Y-113120332D01*
X172053309Y-113120871D01*
X171930370Y-113243810D01*
X171839096Y-113391787D01*
X171839094Y-113391792D01*
X171784407Y-113556828D01*
X171774000Y-113658686D01*
X171774000Y-113702002D01*
X174174000Y-113702002D01*
X174174000Y-113658699D01*
X174173999Y-113658686D01*
X174163592Y-113556828D01*
X174108905Y-113391792D01*
X174108903Y-113391787D01*
X174017629Y-113243810D01*
X173894690Y-113120871D01*
X173893822Y-113120336D01*
X173893350Y-113119812D01*
X173889023Y-113116390D01*
X173889607Y-113115650D01*
X173847096Y-113068390D01*
X173835871Y-112999428D01*
X173863712Y-112935345D01*
X173889399Y-112913087D01*
X173889336Y-112913007D01*
X173891117Y-112911598D01*
X173893823Y-112909254D01*
X173894309Y-112908954D01*
X173895003Y-112908526D01*
X174018026Y-112785503D01*
X174109362Y-112637425D01*
X174164087Y-112472275D01*
X174174500Y-112370348D01*
X174174500Y-111783652D01*
X174164087Y-111681725D01*
X174109362Y-111516575D01*
X174109358Y-111516569D01*
X174109357Y-111516566D01*
X174018028Y-111368500D01*
X174018025Y-111368496D01*
X173895003Y-111245474D01*
X173894999Y-111245471D01*
X173746933Y-111154142D01*
X173746927Y-111154139D01*
X173746925Y-111154138D01*
X173659496Y-111125167D01*
X173602051Y-111085394D01*
X173575228Y-111020878D01*
X173574500Y-111007461D01*
X173574500Y-110873715D01*
X173594185Y-110806676D01*
X173634349Y-110767598D01*
X173684185Y-110737472D01*
X173804472Y-110617185D01*
X173892478Y-110471606D01*
X173943086Y-110309196D01*
X173949500Y-110238616D01*
X173949500Y-109725384D01*
X173943086Y-109654804D01*
X173892478Y-109492394D01*
X173804472Y-109346815D01*
X173804470Y-109346813D01*
X173804469Y-109346811D01*
X173702339Y-109244681D01*
X173668854Y-109183358D01*
X173673838Y-109113666D01*
X173702339Y-109069319D01*
X173804468Y-108967189D01*
X173804469Y-108967188D01*
X173804472Y-108967185D01*
X173892478Y-108821606D01*
X173943086Y-108659196D01*
X173949500Y-108588616D01*
X173949500Y-108075384D01*
X173943086Y-108004804D01*
X173892478Y-107842394D01*
X173804472Y-107696815D01*
X173804470Y-107696813D01*
X173804469Y-107696811D01*
X173684188Y-107576530D01*
X173634348Y-107546400D01*
X173587162Y-107494871D01*
X173574500Y-107440284D01*
X173574500Y-104763464D01*
X173594185Y-104696425D01*
X173646989Y-104650670D01*
X173716147Y-104640726D01*
X173739455Y-104646423D01*
X173810737Y-104671366D01*
X173810743Y-104671367D01*
X173810745Y-104671368D01*
X173810746Y-104671368D01*
X173810750Y-104671369D01*
X173989996Y-104691565D01*
X173990000Y-104691565D01*
X173990003Y-104691565D01*
X174176116Y-104670595D01*
X174244938Y-104682649D01*
X174296318Y-104729998D01*
X174314000Y-104793815D01*
X174314000Y-104941315D01*
X174324407Y-105043173D01*
X174379094Y-105208209D01*
X174379096Y-105208214D01*
X174470370Y-105356191D01*
X174593308Y-105479129D01*
X174741285Y-105570403D01*
X174741290Y-105570405D01*
X174906326Y-105625092D01*
X175008184Y-105635499D01*
X175008197Y-105635500D01*
X175264000Y-105635500D01*
X175264000Y-104522000D01*
X175283685Y-104454961D01*
X175336489Y-104409206D01*
X175388000Y-104398000D01*
X176714000Y-104398000D01*
X176714000Y-104354697D01*
X176713999Y-104354684D01*
X176703592Y-104252826D01*
X176648905Y-104087790D01*
X176648903Y-104087785D01*
X176557629Y-103939808D01*
X176434690Y-103816869D01*
X176433822Y-103816334D01*
X176433350Y-103815810D01*
X176429023Y-103812388D01*
X176429607Y-103811648D01*
X176387096Y-103764388D01*
X176375871Y-103695426D01*
X176403712Y-103631343D01*
X176429399Y-103609085D01*
X176429336Y-103609005D01*
X176431117Y-103607596D01*
X176433823Y-103605252D01*
X176435001Y-103604525D01*
X176435000Y-103604525D01*
X176435003Y-103604524D01*
X176558026Y-103481501D01*
X176649362Y-103333423D01*
X176704087Y-103168273D01*
X176714500Y-103066346D01*
X176714500Y-102479650D01*
X176704087Y-102377723D01*
X176649362Y-102212573D01*
X176649358Y-102212567D01*
X176649357Y-102212564D01*
X176558028Y-102064498D01*
X176558025Y-102064494D01*
X176435003Y-101941472D01*
X176434999Y-101941469D01*
X176378839Y-101906829D01*
X176332114Y-101854881D01*
X176320893Y-101785919D01*
X176342254Y-101734609D01*
X176340591Y-101733604D01*
X176344470Y-101727186D01*
X176344472Y-101727185D01*
X176432478Y-101581606D01*
X176483086Y-101419196D01*
X176489500Y-101348616D01*
X176489500Y-100835384D01*
X176483086Y-100764804D01*
X176432478Y-100602394D01*
X176344472Y-100456815D01*
X176344470Y-100456813D01*
X176344469Y-100456811D01*
X176242339Y-100354681D01*
X176208854Y-100293358D01*
X176213838Y-100223666D01*
X176242339Y-100179319D01*
X176344468Y-100077189D01*
X176344469Y-100077188D01*
X176344472Y-100077185D01*
X176432478Y-99931606D01*
X176483086Y-99769196D01*
X176489500Y-99698616D01*
X176489500Y-99185384D01*
X176483086Y-99114804D01*
X176432478Y-98952394D01*
X176344472Y-98806815D01*
X176344470Y-98806813D01*
X176344469Y-98806811D01*
X176224188Y-98686530D01*
X176174348Y-98656400D01*
X176127162Y-98604871D01*
X176114500Y-98550284D01*
X176114500Y-97301090D01*
X176134185Y-97234051D01*
X176186101Y-97188706D01*
X176191830Y-97186035D01*
X176385401Y-97050495D01*
X176507329Y-96928566D01*
X176568648Y-96895084D01*
X176638340Y-96900068D01*
X176694274Y-96941939D01*
X176711189Y-96972917D01*
X176760202Y-97104328D01*
X176760206Y-97104335D01*
X176846452Y-97219544D01*
X176846455Y-97219547D01*
X176961664Y-97305793D01*
X176961671Y-97305797D01*
X177006618Y-97322561D01*
X177096517Y-97356091D01*
X177156127Y-97362500D01*
X177329500Y-97362499D01*
X177396539Y-97382183D01*
X177442294Y-97434987D01*
X177453500Y-97486499D01*
X177453500Y-105081587D01*
X177433815Y-105148626D01*
X177426450Y-105158896D01*
X177424186Y-105161734D01*
X177328209Y-105314480D01*
X177301400Y-105391095D01*
X177260678Y-105447871D01*
X177195725Y-105473618D01*
X177170476Y-105473360D01*
X177038004Y-105458435D01*
X177037996Y-105458435D01*
X176858750Y-105478630D01*
X176858742Y-105478632D01*
X176708522Y-105531196D01*
X176638743Y-105534757D01*
X176578116Y-105500028D01*
X176545889Y-105438034D01*
X176552295Y-105368459D01*
X176562030Y-105349056D01*
X176648902Y-105208216D01*
X176648905Y-105208209D01*
X176703592Y-105043173D01*
X176713999Y-104941315D01*
X176714000Y-104941302D01*
X176714000Y-104898000D01*
X175764000Y-104898000D01*
X175764000Y-105635500D01*
X176019803Y-105635500D01*
X176019815Y-105635499D01*
X176121672Y-105625093D01*
X176264336Y-105577818D01*
X176334165Y-105575416D01*
X176394207Y-105611147D01*
X176425400Y-105673668D01*
X176417840Y-105743127D01*
X176408335Y-105761496D01*
X176312211Y-105914476D01*
X176252631Y-106084745D01*
X176252630Y-106084750D01*
X176232435Y-106263996D01*
X176232435Y-106264003D01*
X176252630Y-106443249D01*
X176252631Y-106443254D01*
X176312211Y-106613523D01*
X176408185Y-106766263D01*
X176410445Y-106769097D01*
X176411334Y-106771275D01*
X176411889Y-106772158D01*
X176411734Y-106772255D01*
X176436855Y-106833783D01*
X176437500Y-106846412D01*
X176437500Y-107440284D01*
X176417815Y-107507323D01*
X176377652Y-107546400D01*
X176327811Y-107576530D01*
X176207530Y-107696811D01*
X176119522Y-107842393D01*
X176068913Y-108004807D01*
X176062500Y-108075386D01*
X176062500Y-108588613D01*
X176068913Y-108659192D01*
X176119522Y-108821606D01*
X176207530Y-108967188D01*
X176309661Y-109069319D01*
X176343146Y-109130642D01*
X176338162Y-109200334D01*
X176309661Y-109244681D01*
X176207531Y-109346810D01*
X176207530Y-109346811D01*
X176119522Y-109492393D01*
X176068913Y-109654807D01*
X176062500Y-109725386D01*
X176062500Y-110238613D01*
X176068913Y-110309192D01*
X176068913Y-110309194D01*
X176068914Y-110309196D01*
X176119522Y-110471606D01*
X176201527Y-110607259D01*
X176207530Y-110617188D01*
X176327811Y-110737469D01*
X176327813Y-110737470D01*
X176327815Y-110737472D01*
X176377650Y-110767598D01*
X176424838Y-110819126D01*
X176437500Y-110873715D01*
X176437500Y-111007461D01*
X176417815Y-111074500D01*
X176365011Y-111120255D01*
X176352504Y-111125167D01*
X176265077Y-111154137D01*
X176265066Y-111154142D01*
X176117000Y-111245471D01*
X176116996Y-111245474D01*
X175993974Y-111368496D01*
X175993971Y-111368500D01*
X175902642Y-111516566D01*
X175902637Y-111516577D01*
X175847913Y-111681723D01*
X175837500Y-111783644D01*
X175837500Y-112370355D01*
X175847913Y-112472276D01*
X175902637Y-112637422D01*
X175902642Y-112637433D01*
X175993971Y-112785499D01*
X175993974Y-112785503D01*
X176116999Y-112908528D01*
X176118183Y-112909258D01*
X176118823Y-112909970D01*
X176122664Y-112913007D01*
X176122145Y-112913663D01*
X176164906Y-112961206D01*
X176176127Y-113030169D01*
X176148283Y-113094251D01*
X176122877Y-113116264D01*
X176122977Y-113116390D01*
X176120190Y-113118593D01*
X176118184Y-113120332D01*
X176117309Y-113120871D01*
X175994370Y-113243810D01*
X175903096Y-113391787D01*
X175903094Y-113391792D01*
X175848407Y-113556828D01*
X175838000Y-113658686D01*
X175838000Y-113702002D01*
X178238000Y-113702002D01*
X178238000Y-113658699D01*
X178237999Y-113658686D01*
X178227592Y-113556828D01*
X178172905Y-113391792D01*
X178172903Y-113391787D01*
X178081629Y-113243810D01*
X177958690Y-113120871D01*
X177957822Y-113120336D01*
X177957350Y-113119812D01*
X177953023Y-113116390D01*
X177953607Y-113115650D01*
X177911096Y-113068390D01*
X177899871Y-112999428D01*
X177927712Y-112935345D01*
X177953399Y-112913087D01*
X177953336Y-112913007D01*
X177955117Y-112911598D01*
X177957823Y-112909254D01*
X177958309Y-112908954D01*
X177959003Y-112908526D01*
X178082026Y-112785503D01*
X178173362Y-112637425D01*
X178228087Y-112472275D01*
X178238500Y-112370348D01*
X178238500Y-111783652D01*
X178228087Y-111681725D01*
X178173362Y-111516575D01*
X178173358Y-111516569D01*
X178173357Y-111516566D01*
X178082028Y-111368500D01*
X178082025Y-111368496D01*
X177959003Y-111245474D01*
X177958999Y-111245471D01*
X177810933Y-111154142D01*
X177810927Y-111154139D01*
X177810925Y-111154138D01*
X177723496Y-111125167D01*
X177666051Y-111085394D01*
X177639228Y-111020878D01*
X177638500Y-111007461D01*
X177638500Y-110873715D01*
X177658185Y-110806676D01*
X177698349Y-110767598D01*
X177748185Y-110737472D01*
X177868472Y-110617185D01*
X177956478Y-110471606D01*
X178007086Y-110309196D01*
X178013500Y-110238616D01*
X178013500Y-109725384D01*
X178007086Y-109654804D01*
X177956478Y-109492394D01*
X177868472Y-109346815D01*
X177868470Y-109346813D01*
X177868469Y-109346811D01*
X177766339Y-109244681D01*
X177732854Y-109183358D01*
X177737838Y-109113666D01*
X177766339Y-109069319D01*
X177868468Y-108967189D01*
X177868469Y-108967188D01*
X177868472Y-108967185D01*
X177956478Y-108821606D01*
X178007086Y-108659196D01*
X178013500Y-108588616D01*
X178013500Y-108075384D01*
X178007086Y-108004804D01*
X177956478Y-107842394D01*
X177868472Y-107696815D01*
X177868470Y-107696813D01*
X177868469Y-107696811D01*
X177748188Y-107576530D01*
X177698348Y-107546400D01*
X177651162Y-107494871D01*
X177638500Y-107440284D01*
X177638500Y-106846412D01*
X177658185Y-106779373D01*
X177665555Y-106769097D01*
X177667810Y-106766267D01*
X177667816Y-106766262D01*
X177763789Y-106613522D01*
X177790598Y-106536903D01*
X177831319Y-106480129D01*
X177896272Y-106454381D01*
X177921523Y-106454639D01*
X178053996Y-106469565D01*
X178054000Y-106469565D01*
X178054004Y-106469565D01*
X178233249Y-106449369D01*
X178233252Y-106449368D01*
X178233255Y-106449368D01*
X178403522Y-106389789D01*
X178556262Y-106293816D01*
X178683816Y-106166262D01*
X178779789Y-106013522D01*
X178839368Y-105843255D01*
X178848580Y-105761496D01*
X178859565Y-105664003D01*
X178859565Y-105663996D01*
X178839369Y-105484750D01*
X178839368Y-105484745D01*
X178813215Y-105410003D01*
X178779789Y-105314478D01*
X178683816Y-105161738D01*
X178683814Y-105161736D01*
X178683813Y-105161734D01*
X178681550Y-105158896D01*
X178680659Y-105156715D01*
X178680111Y-105155842D01*
X178680264Y-105155745D01*
X178655144Y-105094209D01*
X178654500Y-105081587D01*
X178654500Y-97486499D01*
X178674185Y-97419460D01*
X178726989Y-97373705D01*
X178778500Y-97362499D01*
X178951871Y-97362499D01*
X178951872Y-97362499D01*
X179011483Y-97356091D01*
X179146331Y-97305796D01*
X179249191Y-97228794D01*
X179314652Y-97204378D01*
X179382925Y-97219229D01*
X179432331Y-97268634D01*
X179447500Y-97328062D01*
X179447500Y-116765587D01*
X179427815Y-116832626D01*
X179420450Y-116842896D01*
X179418186Y-116845734D01*
X179322211Y-116998476D01*
X179262631Y-117168745D01*
X179262630Y-117168750D01*
X179242435Y-117347996D01*
X179242435Y-117348003D01*
X179262630Y-117527249D01*
X179262631Y-117527254D01*
X179322211Y-117697523D01*
X179418184Y-117850262D01*
X179545738Y-117977816D01*
X179698478Y-118073789D01*
X179748499Y-118091292D01*
X179868745Y-118133368D01*
X179868750Y-118133369D01*
X180047996Y-118153565D01*
X180048000Y-118153565D01*
X180048004Y-118153565D01*
X180209617Y-118135356D01*
X180278439Y-118147411D01*
X180329818Y-118194760D01*
X180347500Y-118258576D01*
X180347500Y-132632249D01*
X180347274Y-132639736D01*
X180329728Y-132929794D01*
X180327923Y-132944659D01*
X180276219Y-133226798D01*
X180272635Y-133241336D01*
X180187306Y-133515167D01*
X180181997Y-133529168D01*
X180064275Y-133790736D01*
X180057316Y-133803995D01*
X179908928Y-134049459D01*
X179900422Y-134061782D01*
X179723526Y-134287573D01*
X179713596Y-134298781D01*
X179510781Y-134501596D01*
X179499573Y-134511526D01*
X179273782Y-134688422D01*
X179261459Y-134696928D01*
X179015995Y-134845316D01*
X179002736Y-134852275D01*
X178741168Y-134969997D01*
X178727167Y-134975306D01*
X178453336Y-135060635D01*
X178438798Y-135064219D01*
X178156659Y-135115923D01*
X178141794Y-135117728D01*
X177851736Y-135135274D01*
X177844249Y-135135500D01*
X121079471Y-135135500D01*
X121012432Y-135115815D01*
X120966677Y-135063011D01*
X120956733Y-134993853D01*
X120985758Y-134930297D01*
X121008346Y-134909926D01*
X121028080Y-134896107D01*
X121195105Y-134729082D01*
X121330600Y-134535578D01*
X121430429Y-134321492D01*
X121430432Y-134321486D01*
X121487636Y-134108000D01*
X120590012Y-134108000D01*
X120622925Y-134050993D01*
X120657000Y-133923826D01*
X120657000Y-133792174D01*
X120622925Y-133665007D01*
X120590012Y-133608000D01*
X121487636Y-133608000D01*
X121487635Y-133607999D01*
X121430432Y-133394513D01*
X121430429Y-133394507D01*
X121330600Y-133180422D01*
X121330599Y-133180420D01*
X121195113Y-132986926D01*
X121195108Y-132986920D01*
X121028082Y-132819894D01*
X120834578Y-132684399D01*
X120620492Y-132584570D01*
X120620486Y-132584567D01*
X120407000Y-132527364D01*
X120407000Y-133424988D01*
X120349993Y-133392075D01*
X120222826Y-133358000D01*
X120091174Y-133358000D01*
X119964007Y-133392075D01*
X119907000Y-133424988D01*
X119907000Y-132527364D01*
X119906999Y-132527364D01*
X119693513Y-132584567D01*
X119693507Y-132584570D01*
X119479422Y-132684399D01*
X119479420Y-132684400D01*
X119285926Y-132819886D01*
X119285920Y-132819891D01*
X119118891Y-132986920D01*
X119118890Y-132986922D01*
X118988880Y-133172595D01*
X118934303Y-133216219D01*
X118864804Y-133223412D01*
X118802450Y-133191890D01*
X118785730Y-133172594D01*
X118655494Y-132986597D01*
X118488402Y-132819506D01*
X118488395Y-132819501D01*
X118294831Y-132683965D01*
X118294826Y-132683962D01*
X118289091Y-132681288D01*
X118236653Y-132635113D01*
X118217500Y-132568908D01*
X118217500Y-125699683D01*
X118237185Y-125632644D01*
X118289989Y-125586889D01*
X118359147Y-125576945D01*
X118422703Y-125605970D01*
X118429181Y-125612002D01*
X118459308Y-125642129D01*
X118607285Y-125733403D01*
X118607290Y-125733405D01*
X118772326Y-125788092D01*
X118874184Y-125798499D01*
X118874197Y-125798500D01*
X119130000Y-125798500D01*
X119630000Y-125798500D01*
X119885803Y-125798500D01*
X119885815Y-125798499D01*
X119987673Y-125788092D01*
X120152709Y-125733405D01*
X120152714Y-125733403D01*
X120300691Y-125642129D01*
X120423629Y-125519191D01*
X120514903Y-125371214D01*
X120514905Y-125371209D01*
X120569592Y-125206173D01*
X120579999Y-125104315D01*
X120580000Y-125104302D01*
X120580000Y-125061000D01*
X119630000Y-125061000D01*
X119630000Y-125798500D01*
X119130000Y-125798500D01*
X119130000Y-124685000D01*
X119149685Y-124617961D01*
X119202489Y-124572206D01*
X119254000Y-124561000D01*
X120580000Y-124561000D01*
X120580000Y-124517697D01*
X120579999Y-124517684D01*
X120569592Y-124415826D01*
X120514905Y-124250790D01*
X120514903Y-124250785D01*
X120423629Y-124102808D01*
X120300690Y-123979869D01*
X120300685Y-123979865D01*
X120299822Y-123979333D01*
X120299353Y-123978812D01*
X120295023Y-123975388D01*
X120295608Y-123974648D01*
X120253096Y-123927386D01*
X120241873Y-123858424D01*
X120269716Y-123794341D01*
X120295398Y-123772086D01*
X120295336Y-123772007D01*
X120297106Y-123770607D01*
X120299820Y-123768255D01*
X120301003Y-123767526D01*
X120424026Y-123644503D01*
X120515362Y-123496425D01*
X120570087Y-123331275D01*
X120580500Y-123229348D01*
X120580500Y-122642652D01*
X120570087Y-122540725D01*
X120515362Y-122375575D01*
X120515358Y-122375569D01*
X120515357Y-122375566D01*
X120424028Y-122227500D01*
X120424025Y-122227496D01*
X120301003Y-122104474D01*
X120300999Y-122104471D01*
X120152933Y-122013142D01*
X120152927Y-122013139D01*
X120152925Y-122013138D01*
X120065496Y-121984167D01*
X120008051Y-121944394D01*
X119981228Y-121879878D01*
X119980500Y-121866461D01*
X119980500Y-108091708D01*
X120000185Y-108024669D01*
X120052989Y-107978914D01*
X120063545Y-107974666D01*
X120067254Y-107973368D01*
X120067255Y-107973368D01*
X120237522Y-107913789D01*
X120390262Y-107817816D01*
X120517816Y-107690262D01*
X120613789Y-107537522D01*
X120673368Y-107367255D01*
X120673480Y-107366262D01*
X120693565Y-107188003D01*
X120693565Y-107187996D01*
X120673369Y-107008750D01*
X120673368Y-107008745D01*
X120642229Y-106919755D01*
X120613789Y-106838478D01*
X120517816Y-106685738D01*
X120517814Y-106685736D01*
X120517813Y-106685734D01*
X120515550Y-106682896D01*
X120514659Y-106680715D01*
X120514111Y-106679842D01*
X120514264Y-106679745D01*
X120489144Y-106618209D01*
X120488500Y-106605587D01*
X120488500Y-92276412D01*
X120508185Y-92209373D01*
X120515555Y-92199097D01*
X120517810Y-92196267D01*
X120517816Y-92196262D01*
X120613789Y-92043522D01*
X120673368Y-91873255D01*
X120673369Y-91873249D01*
X120693565Y-91694003D01*
X120693565Y-91693996D01*
X120673369Y-91514750D01*
X120673368Y-91514745D01*
X120613788Y-91344476D01*
X120574231Y-91281522D01*
X120517816Y-91191738D01*
X120390262Y-91064184D01*
X120367528Y-91049899D01*
X120237523Y-90968211D01*
X120067254Y-90908631D01*
X120067249Y-90908630D01*
X119888004Y-90888435D01*
X119887996Y-90888435D01*
X119708750Y-90908630D01*
X119708745Y-90908631D01*
X119538476Y-90968211D01*
X119408472Y-91049899D01*
X119341235Y-91068899D01*
X119274400Y-91048531D01*
X119229186Y-90995263D01*
X119218500Y-90944905D01*
X119218500Y-89663715D01*
X119238185Y-89596676D01*
X119278349Y-89557598D01*
X119328185Y-89527472D01*
X119448472Y-89407185D01*
X119536478Y-89261606D01*
X119587086Y-89099196D01*
X119593500Y-89028616D01*
X119593500Y-88515384D01*
X119587086Y-88444804D01*
X119536478Y-88282394D01*
X119448472Y-88136815D01*
X119448470Y-88136813D01*
X119448469Y-88136811D01*
X119346339Y-88034681D01*
X119312854Y-87973358D01*
X119317838Y-87903666D01*
X119346339Y-87859319D01*
X119448468Y-87757189D01*
X119448469Y-87757188D01*
X119448472Y-87757185D01*
X119536478Y-87611606D01*
X119587086Y-87449196D01*
X119593500Y-87378616D01*
X119593500Y-86865384D01*
X119587086Y-86794804D01*
X119536478Y-86632394D01*
X119448472Y-86486815D01*
X119448470Y-86486813D01*
X119448469Y-86486811D01*
X119328189Y-86366531D01*
X119328185Y-86366528D01*
X119294349Y-86346073D01*
X119247162Y-86294545D01*
X119234500Y-86239957D01*
X119234500Y-85247692D01*
X119254185Y-85180653D01*
X119287374Y-85146119D01*
X119473139Y-85016047D01*
X119634047Y-84855139D01*
X119764568Y-84668734D01*
X119791618Y-84610724D01*
X119837790Y-84558285D01*
X119904983Y-84539133D01*
X119971865Y-84559348D01*
X120016382Y-84610725D01*
X120043429Y-84668728D01*
X120043432Y-84668734D01*
X120173954Y-84855141D01*
X120334858Y-85016045D01*
X120334861Y-85016047D01*
X120520624Y-85146118D01*
X120564248Y-85200693D01*
X120573500Y-85247692D01*
X120573500Y-86220612D01*
X120553815Y-86287651D01*
X120513651Y-86326728D01*
X120447814Y-86366528D01*
X120447810Y-86366531D01*
X120327530Y-86486811D01*
X120239522Y-86632393D01*
X120188913Y-86794807D01*
X120182500Y-86865386D01*
X120182500Y-87378613D01*
X120188913Y-87449192D01*
X120188913Y-87449194D01*
X120188914Y-87449196D01*
X120239522Y-87611606D01*
X120302499Y-87715783D01*
X120327530Y-87757188D01*
X120429661Y-87859319D01*
X120463146Y-87920642D01*
X120458162Y-87990334D01*
X120429661Y-88034681D01*
X120327531Y-88136810D01*
X120327530Y-88136811D01*
X120239522Y-88282393D01*
X120188913Y-88444807D01*
X120182500Y-88515386D01*
X120182500Y-89028613D01*
X120188913Y-89099192D01*
X120188913Y-89099194D01*
X120188914Y-89099196D01*
X120239522Y-89261606D01*
X120318516Y-89392278D01*
X120327530Y-89407188D01*
X120447811Y-89527469D01*
X120447813Y-89527470D01*
X120447815Y-89527472D01*
X120593394Y-89615478D01*
X120755804Y-89666086D01*
X120826384Y-89672500D01*
X120941500Y-89672500D01*
X121008539Y-89692185D01*
X121054294Y-89744989D01*
X121065500Y-89796500D01*
X121065500Y-111177587D01*
X121045815Y-111244626D01*
X121038450Y-111254896D01*
X121036186Y-111257734D01*
X120940211Y-111410476D01*
X120880631Y-111580745D01*
X120880630Y-111580750D01*
X120860435Y-111759996D01*
X120860435Y-111760003D01*
X120880630Y-111939249D01*
X120880631Y-111939254D01*
X120940211Y-112109523D01*
X120995223Y-112197073D01*
X121036184Y-112262262D01*
X121163738Y-112389816D01*
X121250500Y-112444332D01*
X121294970Y-112472275D01*
X121316478Y-112485789D01*
X121486745Y-112545368D01*
X121486750Y-112545369D01*
X121665996Y-112565565D01*
X121666000Y-112565565D01*
X121666002Y-112565565D01*
X121717747Y-112559734D01*
X121813878Y-112548903D01*
X121882699Y-112560957D01*
X121934078Y-112608306D01*
X121951703Y-112675916D01*
X121944803Y-112713077D01*
X121896632Y-112850742D01*
X121896630Y-112850750D01*
X121876435Y-113029996D01*
X121876435Y-113030003D01*
X121896630Y-113209249D01*
X121896631Y-113209254D01*
X121956211Y-113379523D01*
X122027931Y-113493664D01*
X122052184Y-113532262D01*
X122179738Y-113659816D01*
X122332478Y-113755789D01*
X122502745Y-113815368D01*
X122502750Y-113815369D01*
X122681996Y-113835565D01*
X122682000Y-113835565D01*
X122682004Y-113835565D01*
X122861249Y-113815369D01*
X122861252Y-113815368D01*
X122861255Y-113815368D01*
X123031522Y-113755789D01*
X123184262Y-113659816D01*
X123311816Y-113532262D01*
X123407789Y-113379522D01*
X123467368Y-113209255D01*
X123467369Y-113209249D01*
X123487565Y-113030003D01*
X123487565Y-113029996D01*
X123467369Y-112850750D01*
X123467368Y-112850745D01*
X123407788Y-112680476D01*
X123344504Y-112579761D01*
X123311816Y-112527738D01*
X123311814Y-112527736D01*
X123311813Y-112527734D01*
X123309550Y-112524896D01*
X123308659Y-112522715D01*
X123308111Y-112521842D01*
X123308264Y-112521745D01*
X123283144Y-112460209D01*
X123282500Y-112447587D01*
X123282500Y-106336124D01*
X123302185Y-106269085D01*
X123354989Y-106223330D01*
X123420384Y-106212904D01*
X123434960Y-106214546D01*
X123443999Y-106215565D01*
X123444000Y-106215565D01*
X123444004Y-106215565D01*
X123623249Y-106195369D01*
X123623252Y-106195368D01*
X123623255Y-106195368D01*
X123793522Y-106135789D01*
X123946262Y-106039816D01*
X124073816Y-105912262D01*
X124169789Y-105759522D01*
X124229368Y-105589255D01*
X124230657Y-105577818D01*
X124249565Y-105410003D01*
X124249565Y-105409996D01*
X124229369Y-105230750D01*
X124229368Y-105230745D01*
X124169788Y-105060476D01*
X124106504Y-104959761D01*
X124073816Y-104907738D01*
X124073814Y-104907736D01*
X124073813Y-104907734D01*
X124071550Y-104904896D01*
X124070659Y-104902715D01*
X124070111Y-104901842D01*
X124070264Y-104901745D01*
X124045144Y-104840209D01*
X124044500Y-104827587D01*
X124044500Y-91584412D01*
X124064185Y-91517373D01*
X124071555Y-91507097D01*
X124073810Y-91504267D01*
X124073816Y-91504262D01*
X124169789Y-91351522D01*
X124229368Y-91181255D01*
X124241856Y-91070422D01*
X124249565Y-91002003D01*
X124249565Y-91001996D01*
X124229369Y-90822750D01*
X124229368Y-90822745D01*
X124223659Y-90806430D01*
X124169789Y-90652478D01*
X124073816Y-90499738D01*
X123946262Y-90372184D01*
X123898379Y-90342097D01*
X123793523Y-90276211D01*
X123623254Y-90216631D01*
X123623249Y-90216630D01*
X123444004Y-90196435D01*
X123443997Y-90196435D01*
X123434150Y-90197544D01*
X123365329Y-90185486D01*
X123313952Y-90138134D01*
X123296331Y-90070523D01*
X123318061Y-90004118D01*
X123332587Y-89986647D01*
X123610416Y-89708819D01*
X123671739Y-89675334D01*
X123698097Y-89672500D01*
X124029613Y-89672500D01*
X124029616Y-89672500D01*
X124100196Y-89666086D01*
X124262606Y-89615478D01*
X124365352Y-89553365D01*
X124432904Y-89535530D01*
X124499378Y-89557047D01*
X124543666Y-89611088D01*
X124553500Y-89659483D01*
X124553500Y-96297578D01*
X124534494Y-96363550D01*
X124496211Y-96424476D01*
X124436631Y-96594745D01*
X124436630Y-96594750D01*
X124416435Y-96773996D01*
X124416435Y-96774003D01*
X124436630Y-96953249D01*
X124436631Y-96953254D01*
X124496211Y-97123523D01*
X124558148Y-97222094D01*
X124592184Y-97276262D01*
X124719738Y-97403816D01*
X124872478Y-97499789D01*
X125042745Y-97559368D01*
X125042750Y-97559369D01*
X125221996Y-97579565D01*
X125222000Y-97579565D01*
X125222004Y-97579565D01*
X125401249Y-97559369D01*
X125401252Y-97559368D01*
X125401255Y-97559368D01*
X125571522Y-97499789D01*
X125724262Y-97403816D01*
X125851816Y-97276262D01*
X125947789Y-97123522D01*
X125996458Y-96984434D01*
X126037180Y-96927658D01*
X126102133Y-96901911D01*
X126170694Y-96915367D01*
X126221097Y-96963754D01*
X126237500Y-97025389D01*
X126237500Y-99921677D01*
X126217815Y-99988716D01*
X126165011Y-100034471D01*
X126127384Y-100044897D01*
X126058750Y-100052630D01*
X125888478Y-100112210D01*
X125735737Y-100208184D01*
X125608184Y-100335737D01*
X125512211Y-100488476D01*
X125452631Y-100658745D01*
X125452630Y-100658750D01*
X125432435Y-100837996D01*
X125432435Y-100838003D01*
X125452630Y-101017249D01*
X125452631Y-101017254D01*
X125512211Y-101187523D01*
X125553570Y-101253344D01*
X125597106Y-101322632D01*
X125608185Y-101340263D01*
X125610445Y-101343097D01*
X125611334Y-101345275D01*
X125611889Y-101346158D01*
X125611734Y-101346255D01*
X125636855Y-101407783D01*
X125637500Y-101420412D01*
X125637500Y-106992276D01*
X125617815Y-107059315D01*
X125565011Y-107105070D01*
X125495853Y-107115014D01*
X125471771Y-107108408D01*
X125471661Y-107108749D01*
X125272413Y-107044009D01*
X125218000Y-107035390D01*
X125218000Y-108163517D01*
X125199591Y-108152889D01*
X125046991Y-108112000D01*
X124889009Y-108112000D01*
X124736409Y-108152889D01*
X124718000Y-108163517D01*
X124718000Y-107035390D01*
X124663586Y-107044009D01*
X124468970Y-107107244D01*
X124286650Y-107200140D01*
X124121105Y-107320417D01*
X124121104Y-107320417D01*
X123976417Y-107465104D01*
X123976417Y-107465105D01*
X123856140Y-107630650D01*
X123763244Y-107812968D01*
X123700009Y-108007582D01*
X123668000Y-108209682D01*
X123668000Y-108462000D01*
X124419518Y-108462000D01*
X124408889Y-108480409D01*
X124368000Y-108633009D01*
X124368000Y-108790991D01*
X124408889Y-108943591D01*
X124419518Y-108962000D01*
X123668000Y-108962000D01*
X123668000Y-109214317D01*
X123700009Y-109416417D01*
X123763244Y-109611031D01*
X123856140Y-109793349D01*
X123976417Y-109958894D01*
X123976417Y-109958895D01*
X124121104Y-110103582D01*
X124286652Y-110223861D01*
X124367220Y-110264912D01*
X124418017Y-110312886D01*
X124434812Y-110380707D01*
X124418314Y-110437395D01*
X124408425Y-110454523D01*
X124408424Y-110454524D01*
X124408423Y-110454529D01*
X124367499Y-110607257D01*
X124367499Y-110607259D01*
X124367499Y-110775360D01*
X124367500Y-110775373D01*
X124367500Y-122322397D01*
X124347815Y-122389436D01*
X124299800Y-122432879D01*
X124286389Y-122439712D01*
X124120786Y-122560028D01*
X123976028Y-122704786D01*
X123855715Y-122870386D01*
X123762781Y-123052776D01*
X123699522Y-123247465D01*
X123667500Y-123449648D01*
X123667500Y-124454351D01*
X123699522Y-124656534D01*
X123762781Y-124851223D01*
X123855715Y-125033613D01*
X123976028Y-125199213D01*
X123976034Y-125199219D01*
X124120781Y-125343966D01*
X124286390Y-125464287D01*
X124299793Y-125471116D01*
X124350589Y-125519088D01*
X124367500Y-125581601D01*
X124367500Y-128758908D01*
X124347815Y-128825947D01*
X124295914Y-128871286D01*
X124290173Y-128873963D01*
X124290169Y-128873965D01*
X124096597Y-129009505D01*
X123929505Y-129176597D01*
X123793965Y-129370169D01*
X123793964Y-129370171D01*
X123694098Y-129584335D01*
X123694094Y-129584344D01*
X123632938Y-129812586D01*
X123632936Y-129812596D01*
X123612341Y-130047999D01*
X123612341Y-130048000D01*
X123632936Y-130283403D01*
X123632938Y-130283413D01*
X123694094Y-130511655D01*
X123694096Y-130511659D01*
X123694097Y-130511663D01*
X123775268Y-130685735D01*
X123793965Y-130725830D01*
X123793967Y-130725834D01*
X123885995Y-130857262D01*
X123929505Y-130919401D01*
X124096599Y-131086495D01*
X124251464Y-131194933D01*
X124282594Y-131216730D01*
X124326219Y-131271307D01*
X124333413Y-131340805D01*
X124301890Y-131403160D01*
X124282595Y-131419880D01*
X124096922Y-131549890D01*
X124096920Y-131549891D01*
X123929891Y-131716920D01*
X123929886Y-131716926D01*
X123794400Y-131910420D01*
X123794399Y-131910422D01*
X123694570Y-132124507D01*
X123694567Y-132124513D01*
X123637364Y-132337999D01*
X123637364Y-132338000D01*
X124534988Y-132338000D01*
X124502075Y-132395007D01*
X124468000Y-132522174D01*
X124468000Y-132653826D01*
X124502075Y-132780993D01*
X124534988Y-132838000D01*
X123637364Y-132838000D01*
X123694567Y-133051486D01*
X123694570Y-133051492D01*
X123794399Y-133265578D01*
X123929894Y-133459082D01*
X124096917Y-133626105D01*
X124290421Y-133761600D01*
X124504507Y-133861429D01*
X124504516Y-133861433D01*
X124718000Y-133918634D01*
X124718000Y-133021012D01*
X124775007Y-133053925D01*
X124902174Y-133088000D01*
X125033826Y-133088000D01*
X125160993Y-133053925D01*
X125218000Y-133021012D01*
X125218000Y-133918633D01*
X125431483Y-133861433D01*
X125431492Y-133861429D01*
X125645578Y-133761600D01*
X125839082Y-133626105D01*
X126006105Y-133459082D01*
X126136119Y-133273405D01*
X126190696Y-133229781D01*
X126260195Y-133222588D01*
X126322549Y-133254110D01*
X126339269Y-133273405D01*
X126469505Y-133459401D01*
X126636599Y-133626495D01*
X126691600Y-133665007D01*
X126830165Y-133762032D01*
X126830167Y-133762033D01*
X126830170Y-133762035D01*
X127044337Y-133861903D01*
X127272592Y-133923063D01*
X127460918Y-133939539D01*
X127507999Y-133943659D01*
X127508000Y-133943659D01*
X127508001Y-133943659D01*
X127547234Y-133940226D01*
X127743408Y-133923063D01*
X127971663Y-133861903D01*
X128185830Y-133762035D01*
X128379401Y-133626495D01*
X128546495Y-133459401D01*
X128676425Y-133273842D01*
X128731002Y-133230217D01*
X128800500Y-133223023D01*
X128862855Y-133254546D01*
X128879575Y-133273842D01*
X129009500Y-133459395D01*
X129009505Y-133459401D01*
X129176599Y-133626495D01*
X129231600Y-133665007D01*
X129370165Y-133762032D01*
X129370167Y-133762033D01*
X129370170Y-133762035D01*
X129584337Y-133861903D01*
X129812592Y-133923063D01*
X130000918Y-133939539D01*
X130047999Y-133943659D01*
X130048000Y-133943659D01*
X130048001Y-133943659D01*
X130087234Y-133940226D01*
X130283408Y-133923063D01*
X130511663Y-133861903D01*
X130725830Y-133762035D01*
X130919401Y-133626495D01*
X131086495Y-133459401D01*
X131216425Y-133273842D01*
X131271002Y-133230217D01*
X131340500Y-133223023D01*
X131402855Y-133254546D01*
X131419575Y-133273842D01*
X131549500Y-133459395D01*
X131549505Y-133459401D01*
X131716599Y-133626495D01*
X131771600Y-133665007D01*
X131910165Y-133762032D01*
X131910167Y-133762033D01*
X131910170Y-133762035D01*
X132124337Y-133861903D01*
X132352592Y-133923063D01*
X132540918Y-133939539D01*
X132587999Y-133943659D01*
X132588000Y-133943659D01*
X132588001Y-133943659D01*
X132627234Y-133940226D01*
X132823408Y-133923063D01*
X133051663Y-133861903D01*
X133265830Y-133762035D01*
X133459401Y-133626495D01*
X133626495Y-133459401D01*
X133756425Y-133273842D01*
X133811002Y-133230217D01*
X133880500Y-133223023D01*
X133942855Y-133254546D01*
X133959575Y-133273842D01*
X134089500Y-133459395D01*
X134089505Y-133459401D01*
X134256599Y-133626495D01*
X134311600Y-133665007D01*
X134450165Y-133762032D01*
X134450167Y-133762033D01*
X134450170Y-133762035D01*
X134664337Y-133861903D01*
X134892592Y-133923063D01*
X135080918Y-133939539D01*
X135127999Y-133943659D01*
X135128000Y-133943659D01*
X135128001Y-133943659D01*
X135167234Y-133940226D01*
X135363408Y-133923063D01*
X135591663Y-133861903D01*
X135805830Y-133762035D01*
X135999401Y-133626495D01*
X136166495Y-133459401D01*
X136296425Y-133273842D01*
X136351002Y-133230217D01*
X136420500Y-133223023D01*
X136482855Y-133254546D01*
X136499575Y-133273842D01*
X136629500Y-133459395D01*
X136629505Y-133459401D01*
X136796599Y-133626495D01*
X136851600Y-133665007D01*
X136990165Y-133762032D01*
X136990167Y-133762033D01*
X136990170Y-133762035D01*
X137204337Y-133861903D01*
X137432592Y-133923063D01*
X137620918Y-133939539D01*
X137667999Y-133943659D01*
X137668000Y-133943659D01*
X137668001Y-133943659D01*
X137707234Y-133940226D01*
X137903408Y-133923063D01*
X138131663Y-133861903D01*
X138345830Y-133762035D01*
X138539401Y-133626495D01*
X138706495Y-133459401D01*
X138836425Y-133273842D01*
X138891002Y-133230217D01*
X138960500Y-133223023D01*
X139022855Y-133254546D01*
X139039575Y-133273842D01*
X139169500Y-133459395D01*
X139169505Y-133459401D01*
X139336599Y-133626495D01*
X139391600Y-133665007D01*
X139530165Y-133762032D01*
X139530167Y-133762033D01*
X139530170Y-133762035D01*
X139744337Y-133861903D01*
X139972592Y-133923063D01*
X140160918Y-133939539D01*
X140207999Y-133943659D01*
X140208000Y-133943659D01*
X140208001Y-133943659D01*
X140247234Y-133940226D01*
X140443408Y-133923063D01*
X140671663Y-133861903D01*
X140885830Y-133762035D01*
X141079401Y-133626495D01*
X141246495Y-133459401D01*
X141376425Y-133273842D01*
X141431002Y-133230217D01*
X141500500Y-133223023D01*
X141562855Y-133254546D01*
X141579575Y-133273842D01*
X141709500Y-133459395D01*
X141709505Y-133459401D01*
X141876599Y-133626495D01*
X141931600Y-133665007D01*
X142070165Y-133762032D01*
X142070167Y-133762033D01*
X142070170Y-133762035D01*
X142284337Y-133861903D01*
X142512592Y-133923063D01*
X142700918Y-133939539D01*
X142747999Y-133943659D01*
X142748000Y-133943659D01*
X142748001Y-133943659D01*
X142787234Y-133940226D01*
X142983408Y-133923063D01*
X143211663Y-133861903D01*
X143425830Y-133762035D01*
X143619401Y-133626495D01*
X143786495Y-133459401D01*
X143916425Y-133273842D01*
X143971002Y-133230217D01*
X144040500Y-133223023D01*
X144102855Y-133254546D01*
X144119575Y-133273842D01*
X144249500Y-133459395D01*
X144249505Y-133459401D01*
X144416599Y-133626495D01*
X144471600Y-133665007D01*
X144610165Y-133762032D01*
X144610167Y-133762033D01*
X144610170Y-133762035D01*
X144824337Y-133861903D01*
X145052592Y-133923063D01*
X145240918Y-133939539D01*
X145287999Y-133943659D01*
X145288000Y-133943659D01*
X145288001Y-133943659D01*
X145327234Y-133940226D01*
X145523408Y-133923063D01*
X145751663Y-133861903D01*
X145965830Y-133762035D01*
X146159401Y-133626495D01*
X146326495Y-133459401D01*
X146456425Y-133273842D01*
X146511002Y-133230217D01*
X146580500Y-133223023D01*
X146642855Y-133254546D01*
X146659575Y-133273842D01*
X146789500Y-133459395D01*
X146789505Y-133459401D01*
X146956599Y-133626495D01*
X147011600Y-133665007D01*
X147150165Y-133762032D01*
X147150167Y-133762033D01*
X147150170Y-133762035D01*
X147364337Y-133861903D01*
X147592592Y-133923063D01*
X147780918Y-133939539D01*
X147827999Y-133943659D01*
X147828000Y-133943659D01*
X147828001Y-133943659D01*
X147867234Y-133940226D01*
X148063408Y-133923063D01*
X148291663Y-133861903D01*
X148505830Y-133762035D01*
X148699401Y-133626495D01*
X148866495Y-133459401D01*
X148996425Y-133273842D01*
X149051002Y-133230217D01*
X149120500Y-133223023D01*
X149182855Y-133254546D01*
X149199575Y-133273842D01*
X149329500Y-133459395D01*
X149329505Y-133459401D01*
X149496599Y-133626495D01*
X149551600Y-133665007D01*
X149690165Y-133762032D01*
X149690167Y-133762033D01*
X149690170Y-133762035D01*
X149904337Y-133861903D01*
X150132592Y-133923063D01*
X150320918Y-133939539D01*
X150367999Y-133943659D01*
X150368000Y-133943659D01*
X150368001Y-133943659D01*
X150407234Y-133940226D01*
X150603408Y-133923063D01*
X150831663Y-133861903D01*
X151045830Y-133762035D01*
X151239401Y-133626495D01*
X151406495Y-133459401D01*
X151536425Y-133273842D01*
X151591002Y-133230217D01*
X151660500Y-133223023D01*
X151722855Y-133254546D01*
X151739575Y-133273842D01*
X151869500Y-133459395D01*
X151869505Y-133459401D01*
X152036599Y-133626495D01*
X152091600Y-133665007D01*
X152230165Y-133762032D01*
X152230167Y-133762033D01*
X152230170Y-133762035D01*
X152444337Y-133861903D01*
X152672592Y-133923063D01*
X152860918Y-133939539D01*
X152907999Y-133943659D01*
X152908000Y-133943659D01*
X152908001Y-133943659D01*
X152947234Y-133940226D01*
X153143408Y-133923063D01*
X153371663Y-133861903D01*
X153585830Y-133762035D01*
X153779401Y-133626495D01*
X153946495Y-133459401D01*
X154076425Y-133273842D01*
X154131002Y-133230217D01*
X154200500Y-133223023D01*
X154262855Y-133254546D01*
X154279575Y-133273842D01*
X154409500Y-133459395D01*
X154409505Y-133459401D01*
X154576599Y-133626495D01*
X154631600Y-133665007D01*
X154770165Y-133762032D01*
X154770167Y-133762033D01*
X154770170Y-133762035D01*
X154984337Y-133861903D01*
X155212592Y-133923063D01*
X155400918Y-133939539D01*
X155447999Y-133943659D01*
X155448000Y-133943659D01*
X155448001Y-133943659D01*
X155487234Y-133940226D01*
X155683408Y-133923063D01*
X155911663Y-133861903D01*
X156125830Y-133762035D01*
X156319401Y-133626495D01*
X156486495Y-133459401D01*
X156616425Y-133273842D01*
X156671002Y-133230217D01*
X156740500Y-133223023D01*
X156802855Y-133254546D01*
X156819575Y-133273842D01*
X156949500Y-133459395D01*
X156949505Y-133459401D01*
X157116599Y-133626495D01*
X157171600Y-133665007D01*
X157310165Y-133762032D01*
X157310167Y-133762033D01*
X157310170Y-133762035D01*
X157524337Y-133861903D01*
X157752592Y-133923063D01*
X157940918Y-133939539D01*
X157987999Y-133943659D01*
X157988000Y-133943659D01*
X157988001Y-133943659D01*
X158027234Y-133940226D01*
X158223408Y-133923063D01*
X158451663Y-133861903D01*
X158665830Y-133762035D01*
X158859401Y-133626495D01*
X159026495Y-133459401D01*
X159156425Y-133273842D01*
X159211002Y-133230217D01*
X159280500Y-133223023D01*
X159342855Y-133254546D01*
X159359575Y-133273842D01*
X159489500Y-133459395D01*
X159489505Y-133459401D01*
X159656599Y-133626495D01*
X159711600Y-133665007D01*
X159850165Y-133762032D01*
X159850167Y-133762033D01*
X159850170Y-133762035D01*
X160064337Y-133861903D01*
X160292592Y-133923063D01*
X160480918Y-133939539D01*
X160527999Y-133943659D01*
X160528000Y-133943659D01*
X160528001Y-133943659D01*
X160567234Y-133940226D01*
X160763408Y-133923063D01*
X160991663Y-133861903D01*
X161205830Y-133762035D01*
X161399401Y-133626495D01*
X161566495Y-133459401D01*
X161696425Y-133273842D01*
X161751002Y-133230217D01*
X161820500Y-133223023D01*
X161882855Y-133254546D01*
X161899575Y-133273842D01*
X162029500Y-133459395D01*
X162029505Y-133459401D01*
X162196599Y-133626495D01*
X162251600Y-133665007D01*
X162390165Y-133762032D01*
X162390167Y-133762033D01*
X162390170Y-133762035D01*
X162604337Y-133861903D01*
X162832592Y-133923063D01*
X163020918Y-133939539D01*
X163067999Y-133943659D01*
X163068000Y-133943659D01*
X163068001Y-133943659D01*
X163107234Y-133940226D01*
X163303408Y-133923063D01*
X163531663Y-133861903D01*
X163745830Y-133762035D01*
X163939401Y-133626495D01*
X164106495Y-133459401D01*
X164242035Y-133265830D01*
X164341903Y-133051663D01*
X164403063Y-132823408D01*
X164404865Y-132802815D01*
X167964000Y-132802815D01*
X167974407Y-132904673D01*
X168029094Y-133069709D01*
X168029096Y-133069714D01*
X168120370Y-133217691D01*
X168243308Y-133340629D01*
X168391285Y-133431903D01*
X168391290Y-133431905D01*
X168556326Y-133486592D01*
X168658184Y-133496999D01*
X168658197Y-133497000D01*
X168914000Y-133497000D01*
X169414000Y-133497000D01*
X169669803Y-133497000D01*
X169669815Y-133496999D01*
X169771673Y-133486592D01*
X169936709Y-133431905D01*
X169936714Y-133431903D01*
X170084691Y-133340629D01*
X170207629Y-133217691D01*
X170298903Y-133069714D01*
X170298905Y-133069709D01*
X170353592Y-132904673D01*
X170363999Y-132802815D01*
X170364000Y-132802802D01*
X170364000Y-132759500D01*
X169414000Y-132759500D01*
X169414000Y-133497000D01*
X168914000Y-133497000D01*
X168914000Y-132759500D01*
X167964000Y-132759500D01*
X167964000Y-132802815D01*
X164404865Y-132802815D01*
X164423659Y-132588000D01*
X164403063Y-132352592D01*
X164341903Y-132124337D01*
X164242035Y-131910171D01*
X164169595Y-131806716D01*
X164106496Y-131716600D01*
X164059681Y-131669785D01*
X163984567Y-131594671D01*
X163951084Y-131533351D01*
X163956068Y-131463659D01*
X163997939Y-131407725D01*
X164028915Y-131390810D01*
X164160331Y-131341796D01*
X164275546Y-131255546D01*
X164361796Y-131140331D01*
X164412091Y-131005483D01*
X164418500Y-130945873D01*
X164418499Y-129150128D01*
X164412091Y-129090517D01*
X164361796Y-128955669D01*
X164361795Y-128955668D01*
X164361793Y-128955664D01*
X164275547Y-128840455D01*
X164275544Y-128840452D01*
X164160335Y-128754206D01*
X164160328Y-128754202D01*
X164025482Y-128703908D01*
X164025483Y-128703908D01*
X163965883Y-128697501D01*
X163965881Y-128697500D01*
X163965873Y-128697500D01*
X163965865Y-128697500D01*
X163792500Y-128697500D01*
X163725461Y-128677815D01*
X163679706Y-128625011D01*
X163668500Y-128573500D01*
X163668500Y-125581601D01*
X163688185Y-125514562D01*
X163736206Y-125471116D01*
X163749610Y-125464287D01*
X163915219Y-125343966D01*
X164059966Y-125199219D01*
X164059968Y-125199215D01*
X164059971Y-125199213D01*
X164128917Y-125104315D01*
X164180287Y-125033610D01*
X164273220Y-124851219D01*
X164336477Y-124656534D01*
X164368500Y-124454352D01*
X164368500Y-123552097D01*
X164388185Y-123485058D01*
X164404814Y-123464420D01*
X164536713Y-123332521D01*
X164536716Y-123332520D01*
X164648520Y-123220716D01*
X164698639Y-123133904D01*
X164727577Y-123083785D01*
X164768501Y-122931057D01*
X164768501Y-122772943D01*
X164768501Y-122765348D01*
X164768500Y-122765330D01*
X164768500Y-104336957D01*
X164787507Y-104270984D01*
X164809788Y-104235524D01*
X164813029Y-104226262D01*
X164869368Y-104065255D01*
X164872391Y-104038425D01*
X164889565Y-103886003D01*
X164889565Y-103885996D01*
X164870785Y-103719317D01*
X164882840Y-103650496D01*
X164906320Y-103617757D01*
X164967816Y-103556262D01*
X165063789Y-103403522D01*
X165123368Y-103233255D01*
X165124891Y-103219741D01*
X165143565Y-103054003D01*
X165143565Y-103053996D01*
X165123369Y-102874750D01*
X165123366Y-102874737D01*
X165070035Y-102722326D01*
X165066473Y-102652547D01*
X165101201Y-102591920D01*
X165163195Y-102559692D01*
X165232770Y-102566097D01*
X165253051Y-102576379D01*
X165258478Y-102579789D01*
X165428745Y-102639368D01*
X165428750Y-102639369D01*
X165607996Y-102659565D01*
X165608000Y-102659565D01*
X165608004Y-102659565D01*
X165787249Y-102639369D01*
X165787252Y-102639368D01*
X165787255Y-102639368D01*
X165957522Y-102579789D01*
X166087528Y-102498100D01*
X166154764Y-102479100D01*
X166221599Y-102499467D01*
X166266814Y-102552735D01*
X166277500Y-102603094D01*
X166277500Y-128261830D01*
X166277499Y-128261848D01*
X166277499Y-128427554D01*
X166277498Y-128427554D01*
X166277499Y-128427557D01*
X166318423Y-128580285D01*
X166344246Y-128625011D01*
X166347358Y-128630400D01*
X166347359Y-128630404D01*
X166347360Y-128630404D01*
X166397479Y-128717214D01*
X166397481Y-128717217D01*
X166516349Y-128836085D01*
X166516355Y-128836090D01*
X167927345Y-130247080D01*
X167960830Y-130308403D01*
X167963256Y-130337996D01*
X167963500Y-130337996D01*
X167963500Y-130340977D01*
X167963505Y-130341039D01*
X167963500Y-130341137D01*
X167963500Y-130927855D01*
X167973913Y-131029776D01*
X168028637Y-131194922D01*
X168028642Y-131194933D01*
X168119971Y-131342999D01*
X168119974Y-131343003D01*
X168242999Y-131466028D01*
X168244183Y-131466758D01*
X168244823Y-131467470D01*
X168248664Y-131470507D01*
X168248145Y-131471163D01*
X168290906Y-131518708D01*
X168302125Y-131587671D01*
X168274279Y-131651752D01*
X168248877Y-131673762D01*
X168248977Y-131673888D01*
X168246177Y-131676101D01*
X168244184Y-131677829D01*
X168243315Y-131678364D01*
X168243309Y-131678369D01*
X168120370Y-131801308D01*
X168029096Y-131949285D01*
X168029094Y-131949290D01*
X167974407Y-132114326D01*
X167964000Y-132216184D01*
X167964000Y-132259500D01*
X170364000Y-132259500D01*
X170364000Y-132216197D01*
X170363999Y-132216184D01*
X170353592Y-132114326D01*
X170302027Y-131958711D01*
X175441500Y-131958711D01*
X175441500Y-132201288D01*
X175473161Y-132441785D01*
X175535947Y-132676104D01*
X175628773Y-132900205D01*
X175628777Y-132900214D01*
X175645855Y-132929794D01*
X175750064Y-133110289D01*
X175750066Y-133110292D01*
X175750067Y-133110293D01*
X175897733Y-133302736D01*
X175897739Y-133302743D01*
X176069256Y-133474260D01*
X176069263Y-133474266D01*
X176131908Y-133522335D01*
X176261711Y-133621936D01*
X176471788Y-133743224D01*
X176695900Y-133836054D01*
X176930211Y-133898838D01*
X177110586Y-133922584D01*
X177170711Y-133930500D01*
X177170712Y-133930500D01*
X177413289Y-133930500D01*
X177463983Y-133923826D01*
X177653789Y-133898838D01*
X177888100Y-133836054D01*
X178112212Y-133743224D01*
X178322289Y-133621936D01*
X178514738Y-133474265D01*
X178686265Y-133302738D01*
X178833936Y-133110289D01*
X178955224Y-132900212D01*
X179048054Y-132676100D01*
X179110838Y-132441789D01*
X179142500Y-132201288D01*
X179142500Y-131958712D01*
X179110838Y-131718211D01*
X179048054Y-131483900D01*
X179041248Y-131467470D01*
X179012680Y-131398499D01*
X178955224Y-131259788D01*
X178833936Y-131049711D01*
X178754266Y-130945883D01*
X178686266Y-130857263D01*
X178686260Y-130857256D01*
X178514743Y-130685739D01*
X178514736Y-130685733D01*
X178322293Y-130538067D01*
X178322292Y-130538066D01*
X178322289Y-130538064D01*
X178112212Y-130416776D01*
X178112205Y-130416773D01*
X177888104Y-130323947D01*
X177653785Y-130261161D01*
X177413289Y-130229500D01*
X177413288Y-130229500D01*
X177170712Y-130229500D01*
X177170711Y-130229500D01*
X176930214Y-130261161D01*
X176695895Y-130323947D01*
X176471794Y-130416773D01*
X176471785Y-130416777D01*
X176261706Y-130538067D01*
X176069263Y-130685733D01*
X176069256Y-130685739D01*
X175897739Y-130857256D01*
X175897733Y-130857263D01*
X175750067Y-131049706D01*
X175628777Y-131259785D01*
X175628773Y-131259794D01*
X175535947Y-131483895D01*
X175473161Y-131718214D01*
X175441500Y-131958711D01*
X170302027Y-131958711D01*
X170298905Y-131949290D01*
X170298903Y-131949285D01*
X170207629Y-131801308D01*
X170084690Y-131678369D01*
X170084685Y-131678365D01*
X170083822Y-131677833D01*
X170083353Y-131677312D01*
X170079023Y-131673888D01*
X170079608Y-131673148D01*
X170037096Y-131625886D01*
X170025873Y-131556924D01*
X170053716Y-131492841D01*
X170079398Y-131470586D01*
X170079336Y-131470507D01*
X170081106Y-131469107D01*
X170083820Y-131466755D01*
X170085003Y-131466026D01*
X170208026Y-131343003D01*
X170299362Y-131194925D01*
X170354087Y-131029775D01*
X170364500Y-130927848D01*
X170364500Y-130341152D01*
X170354087Y-130239225D01*
X170299362Y-130074075D01*
X170299358Y-130074069D01*
X170299357Y-130074066D01*
X170208028Y-129926000D01*
X170208025Y-129925996D01*
X170085003Y-129802974D01*
X170084999Y-129802971D01*
X169936933Y-129711642D01*
X169936927Y-129711639D01*
X169936925Y-129711638D01*
X169936922Y-129711637D01*
X169771776Y-129656913D01*
X169669855Y-129646500D01*
X169669848Y-129646500D01*
X169076597Y-129646500D01*
X169009558Y-129626815D01*
X168988916Y-129610181D01*
X167514819Y-128136084D01*
X167481334Y-128074761D01*
X167478500Y-128048403D01*
X167478500Y-114385573D01*
X167498185Y-114318534D01*
X167550989Y-114272779D01*
X167620147Y-114262835D01*
X167683703Y-114291860D01*
X167720206Y-114346569D01*
X167775094Y-114512211D01*
X167775096Y-114512216D01*
X167866370Y-114660193D01*
X167989308Y-114783131D01*
X168137285Y-114874405D01*
X168137290Y-114874407D01*
X168302326Y-114929094D01*
X168404184Y-114939501D01*
X168404197Y-114939502D01*
X168660000Y-114939502D01*
X169160000Y-114939502D01*
X169415803Y-114939502D01*
X169415815Y-114939501D01*
X169517673Y-114929094D01*
X169682709Y-114874407D01*
X169682714Y-114874405D01*
X169830691Y-114783131D01*
X169953629Y-114660193D01*
X170044903Y-114512216D01*
X170044905Y-114512211D01*
X170099592Y-114347175D01*
X170109999Y-114245317D01*
X171774000Y-114245317D01*
X171784407Y-114347175D01*
X171839094Y-114512211D01*
X171839096Y-114512216D01*
X171930370Y-114660193D01*
X172053308Y-114783131D01*
X172201285Y-114874405D01*
X172201290Y-114874407D01*
X172366326Y-114929094D01*
X172468184Y-114939501D01*
X172468197Y-114939502D01*
X172724000Y-114939502D01*
X173224000Y-114939502D01*
X173479803Y-114939502D01*
X173479815Y-114939501D01*
X173581673Y-114929094D01*
X173746709Y-114874407D01*
X173746714Y-114874405D01*
X173894691Y-114783131D01*
X174017629Y-114660193D01*
X174108903Y-114512216D01*
X174108905Y-114512211D01*
X174163592Y-114347175D01*
X174173999Y-114245317D01*
X175838000Y-114245317D01*
X175848407Y-114347175D01*
X175903094Y-114512211D01*
X175903096Y-114512216D01*
X175994370Y-114660193D01*
X176117308Y-114783131D01*
X176265285Y-114874405D01*
X176265290Y-114874407D01*
X176430326Y-114929094D01*
X176532184Y-114939501D01*
X176532197Y-114939502D01*
X176788000Y-114939502D01*
X177288000Y-114939502D01*
X177543803Y-114939502D01*
X177543815Y-114939501D01*
X177645673Y-114929094D01*
X177810709Y-114874407D01*
X177810714Y-114874405D01*
X177958691Y-114783131D01*
X178081629Y-114660193D01*
X178172903Y-114512216D01*
X178172905Y-114512211D01*
X178227592Y-114347175D01*
X178237999Y-114245317D01*
X178238000Y-114245304D01*
X178238000Y-114202002D01*
X177288000Y-114202002D01*
X177288000Y-114939502D01*
X176788000Y-114939502D01*
X176788000Y-114202002D01*
X175838000Y-114202002D01*
X175838000Y-114245317D01*
X174173999Y-114245317D01*
X174174000Y-114245304D01*
X174174000Y-114202002D01*
X173224000Y-114202002D01*
X173224000Y-114939502D01*
X172724000Y-114939502D01*
X172724000Y-114202002D01*
X171774000Y-114202002D01*
X171774000Y-114245317D01*
X170109999Y-114245317D01*
X170110000Y-114245304D01*
X170110000Y-114202002D01*
X169160000Y-114202002D01*
X169160000Y-114939502D01*
X168660000Y-114939502D01*
X168660000Y-113826002D01*
X168679685Y-113758963D01*
X168732489Y-113713208D01*
X168784000Y-113702002D01*
X170110000Y-113702002D01*
X170110000Y-113658699D01*
X170109999Y-113658686D01*
X170099592Y-113556828D01*
X170044905Y-113391792D01*
X170044903Y-113391787D01*
X169953629Y-113243810D01*
X169830690Y-113120871D01*
X169829822Y-113120336D01*
X169829350Y-113119812D01*
X169825023Y-113116390D01*
X169825607Y-113115650D01*
X169783096Y-113068390D01*
X169771871Y-112999428D01*
X169799712Y-112935345D01*
X169825399Y-112913087D01*
X169825336Y-112913007D01*
X169827117Y-112911598D01*
X169829823Y-112909254D01*
X169830309Y-112908954D01*
X169831003Y-112908526D01*
X169954026Y-112785503D01*
X170045362Y-112637425D01*
X170100087Y-112472275D01*
X170110500Y-112370348D01*
X170110500Y-111783652D01*
X170100087Y-111681725D01*
X170045362Y-111516575D01*
X170045358Y-111516569D01*
X170045357Y-111516566D01*
X169954028Y-111368500D01*
X169954025Y-111368496D01*
X169831003Y-111245474D01*
X169830999Y-111245471D01*
X169682933Y-111154142D01*
X169682927Y-111154139D01*
X169682925Y-111154138D01*
X169595496Y-111125167D01*
X169538051Y-111085394D01*
X169511228Y-111020878D01*
X169510500Y-111007461D01*
X169510500Y-110873715D01*
X169530185Y-110806676D01*
X169570349Y-110767598D01*
X169620185Y-110737472D01*
X169740472Y-110617185D01*
X169828478Y-110471606D01*
X169879086Y-110309196D01*
X169885500Y-110238616D01*
X169885500Y-109725384D01*
X169879086Y-109654804D01*
X169828478Y-109492394D01*
X169740472Y-109346815D01*
X169740470Y-109346813D01*
X169740469Y-109346811D01*
X169638339Y-109244681D01*
X169604854Y-109183358D01*
X169609838Y-109113666D01*
X169638339Y-109069319D01*
X169740468Y-108967189D01*
X169740469Y-108967188D01*
X169740472Y-108967185D01*
X169828478Y-108821606D01*
X169879086Y-108659196D01*
X169885500Y-108588616D01*
X169885500Y-108075384D01*
X169879086Y-108004804D01*
X169828478Y-107842394D01*
X169740472Y-107696815D01*
X169740470Y-107696813D01*
X169740469Y-107696811D01*
X169620188Y-107576530D01*
X169573645Y-107548393D01*
X169526459Y-107496864D01*
X169514621Y-107428004D01*
X169537498Y-107373029D01*
X169536111Y-107372158D01*
X169572387Y-107314425D01*
X169635789Y-107213522D01*
X169695368Y-107043255D01*
X169696254Y-107035390D01*
X169715565Y-106864003D01*
X169715565Y-106863996D01*
X169695369Y-106684750D01*
X169695368Y-106684745D01*
X169667669Y-106605587D01*
X169635789Y-106514478D01*
X169607532Y-106469508D01*
X169565379Y-106402422D01*
X169539816Y-106361738D01*
X169412262Y-106234184D01*
X169353670Y-106197368D01*
X169259523Y-106138211D01*
X169089254Y-106078631D01*
X169089249Y-106078630D01*
X168910004Y-106058435D01*
X168909996Y-106058435D01*
X168730750Y-106078630D01*
X168730745Y-106078631D01*
X168560476Y-106138211D01*
X168407737Y-106234184D01*
X168280184Y-106361737D01*
X168184211Y-106514476D01*
X168124631Y-106684745D01*
X168124630Y-106684750D01*
X168104435Y-106863996D01*
X168104435Y-106864003D01*
X168124630Y-107043249D01*
X168124631Y-107043254D01*
X168184211Y-107213523D01*
X168283889Y-107372158D01*
X168282454Y-107373059D01*
X168305558Y-107429653D01*
X168292800Y-107498348D01*
X168246355Y-107548392D01*
X168199814Y-107576528D01*
X168199810Y-107576531D01*
X168079530Y-107696811D01*
X167991522Y-107842393D01*
X167940913Y-108004807D01*
X167934500Y-108075386D01*
X167934500Y-108588613D01*
X167940913Y-108659192D01*
X167991522Y-108821606D01*
X168079530Y-108967188D01*
X168181661Y-109069319D01*
X168215146Y-109130642D01*
X168210162Y-109200334D01*
X168181661Y-109244681D01*
X168079531Y-109346810D01*
X168079530Y-109346811D01*
X167991522Y-109492393D01*
X167940913Y-109654807D01*
X167934500Y-109725386D01*
X167934500Y-110238613D01*
X167940913Y-110309192D01*
X167940913Y-110309194D01*
X167940914Y-110309196D01*
X167991522Y-110471606D01*
X168073527Y-110607259D01*
X168079530Y-110617188D01*
X168199811Y-110737469D01*
X168199813Y-110737470D01*
X168199815Y-110737472D01*
X168249650Y-110767598D01*
X168296838Y-110819126D01*
X168309500Y-110873715D01*
X168309500Y-111007461D01*
X168289815Y-111074500D01*
X168237011Y-111120255D01*
X168224504Y-111125167D01*
X168137077Y-111154137D01*
X168137066Y-111154142D01*
X167989000Y-111245471D01*
X167988996Y-111245474D01*
X167865974Y-111368496D01*
X167865971Y-111368500D01*
X167774642Y-111516566D01*
X167774637Y-111516577D01*
X167720206Y-111680839D01*
X167680433Y-111738284D01*
X167615917Y-111765107D01*
X167547141Y-111752792D01*
X167495942Y-111705249D01*
X167478500Y-111641835D01*
X167478500Y-103239464D01*
X167498185Y-103172425D01*
X167550989Y-103126670D01*
X167620147Y-103116726D01*
X167643455Y-103122423D01*
X167714737Y-103147366D01*
X167714743Y-103147367D01*
X167714745Y-103147368D01*
X167714746Y-103147368D01*
X167714750Y-103147369D01*
X167893996Y-103167565D01*
X167894000Y-103167565D01*
X167894004Y-103167565D01*
X168073249Y-103147369D01*
X168073252Y-103147368D01*
X168073255Y-103147368D01*
X168243522Y-103087789D01*
X168396262Y-102991816D01*
X168523816Y-102864262D01*
X168619789Y-102711522D01*
X168679368Y-102541255D01*
X168679369Y-102541249D01*
X168699565Y-102362003D01*
X168699565Y-102361996D01*
X168679369Y-102182750D01*
X168679366Y-102182737D01*
X168619790Y-102012479D01*
X168613506Y-102002478D01*
X168594500Y-101936507D01*
X168594500Y-85252933D01*
X168614185Y-85185894D01*
X168666989Y-85140139D01*
X168736147Y-85130195D01*
X168776468Y-85144152D01*
X168776611Y-85143846D01*
X168779571Y-85145226D01*
X168780509Y-85145551D01*
X168781522Y-85146136D01*
X168987673Y-85242265D01*
X168987682Y-85242269D01*
X169207389Y-85301139D01*
X169207400Y-85301141D01*
X169433998Y-85320966D01*
X169434002Y-85320966D01*
X169660599Y-85301141D01*
X169660610Y-85301139D01*
X169880317Y-85242269D01*
X169880331Y-85242264D01*
X170086478Y-85146136D01*
X170159471Y-85095024D01*
X169604234Y-84539787D01*
X169646292Y-84528518D01*
X169771708Y-84456110D01*
X169874110Y-84353708D01*
X169946518Y-84228292D01*
X169957787Y-84186234D01*
X170513024Y-84741471D01*
X170564133Y-84668482D01*
X170591341Y-84610135D01*
X170637513Y-84557696D01*
X170704707Y-84538543D01*
X170771588Y-84558758D01*
X170816105Y-84610132D01*
X170843432Y-84668734D01*
X170894363Y-84741471D01*
X170973954Y-84855141D01*
X171134858Y-85016045D01*
X171134861Y-85016047D01*
X171320624Y-85146118D01*
X171364248Y-85200693D01*
X171373500Y-85247692D01*
X171373500Y-86133513D01*
X171353815Y-86200552D01*
X171337181Y-86221194D01*
X171335767Y-86222607D01*
X171335766Y-86222608D01*
X171252469Y-86360397D01*
X171204569Y-86514116D01*
X171198500Y-86580911D01*
X171198500Y-87583098D01*
X171204568Y-87649882D01*
X171204571Y-87649893D01*
X171252467Y-87803598D01*
X171252468Y-87803600D01*
X171252469Y-87803602D01*
X171312960Y-87903666D01*
X171335766Y-87941391D01*
X171449608Y-88055233D01*
X171449610Y-88055234D01*
X171449612Y-88055236D01*
X171587398Y-88138531D01*
X171741113Y-88186430D01*
X171807909Y-88192500D01*
X172240090Y-88192499D01*
X172240098Y-88192499D01*
X172306882Y-88186431D01*
X172306885Y-88186430D01*
X172306887Y-88186430D01*
X172460602Y-88138531D01*
X172598388Y-88055236D01*
X172712236Y-87941388D01*
X172795531Y-87803602D01*
X172843430Y-87649887D01*
X172849500Y-87583091D01*
X172849499Y-86580910D01*
X172849499Y-86580909D01*
X172849499Y-86580901D01*
X172843431Y-86514117D01*
X172843428Y-86514106D01*
X172795532Y-86360401D01*
X172795531Y-86360400D01*
X172795531Y-86360398D01*
X172712236Y-86222612D01*
X172712234Y-86222610D01*
X172712233Y-86222608D01*
X172610819Y-86121194D01*
X172577334Y-86059871D01*
X172574500Y-86033513D01*
X172574500Y-85247692D01*
X172594185Y-85180653D01*
X172627374Y-85146119D01*
X172813139Y-85016047D01*
X172974047Y-84855139D01*
X173097927Y-84678218D01*
X173152501Y-84634595D01*
X173221999Y-84627401D01*
X173284354Y-84658923D01*
X173319769Y-84719153D01*
X173323500Y-84749343D01*
X173323500Y-86083513D01*
X173303815Y-86150552D01*
X173287181Y-86171194D01*
X173235767Y-86222607D01*
X173235766Y-86222608D01*
X173152469Y-86360397D01*
X173104569Y-86514116D01*
X173098500Y-86580911D01*
X173098500Y-87583098D01*
X173104568Y-87649882D01*
X173104571Y-87649893D01*
X173152467Y-87803598D01*
X173152468Y-87803600D01*
X173152469Y-87803602D01*
X173212960Y-87903666D01*
X173235766Y-87941391D01*
X173349608Y-88055233D01*
X173349610Y-88055234D01*
X173349612Y-88055236D01*
X173487398Y-88138531D01*
X173641113Y-88186430D01*
X173707909Y-88192500D01*
X174140090Y-88192499D01*
X174140098Y-88192499D01*
X174206882Y-88186431D01*
X174206885Y-88186430D01*
X174206887Y-88186430D01*
X174360602Y-88138531D01*
X174498388Y-88055236D01*
X174612236Y-87941388D01*
X174695531Y-87803602D01*
X174743430Y-87649887D01*
X174749500Y-87583091D01*
X174749499Y-86828684D01*
X176854000Y-86828684D01*
X176854000Y-86872000D01*
X177804000Y-86872000D01*
X177804000Y-86134500D01*
X177548184Y-86134500D01*
X177446326Y-86144907D01*
X177281290Y-86199594D01*
X177281285Y-86199596D01*
X177133308Y-86290870D01*
X177010370Y-86413808D01*
X176919096Y-86561785D01*
X176919094Y-86561790D01*
X176864407Y-86726826D01*
X176854000Y-86828684D01*
X174749499Y-86828684D01*
X174749499Y-86580910D01*
X174749499Y-86580909D01*
X174749499Y-86580901D01*
X174743431Y-86514117D01*
X174743428Y-86514106D01*
X174695532Y-86360401D01*
X174695531Y-86360400D01*
X174695531Y-86360398D01*
X174612236Y-86222612D01*
X174612234Y-86222610D01*
X174612233Y-86222608D01*
X174560819Y-86171194D01*
X174527334Y-86109871D01*
X174524500Y-86083513D01*
X174524500Y-79610945D01*
X174524499Y-79610941D01*
X174516492Y-79581055D01*
X174516492Y-79581054D01*
X174505167Y-79538791D01*
X174506828Y-79468941D01*
X174507884Y-79465788D01*
X174521368Y-79427255D01*
X174533143Y-79322750D01*
X174541565Y-79248003D01*
X174541565Y-79247996D01*
X174521369Y-79068750D01*
X174521368Y-79068745D01*
X174497221Y-78999737D01*
X174461789Y-78898478D01*
X174445267Y-78872184D01*
X174365815Y-78745737D01*
X174238262Y-78618184D01*
X174085523Y-78522211D01*
X173915254Y-78462631D01*
X173915249Y-78462630D01*
X173736004Y-78442435D01*
X173735996Y-78442435D01*
X173556750Y-78462630D01*
X173556745Y-78462631D01*
X173386476Y-78522211D01*
X173233737Y-78618184D01*
X173106184Y-78745737D01*
X173010211Y-78898476D01*
X172950631Y-79068745D01*
X172950630Y-79068750D01*
X172930435Y-79247996D01*
X172930435Y-79248003D01*
X172950630Y-79427249D01*
X172950631Y-79427254D01*
X173010211Y-79597523D01*
X173106184Y-79750262D01*
X173233737Y-79877815D01*
X173233740Y-79877817D01*
X173265471Y-79897755D01*
X173311763Y-79950089D01*
X173323500Y-80002749D01*
X173323500Y-83282656D01*
X173303815Y-83349695D01*
X173251011Y-83395450D01*
X173181853Y-83405394D01*
X173118297Y-83376369D01*
X173097925Y-83353779D01*
X173095065Y-83349695D01*
X172974047Y-83176861D01*
X172974045Y-83176858D01*
X172813141Y-83015954D01*
X172626734Y-82885432D01*
X172626732Y-82885431D01*
X172420497Y-82789261D01*
X172420488Y-82789258D01*
X172200697Y-82730366D01*
X172200693Y-82730365D01*
X172200692Y-82730365D01*
X172200691Y-82730364D01*
X172200686Y-82730364D01*
X171974002Y-82710532D01*
X171973998Y-82710532D01*
X171747313Y-82730364D01*
X171747302Y-82730366D01*
X171527511Y-82789258D01*
X171527502Y-82789261D01*
X171321267Y-82885431D01*
X171321265Y-82885432D01*
X171134858Y-83015954D01*
X170973954Y-83176858D01*
X170843432Y-83363265D01*
X170843428Y-83363272D01*
X170816105Y-83421866D01*
X170769932Y-83474305D01*
X170702738Y-83493456D01*
X170635858Y-83473239D01*
X170591342Y-83421864D01*
X170564136Y-83363521D01*
X170564132Y-83363513D01*
X170513025Y-83290526D01*
X169957787Y-83845764D01*
X169946518Y-83803708D01*
X169874110Y-83678292D01*
X169771708Y-83575890D01*
X169646292Y-83503482D01*
X169604234Y-83492212D01*
X170159472Y-82936974D01*
X170086478Y-82885863D01*
X169880331Y-82789735D01*
X169880317Y-82789730D01*
X169660610Y-82730860D01*
X169660599Y-82730858D01*
X169434002Y-82711034D01*
X169433998Y-82711034D01*
X169207400Y-82730858D01*
X169207389Y-82730860D01*
X168987682Y-82789730D01*
X168987673Y-82789734D01*
X168781514Y-82885867D01*
X168780495Y-82886456D01*
X168779989Y-82886578D01*
X168776611Y-82888154D01*
X168776294Y-82887474D01*
X168712594Y-82902925D01*
X168646568Y-82880070D01*
X168603380Y-82825147D01*
X168594500Y-82779066D01*
X168594500Y-70013512D01*
X168614185Y-69946473D01*
X168666989Y-69900718D01*
X168736147Y-69890774D01*
X168776193Y-69904636D01*
X168776360Y-69904280D01*
X168779806Y-69905887D01*
X168780508Y-69906130D01*
X168781257Y-69906562D01*
X168781266Y-69906568D01*
X168987504Y-70002739D01*
X168987509Y-70002740D01*
X168987511Y-70002741D01*
X169040415Y-70016916D01*
X169207308Y-70061635D01*
X169369230Y-70075801D01*
X169433998Y-70081468D01*
X169434000Y-70081468D01*
X169434002Y-70081468D01*
X169496511Y-70075999D01*
X169660692Y-70061635D01*
X169880496Y-70002739D01*
X170086734Y-69906568D01*
X170273139Y-69776047D01*
X170434047Y-69615139D01*
X170451710Y-69589912D01*
X170506285Y-69546289D01*
X170575783Y-69539094D01*
X170638138Y-69570615D01*
X170673553Y-69630844D01*
X170676574Y-69647778D01*
X170680401Y-69683373D01*
X170680403Y-69683379D01*
X170730645Y-69818086D01*
X170730649Y-69818093D01*
X170816809Y-69933187D01*
X170816812Y-69933190D01*
X170931906Y-70019350D01*
X170931913Y-70019354D01*
X171066620Y-70069596D01*
X171066627Y-70069598D01*
X171126155Y-70075999D01*
X171126172Y-70076000D01*
X171724000Y-70076000D01*
X171724000Y-69266747D01*
X171761708Y-69288518D01*
X171901591Y-69326000D01*
X172046409Y-69326000D01*
X172186292Y-69288518D01*
X172224000Y-69266747D01*
X172224000Y-70076000D01*
X172821828Y-70076000D01*
X172821844Y-70075999D01*
X172881372Y-70069598D01*
X172881379Y-70069596D01*
X173016086Y-70019354D01*
X173016093Y-70019350D01*
X173131187Y-69933190D01*
X173131190Y-69933187D01*
X173217350Y-69818093D01*
X173217354Y-69818086D01*
X173267596Y-69683379D01*
X173267598Y-69683372D01*
X173273999Y-69623844D01*
X173274000Y-69623827D01*
X173274000Y-69026000D01*
X172464748Y-69026000D01*
X172486518Y-68988292D01*
X172524000Y-68848409D01*
X172524000Y-68703591D01*
X172486518Y-68563708D01*
X172464748Y-68526000D01*
X173274000Y-68526000D01*
X173274000Y-67928172D01*
X173273999Y-67928155D01*
X173267598Y-67868627D01*
X173267596Y-67868620D01*
X173217354Y-67733913D01*
X173217350Y-67733906D01*
X173131190Y-67618812D01*
X173131187Y-67618809D01*
X173016093Y-67532649D01*
X173016086Y-67532645D01*
X172881379Y-67482403D01*
X172881372Y-67482401D01*
X172821844Y-67476000D01*
X172224000Y-67476000D01*
X172224000Y-68285252D01*
X172186292Y-68263482D01*
X172046409Y-68226000D01*
X171901591Y-68226000D01*
X171761708Y-68263482D01*
X171724000Y-68285252D01*
X171724000Y-67476000D01*
X171126155Y-67476000D01*
X171066627Y-67482401D01*
X171066620Y-67482403D01*
X170931913Y-67532645D01*
X170931906Y-67532649D01*
X170816812Y-67618809D01*
X170816809Y-67618812D01*
X170730649Y-67733906D01*
X170730645Y-67733913D01*
X170680403Y-67868620D01*
X170680401Y-67868626D01*
X170676574Y-67904221D01*
X170649835Y-67968772D01*
X170592441Y-68008618D01*
X170522616Y-68011110D01*
X170462528Y-67975456D01*
X170451710Y-67962086D01*
X170434045Y-67936858D01*
X170273140Y-67775953D01*
X170087377Y-67645881D01*
X170043752Y-67591304D01*
X170034500Y-67544306D01*
X170034500Y-66922042D01*
X170054185Y-66855003D01*
X170094350Y-66815925D01*
X170128185Y-66795472D01*
X170248472Y-66675185D01*
X170336478Y-66529606D01*
X170368540Y-66426712D01*
X175441500Y-66426712D01*
X175441500Y-66669288D01*
X175444499Y-66692067D01*
X175473161Y-66909785D01*
X175535947Y-67144104D01*
X175628773Y-67368205D01*
X175628776Y-67368212D01*
X175750064Y-67578289D01*
X175750066Y-67578292D01*
X175750067Y-67578293D01*
X175897733Y-67770736D01*
X175897739Y-67770743D01*
X176069256Y-67942260D01*
X176069263Y-67942266D01*
X176112517Y-67975456D01*
X176261711Y-68089936D01*
X176471788Y-68211224D01*
X176695900Y-68304054D01*
X176930211Y-68366838D01*
X177110586Y-68390584D01*
X177170711Y-68398500D01*
X177170712Y-68398500D01*
X177413289Y-68398500D01*
X177461388Y-68392167D01*
X177653789Y-68366838D01*
X177888100Y-68304054D01*
X178112212Y-68211224D01*
X178322289Y-68089936D01*
X178514738Y-67942265D01*
X178686265Y-67770738D01*
X178833936Y-67578289D01*
X178955224Y-67368212D01*
X179048054Y-67144100D01*
X179110838Y-66909789D01*
X179142500Y-66669288D01*
X179142500Y-66426712D01*
X179110838Y-66186211D01*
X179048054Y-65951900D01*
X178955224Y-65727788D01*
X178833936Y-65517711D01*
X178707107Y-65352424D01*
X178686266Y-65325263D01*
X178686260Y-65325256D01*
X178514743Y-65153739D01*
X178514736Y-65153733D01*
X178322293Y-65006067D01*
X178322292Y-65006066D01*
X178322289Y-65006064D01*
X178112212Y-64884776D01*
X178112205Y-64884773D01*
X177888104Y-64791947D01*
X177653785Y-64729161D01*
X177413289Y-64697500D01*
X177413288Y-64697500D01*
X177170712Y-64697500D01*
X177170711Y-64697500D01*
X176930214Y-64729161D01*
X176695895Y-64791947D01*
X176471794Y-64884773D01*
X176471785Y-64884777D01*
X176327645Y-64967997D01*
X176273396Y-64999318D01*
X176261706Y-65006067D01*
X176069263Y-65153733D01*
X176069256Y-65153739D01*
X175897739Y-65325256D01*
X175897733Y-65325263D01*
X175750067Y-65517706D01*
X175628777Y-65727785D01*
X175628773Y-65727794D01*
X175535947Y-65951895D01*
X175473161Y-66186214D01*
X175458627Y-66296616D01*
X175441500Y-66426712D01*
X170368540Y-66426712D01*
X170387086Y-66367196D01*
X170393500Y-66296616D01*
X170393500Y-65783384D01*
X170387086Y-65712804D01*
X170336478Y-65550394D01*
X170248472Y-65404815D01*
X170248470Y-65404813D01*
X170248469Y-65404811D01*
X170146339Y-65302681D01*
X170112854Y-65241358D01*
X170117838Y-65171666D01*
X170146339Y-65127319D01*
X170248468Y-65025189D01*
X170248469Y-65025188D01*
X170248472Y-65025185D01*
X170336478Y-64879606D01*
X170387086Y-64717196D01*
X170393500Y-64646616D01*
X170393500Y-64133384D01*
X170387086Y-64062804D01*
X170336478Y-63900394D01*
X170248472Y-63754815D01*
X170248470Y-63754813D01*
X170248469Y-63754811D01*
X170197839Y-63704181D01*
X170164354Y-63642858D01*
X170169338Y-63573166D01*
X170211210Y-63517233D01*
X170276674Y-63492816D01*
X170285520Y-63492500D01*
X177782108Y-63492500D01*
X177844249Y-63492500D01*
X177851736Y-63492726D01*
G37*
%TD.AperFunction*%
%TA.AperFunction,Conductor*%
G36*
X135901482Y-84228292D02*
G01*
X135973890Y-84353708D01*
X136076292Y-84456110D01*
X136201708Y-84528518D01*
X136243763Y-84539787D01*
X135688526Y-85095025D01*
X135761513Y-85146132D01*
X135761521Y-85146136D01*
X135967668Y-85242264D01*
X135967682Y-85242269D01*
X136187389Y-85301139D01*
X136187400Y-85301141D01*
X136413998Y-85320966D01*
X136414002Y-85320966D01*
X136640599Y-85301141D01*
X136640610Y-85301139D01*
X136860317Y-85242269D01*
X136860326Y-85242265D01*
X137066477Y-85146136D01*
X137067491Y-85145551D01*
X137067994Y-85145428D01*
X137071389Y-85143846D01*
X137071706Y-85144527D01*
X137135390Y-85129073D01*
X137201419Y-85151920D01*
X137244614Y-85206837D01*
X137253500Y-85252933D01*
X137253500Y-88788978D01*
X137253499Y-88788996D01*
X137253499Y-88954702D01*
X137253498Y-88954702D01*
X137294424Y-89107437D01*
X137294425Y-89107438D01*
X137313638Y-89140715D01*
X137313639Y-89140716D01*
X137373477Y-89244360D01*
X137373481Y-89244365D01*
X137492349Y-89363233D01*
X137492355Y-89363238D01*
X137631181Y-89502064D01*
X137664666Y-89563387D01*
X137667500Y-89589745D01*
X137667500Y-95252610D01*
X137647815Y-95319649D01*
X137595011Y-95365404D01*
X137525853Y-95375348D01*
X137462297Y-95346323D01*
X137426459Y-95293565D01*
X137377790Y-95154480D01*
X137377789Y-95154478D01*
X137281816Y-95001738D01*
X137154262Y-94874184D01*
X137148081Y-94870300D01*
X137001523Y-94778211D01*
X136831254Y-94718631D01*
X136831249Y-94718630D01*
X136652004Y-94698435D01*
X136651996Y-94698435D01*
X136472750Y-94718630D01*
X136472745Y-94718631D01*
X136302476Y-94778211D01*
X136149737Y-94874184D01*
X136022184Y-95001737D01*
X135926211Y-95154476D01*
X135866631Y-95324745D01*
X135866630Y-95324750D01*
X135846435Y-95503996D01*
X135846435Y-95504003D01*
X135866630Y-95683249D01*
X135866631Y-95683254D01*
X135926211Y-95853523D01*
X136008945Y-95985192D01*
X136027945Y-96052428D01*
X136011340Y-96113160D01*
X136008425Y-96118207D01*
X136008424Y-96118210D01*
X136000201Y-96148899D01*
X135967499Y-96270943D01*
X135967499Y-96270945D01*
X135967499Y-96439046D01*
X135967500Y-96439059D01*
X135967500Y-102024060D01*
X135947815Y-102091099D01*
X135895011Y-102136854D01*
X135825853Y-102146798D01*
X135762297Y-102117773D01*
X135755819Y-102111741D01*
X135630262Y-101986184D01*
X135477523Y-101890211D01*
X135307254Y-101830631D01*
X135307249Y-101830630D01*
X135128004Y-101810435D01*
X135127996Y-101810435D01*
X134988135Y-101826193D01*
X134919313Y-101814138D01*
X134867934Y-101766789D01*
X134850310Y-101699179D01*
X134857211Y-101662018D01*
X134897366Y-101547262D01*
X134897369Y-101547249D01*
X134917565Y-101368003D01*
X134917565Y-101367996D01*
X134897369Y-101188750D01*
X134897368Y-101188745D01*
X134896514Y-101186305D01*
X134837789Y-101018478D01*
X134831098Y-101007830D01*
X134778965Y-100924860D01*
X134741816Y-100865738D01*
X134614262Y-100738184D01*
X134590418Y-100723202D01*
X134461523Y-100642211D01*
X134291254Y-100582631D01*
X134291249Y-100582630D01*
X134112004Y-100562435D01*
X134111996Y-100562435D01*
X133932750Y-100582630D01*
X133932745Y-100582631D01*
X133762476Y-100642211D01*
X133609737Y-100738184D01*
X133482184Y-100865737D01*
X133386211Y-101018476D01*
X133326631Y-101188745D01*
X133326630Y-101188749D01*
X133307949Y-101354550D01*
X133299296Y-101388103D01*
X133298425Y-101390204D01*
X133291369Y-101416539D01*
X133255003Y-101476198D01*
X133192156Y-101506726D01*
X133122780Y-101498430D01*
X133094283Y-101481391D01*
X133090261Y-101478183D01*
X132937523Y-101382211D01*
X132767254Y-101322631D01*
X132767249Y-101322630D01*
X132588004Y-101302435D01*
X132587996Y-101302435D01*
X132408750Y-101322630D01*
X132408742Y-101322632D01*
X132253454Y-101376970D01*
X132183676Y-101380531D01*
X132123048Y-101345802D01*
X132090821Y-101283809D01*
X132088500Y-101259928D01*
X132088500Y-99575940D01*
X132108185Y-99508901D01*
X132160989Y-99463146D01*
X132230147Y-99453202D01*
X132293703Y-99482227D01*
X132300181Y-99488259D01*
X132339738Y-99527816D01*
X132403695Y-99568003D01*
X132441214Y-99591578D01*
X132492478Y-99623789D01*
X132662745Y-99683368D01*
X132662750Y-99683369D01*
X132841996Y-99703565D01*
X132842000Y-99703565D01*
X132842004Y-99703565D01*
X133021249Y-99683369D01*
X133021252Y-99683368D01*
X133021255Y-99683368D01*
X133191522Y-99623789D01*
X133344262Y-99527816D01*
X133471816Y-99400262D01*
X133567789Y-99247522D01*
X133627368Y-99077255D01*
X133633392Y-99023789D01*
X133647565Y-98898003D01*
X133647565Y-98897996D01*
X133627369Y-98718750D01*
X133627368Y-98718745D01*
X133616095Y-98686528D01*
X133567789Y-98548478D01*
X133471816Y-98395738D01*
X133410819Y-98334741D01*
X133377334Y-98273418D01*
X133374500Y-98247060D01*
X133374500Y-94833670D01*
X133394185Y-94766631D01*
X133446989Y-94720876D01*
X133516147Y-94710932D01*
X133539455Y-94716629D01*
X133678737Y-94765366D01*
X133678743Y-94765367D01*
X133678745Y-94765368D01*
X133678746Y-94765368D01*
X133678750Y-94765369D01*
X133857996Y-94785565D01*
X133858000Y-94785565D01*
X133858004Y-94785565D01*
X134037249Y-94765369D01*
X134037252Y-94765368D01*
X134037255Y-94765368D01*
X134207522Y-94705789D01*
X134360262Y-94609816D01*
X134487816Y-94482262D01*
X134583789Y-94329522D01*
X134643368Y-94159255D01*
X134643369Y-94159249D01*
X134663565Y-93980003D01*
X134663565Y-93979996D01*
X134643369Y-93800750D01*
X134643368Y-93800745D01*
X134608963Y-93702422D01*
X134583789Y-93630478D01*
X134487816Y-93477738D01*
X134487814Y-93477736D01*
X134487813Y-93477734D01*
X134485550Y-93474896D01*
X134484659Y-93472715D01*
X134484111Y-93471842D01*
X134484264Y-93471745D01*
X134459144Y-93410209D01*
X134458500Y-93397587D01*
X134458500Y-89663715D01*
X134478185Y-89596676D01*
X134518349Y-89557598D01*
X134568185Y-89527472D01*
X134688472Y-89407185D01*
X134776478Y-89261606D01*
X134827086Y-89099196D01*
X134833500Y-89028616D01*
X134833500Y-88515384D01*
X134827086Y-88444804D01*
X134776478Y-88282394D01*
X134688472Y-88136815D01*
X134688470Y-88136813D01*
X134688469Y-88136811D01*
X134586339Y-88034681D01*
X134552854Y-87973358D01*
X134557838Y-87903666D01*
X134586339Y-87859319D01*
X134688468Y-87757189D01*
X134688469Y-87757188D01*
X134688472Y-87757185D01*
X134776478Y-87611606D01*
X134827086Y-87449196D01*
X134833500Y-87378616D01*
X134833500Y-86865384D01*
X134827086Y-86794804D01*
X134776478Y-86632394D01*
X134688472Y-86486815D01*
X134688470Y-86486813D01*
X134688469Y-86486811D01*
X134568189Y-86366531D01*
X134568185Y-86366528D01*
X134534349Y-86346073D01*
X134487162Y-86294545D01*
X134474500Y-86239957D01*
X134474500Y-85247692D01*
X134494185Y-85180653D01*
X134527374Y-85146119D01*
X134713139Y-85016047D01*
X134874047Y-84855139D01*
X135004568Y-84668734D01*
X135031893Y-84610134D01*
X135078065Y-84557695D01*
X135145258Y-84538543D01*
X135212139Y-84558758D01*
X135256657Y-84610134D01*
X135283864Y-84668480D01*
X135334974Y-84741472D01*
X135890212Y-84186234D01*
X135901482Y-84228292D01*
G37*
%TD.AperFunction*%
%TA.AperFunction,Conductor*%
G36*
X135211865Y-69319348D02*
G01*
X135256382Y-69370725D01*
X135283429Y-69428728D01*
X135283432Y-69428734D01*
X135413954Y-69615141D01*
X135574858Y-69776045D01*
X135574861Y-69776047D01*
X135761266Y-69906568D01*
X135967504Y-70002739D01*
X135967509Y-70002740D01*
X135967511Y-70002741D01*
X136020415Y-70016916D01*
X136187308Y-70061635D01*
X136349230Y-70075801D01*
X136413998Y-70081468D01*
X136414000Y-70081468D01*
X136414002Y-70081468D01*
X136476511Y-70075999D01*
X136640692Y-70061635D01*
X136860496Y-70002739D01*
X137066734Y-69906568D01*
X137066746Y-69906559D01*
X137067492Y-69906130D01*
X137067868Y-69906038D01*
X137071640Y-69904280D01*
X137071993Y-69905037D01*
X137135391Y-69889652D01*
X137201419Y-69912499D01*
X137244614Y-69967417D01*
X137253500Y-70013512D01*
X137253500Y-82779066D01*
X137233815Y-82846105D01*
X137181011Y-82891860D01*
X137111853Y-82901804D01*
X137071531Y-82887849D01*
X137071389Y-82888154D01*
X137068446Y-82886781D01*
X137067505Y-82886456D01*
X137066485Y-82885867D01*
X136860326Y-82789734D01*
X136860317Y-82789730D01*
X136640610Y-82730860D01*
X136640599Y-82730858D01*
X136414002Y-82711034D01*
X136413998Y-82711034D01*
X136187400Y-82730858D01*
X136187389Y-82730860D01*
X135967682Y-82789730D01*
X135967673Y-82789734D01*
X135761516Y-82885866D01*
X135761512Y-82885868D01*
X135688526Y-82936973D01*
X135688526Y-82936974D01*
X136243765Y-83492212D01*
X136201708Y-83503482D01*
X136076292Y-83575890D01*
X135973890Y-83678292D01*
X135901482Y-83803708D01*
X135890212Y-83845764D01*
X135334974Y-83290526D01*
X135334973Y-83290526D01*
X135283868Y-83363512D01*
X135283868Y-83363513D01*
X135256657Y-83421867D01*
X135210484Y-83474306D01*
X135143290Y-83493457D01*
X135076409Y-83473241D01*
X135031893Y-83421865D01*
X135024212Y-83405394D01*
X135004568Y-83363266D01*
X134874047Y-83176861D01*
X134874045Y-83176858D01*
X134713141Y-83015954D01*
X134526734Y-82885432D01*
X134526732Y-82885431D01*
X134320497Y-82789261D01*
X134320488Y-82789258D01*
X134100697Y-82730366D01*
X134100693Y-82730365D01*
X134100692Y-82730365D01*
X134100691Y-82730364D01*
X134100686Y-82730364D01*
X133874002Y-82710532D01*
X133873998Y-82710532D01*
X133647313Y-82730364D01*
X133647302Y-82730366D01*
X133530593Y-82761638D01*
X133460743Y-82759975D01*
X133402881Y-82720812D01*
X133375377Y-82656583D01*
X133374500Y-82641863D01*
X133374500Y-70150136D01*
X133394185Y-70083097D01*
X133446989Y-70037342D01*
X133516147Y-70027398D01*
X133530582Y-70030358D01*
X133647308Y-70061635D01*
X133809230Y-70075801D01*
X133873998Y-70081468D01*
X133874000Y-70081468D01*
X133874002Y-70081468D01*
X133936511Y-70075999D01*
X134100692Y-70061635D01*
X134320496Y-70002739D01*
X134526734Y-69906568D01*
X134713139Y-69776047D01*
X134874047Y-69615139D01*
X135004568Y-69428734D01*
X135031618Y-69370724D01*
X135077790Y-69318285D01*
X135144983Y-69299133D01*
X135211865Y-69319348D01*
G37*
%TD.AperFunction*%
%TD*%
M02*
