M48
; DRILL file {KiCad 8.0.4} date 2025-04-23T20:08:33+0200
; FORMAT={-:-/ absolute / metric / decimal}
; #@! TF.CreationDate,2025-04-23T20:08:33+02:00
; #@! TF.GenerationSoftware,Kicad,Pcbnew,8.0.4
; #@! TF.FileFunction,Plated,1,2,PTH
FMAT,2
METRIC
; #@! TA.AperFunction,Plated,PTH,ViaDrill
T1C0.300
; #@! TA.AperFunction,Plated,PTH,ComponentDrill
T2C1.000
; #@! TA.AperFunction,Plated,PTH,ComponentDrill
T3C1.100
; #@! TA.AperFunction,Plated,PTH,ComponentDrill
T4C1.200
%
G90
G05
T1
X109.474Y-78.74
X109.474Y-102.87
X110.998Y-79.502
X110.998Y-100.33
X112.268Y-94.234
X114.554Y-118.872
X116.078Y-98.298
X116.332Y-117.348
X117.348Y-118.872
X118.618Y-99.06
X119.888Y-91.694
X119.888Y-107.188
X120.142Y-78.74
X121.666Y-111.76
X122.682Y-79.502
X122.682Y-113.03
X123.444Y-91.002
X123.444Y-105.41
X125.222Y-96.774
X126.238Y-100.838
X126.838Y-105.664
X127.508Y-98.46
X127.762Y-97.536
X128.778Y-94.234
X129.032Y-93.218
X130.048Y-99.06
X130.302Y-98.298
X130.888Y-104.902
X131.826Y-96.174
X132.588Y-102.108
X132.842Y-98.898
X133.858Y-93.98
X134.112Y-101.368
X135.128Y-102.616
X136.652Y-95.504
X137.668Y-98.898
X138.268Y-99.568
X138.909Y-106.934
X138.938Y-95.504
X140.208Y-98.298
X140.97Y-104.14
X141.732Y-95.504
X142.748Y-103.378
X143.002Y-100.168
X144.018Y-94.742
X144.018Y-99.568
X145.288Y-96.174
X145.288Y-103.724
X146.558Y-95.504
X146.812Y-98.552
X147.828Y-100.768
X147.828Y-104.324
X150.368Y-91.602
X150.368Y-94.742
X151.638Y-103.724
X152.238Y-93.98
X152.908Y-101.092
X152.908Y-104.902
X153.67Y-103.124
X155.448Y-79.248
X155.448Y-103.124
X156.718Y-100.076
X156.718Y-106.264
X157.388Y-90.932
X159.512Y-97.536
X160.528Y-93.472
X160.782Y-71.12
X161.544Y-105.664
X161.798Y-98.552
X163.068Y-94.488
X163.068Y-96.774
X164.084Y-103.886
X164.338Y-103.054
X165.608Y-101.854
X166.878Y-91.948
X166.878Y-94.488
X167.894Y-102.362
X168.91Y-106.864
X172.974Y-99.568
X173.736Y-79.248
X173.99Y-103.886
X177.038Y-106.264
X178.054Y-91.948
X178.054Y-105.664
X180.048Y-71.12
X180.048Y-117.348
T2
X106.426Y-97.79
X106.426Y-100.33
X106.426Y-102.87
X106.426Y-105.41
X106.426Y-107.95
X106.426Y-110.49
X106.426Y-113.03
X115.077Y-133.858
X117.617Y-133.858
X120.157Y-133.858
X124.968Y-130.048
X124.968Y-132.588
X127.508Y-130.048
X127.508Y-132.588
X130.048Y-130.048
X130.048Y-132.588
X132.588Y-130.048
X132.588Y-132.588
X135.128Y-130.048
X135.128Y-132.588
X137.668Y-130.048
X137.668Y-132.588
X140.208Y-130.048
X140.208Y-132.588
X142.748Y-130.048
X142.748Y-132.588
X145.288Y-130.048
X145.288Y-132.588
X147.828Y-130.048
X147.828Y-132.588
X150.368Y-130.048
X150.368Y-132.588
X152.908Y-130.048
X152.908Y-132.588
X155.448Y-130.048
X155.448Y-132.588
X157.988Y-130.048
X157.988Y-132.588
X160.528Y-130.048
X160.528Y-132.588
X163.068Y-130.048
X163.068Y-132.588
X172.974Y-96.012
X175.514Y-96.012
X178.054Y-96.012
T3
X113.554Y-68.776
X113.554Y-84.016
X116.094Y-68.776
X116.094Y-84.016
X118.634Y-68.776
X118.634Y-84.016
X121.174Y-68.776
X121.174Y-84.016
X123.714Y-68.776
X123.714Y-84.016
X126.254Y-68.776
X126.254Y-84.016
X128.794Y-68.776
X128.794Y-84.016
X131.334Y-68.776
X131.334Y-84.016
X133.874Y-68.776
X133.874Y-84.016
X136.414Y-68.776
X136.414Y-84.016
X138.954Y-68.776
X138.954Y-84.016
X141.494Y-68.776
X141.494Y-84.016
X144.034Y-68.776
X144.034Y-84.016
X146.574Y-68.776
X146.574Y-84.016
X149.114Y-68.776
X149.114Y-84.016
X151.654Y-68.776
X151.654Y-84.016
X154.194Y-68.776
X154.194Y-84.016
X156.734Y-68.776
X156.734Y-84.016
X159.274Y-68.776
X159.274Y-84.016
X161.814Y-68.776
X161.814Y-84.016
X164.354Y-68.776
X164.354Y-84.016
X166.894Y-68.776
X166.894Y-84.016
X169.434Y-68.776
X169.434Y-84.016
X171.974Y-68.776
X171.974Y-84.016
T4
X124.968Y-108.712
X124.968Y-123.952
X127.508Y-108.712
X127.508Y-123.952
X130.048Y-108.712
X130.048Y-123.952
X132.588Y-108.712
X132.588Y-123.952
X135.128Y-108.712
X135.128Y-123.952
X137.668Y-108.712
X137.668Y-123.952
X140.208Y-108.712
X140.208Y-123.952
X142.748Y-108.712
X142.748Y-123.952
X145.288Y-108.712
X145.288Y-123.952
X147.828Y-108.712
X147.828Y-123.952
X150.368Y-108.712
X150.368Y-123.952
X152.908Y-108.712
X152.908Y-123.952
X155.448Y-108.712
X155.448Y-123.952
X157.988Y-108.712
X157.988Y-123.952
X160.528Y-108.712
X160.528Y-123.952
X163.068Y-108.712
X163.068Y-123.952
M30
