%TF.GenerationSoftware,KiCad,Pcbnew,8.0.4*%
%TF.CreationDate,2025-02-24T13:32:17+01:00*%
%TF.ProjectId,RAMON_DEV,52414d4f-4e5f-4444-9556-2e6b69636164,rev?*%
%TF.SameCoordinates,Original*%
%TF.FileFunction,Legend,Bot*%
%TF.FilePolarity,Positive*%
%FSLAX46Y46*%
G04 Gerber Fmt 4.6, Leading zero omitted, Abs format (unit mm)*
G04 Created by KiCad (PCBNEW 8.0.4) date 2025-02-24 13:32:17*
%MOMM*%
%LPD*%
G01*
G04 APERTURE LIST*
%ADD10C,0.100000*%
%ADD11C,0.150000*%
%ADD12C,0.120000*%
G04 APERTURE END LIST*
D10*
X84881353Y-111731405D02*
X84881353Y-111131405D01*
X84681354Y-111331405D02*
X84452782Y-111331405D01*
X84595639Y-111731405D02*
X84595639Y-111217119D01*
X84595639Y-111217119D02*
X84567068Y-111159976D01*
X84567068Y-111159976D02*
X84509925Y-111131405D01*
X84509925Y-111131405D02*
X84452782Y-111131405D01*
X83538497Y-111702834D02*
X83595639Y-111731405D01*
X83595639Y-111731405D02*
X83709925Y-111731405D01*
X83709925Y-111731405D02*
X83767068Y-111702834D01*
X83767068Y-111702834D02*
X83795639Y-111674262D01*
X83795639Y-111674262D02*
X83824211Y-111617119D01*
X83824211Y-111617119D02*
X83824211Y-111445691D01*
X83824211Y-111445691D02*
X83795639Y-111388548D01*
X83795639Y-111388548D02*
X83767068Y-111359976D01*
X83767068Y-111359976D02*
X83709925Y-111331405D01*
X83709925Y-111331405D02*
X83595639Y-111331405D01*
X83595639Y-111331405D02*
X83538497Y-111359976D01*
X83195639Y-111731405D02*
X83252782Y-111702834D01*
X83252782Y-111702834D02*
X83281353Y-111674262D01*
X83281353Y-111674262D02*
X83309925Y-111617119D01*
X83309925Y-111617119D02*
X83309925Y-111445691D01*
X83309925Y-111445691D02*
X83281353Y-111388548D01*
X83281353Y-111388548D02*
X83252782Y-111359976D01*
X83252782Y-111359976D02*
X83195639Y-111331405D01*
X83195639Y-111331405D02*
X83109925Y-111331405D01*
X83109925Y-111331405D02*
X83052782Y-111359976D01*
X83052782Y-111359976D02*
X83024211Y-111388548D01*
X83024211Y-111388548D02*
X82995639Y-111445691D01*
X82995639Y-111445691D02*
X82995639Y-111617119D01*
X82995639Y-111617119D02*
X83024211Y-111674262D01*
X83024211Y-111674262D02*
X83052782Y-111702834D01*
X83052782Y-111702834D02*
X83109925Y-111731405D01*
X83109925Y-111731405D02*
X83195639Y-111731405D01*
X82738496Y-111331405D02*
X82738496Y-111731405D01*
X82738496Y-111388548D02*
X82709925Y-111359976D01*
X82709925Y-111359976D02*
X82652782Y-111331405D01*
X82652782Y-111331405D02*
X82567068Y-111331405D01*
X82567068Y-111331405D02*
X82509925Y-111359976D01*
X82509925Y-111359976D02*
X82481354Y-111417119D01*
X82481354Y-111417119D02*
X82481354Y-111731405D01*
X82195639Y-111331405D02*
X82195639Y-111731405D01*
X82195639Y-111388548D02*
X82167068Y-111359976D01*
X82167068Y-111359976D02*
X82109925Y-111331405D01*
X82109925Y-111331405D02*
X82024211Y-111331405D01*
X82024211Y-111331405D02*
X81967068Y-111359976D01*
X81967068Y-111359976D02*
X81938497Y-111417119D01*
X81938497Y-111417119D02*
X81938497Y-111731405D01*
X81424211Y-111702834D02*
X81481354Y-111731405D01*
X81481354Y-111731405D02*
X81595640Y-111731405D01*
X81595640Y-111731405D02*
X81652782Y-111702834D01*
X81652782Y-111702834D02*
X81681354Y-111645691D01*
X81681354Y-111645691D02*
X81681354Y-111417119D01*
X81681354Y-111417119D02*
X81652782Y-111359976D01*
X81652782Y-111359976D02*
X81595640Y-111331405D01*
X81595640Y-111331405D02*
X81481354Y-111331405D01*
X81481354Y-111331405D02*
X81424211Y-111359976D01*
X81424211Y-111359976D02*
X81395640Y-111417119D01*
X81395640Y-111417119D02*
X81395640Y-111474262D01*
X81395640Y-111474262D02*
X81681354Y-111531405D01*
X80881354Y-111702834D02*
X80938496Y-111731405D01*
X80938496Y-111731405D02*
X81052782Y-111731405D01*
X81052782Y-111731405D02*
X81109925Y-111702834D01*
X81109925Y-111702834D02*
X81138496Y-111674262D01*
X81138496Y-111674262D02*
X81167068Y-111617119D01*
X81167068Y-111617119D02*
X81167068Y-111445691D01*
X81167068Y-111445691D02*
X81138496Y-111388548D01*
X81138496Y-111388548D02*
X81109925Y-111359976D01*
X81109925Y-111359976D02*
X81052782Y-111331405D01*
X81052782Y-111331405D02*
X80938496Y-111331405D01*
X80938496Y-111331405D02*
X80881354Y-111359976D01*
X80709925Y-111331405D02*
X80481353Y-111331405D01*
X80624210Y-111131405D02*
X80624210Y-111645691D01*
X80624210Y-111645691D02*
X80595639Y-111702834D01*
X80595639Y-111702834D02*
X80538496Y-111731405D01*
X80538496Y-111731405D02*
X80481353Y-111731405D01*
X80052782Y-111702834D02*
X80109925Y-111731405D01*
X80109925Y-111731405D02*
X80224211Y-111731405D01*
X80224211Y-111731405D02*
X80281353Y-111702834D01*
X80281353Y-111702834D02*
X80309925Y-111645691D01*
X80309925Y-111645691D02*
X80309925Y-111417119D01*
X80309925Y-111417119D02*
X80281353Y-111359976D01*
X80281353Y-111359976D02*
X80224211Y-111331405D01*
X80224211Y-111331405D02*
X80109925Y-111331405D01*
X80109925Y-111331405D02*
X80052782Y-111359976D01*
X80052782Y-111359976D02*
X80024211Y-111417119D01*
X80024211Y-111417119D02*
X80024211Y-111474262D01*
X80024211Y-111474262D02*
X80309925Y-111531405D01*
X79509925Y-111731405D02*
X79509925Y-111131405D01*
X79509925Y-111702834D02*
X79567067Y-111731405D01*
X79567067Y-111731405D02*
X79681353Y-111731405D01*
X79681353Y-111731405D02*
X79738496Y-111702834D01*
X79738496Y-111702834D02*
X79767067Y-111674262D01*
X79767067Y-111674262D02*
X79795639Y-111617119D01*
X79795639Y-111617119D02*
X79795639Y-111445691D01*
X79795639Y-111445691D02*
X79767067Y-111388548D01*
X79767067Y-111388548D02*
X79738496Y-111359976D01*
X79738496Y-111359976D02*
X79681353Y-111331405D01*
X79681353Y-111331405D02*
X79567067Y-111331405D01*
X79567067Y-111331405D02*
X79509925Y-111359976D01*
X78852782Y-111331405D02*
X78624210Y-111331405D01*
X78767067Y-111131405D02*
X78767067Y-111645691D01*
X78767067Y-111645691D02*
X78738496Y-111702834D01*
X78738496Y-111702834D02*
X78681353Y-111731405D01*
X78681353Y-111731405D02*
X78624210Y-111731405D01*
X78338496Y-111731405D02*
X78395639Y-111702834D01*
X78395639Y-111702834D02*
X78424210Y-111674262D01*
X78424210Y-111674262D02*
X78452782Y-111617119D01*
X78452782Y-111617119D02*
X78452782Y-111445691D01*
X78452782Y-111445691D02*
X78424210Y-111388548D01*
X78424210Y-111388548D02*
X78395639Y-111359976D01*
X78395639Y-111359976D02*
X78338496Y-111331405D01*
X78338496Y-111331405D02*
X78252782Y-111331405D01*
X78252782Y-111331405D02*
X78195639Y-111359976D01*
X78195639Y-111359976D02*
X78167068Y-111388548D01*
X78167068Y-111388548D02*
X78138496Y-111445691D01*
X78138496Y-111445691D02*
X78138496Y-111617119D01*
X78138496Y-111617119D02*
X78167068Y-111674262D01*
X78167068Y-111674262D02*
X78195639Y-111702834D01*
X78195639Y-111702834D02*
X78252782Y-111731405D01*
X78252782Y-111731405D02*
X78338496Y-111731405D01*
X77167068Y-111731405D02*
X77167068Y-111417119D01*
X77167068Y-111417119D02*
X77195639Y-111359976D01*
X77195639Y-111359976D02*
X77252782Y-111331405D01*
X77252782Y-111331405D02*
X77367068Y-111331405D01*
X77367068Y-111331405D02*
X77424210Y-111359976D01*
X77167068Y-111702834D02*
X77224210Y-111731405D01*
X77224210Y-111731405D02*
X77367068Y-111731405D01*
X77367068Y-111731405D02*
X77424210Y-111702834D01*
X77424210Y-111702834D02*
X77452782Y-111645691D01*
X77452782Y-111645691D02*
X77452782Y-111588548D01*
X77452782Y-111588548D02*
X77424210Y-111531405D01*
X77424210Y-111531405D02*
X77367068Y-111502834D01*
X77367068Y-111502834D02*
X77224210Y-111502834D01*
X77224210Y-111502834D02*
X77167068Y-111474262D01*
X76167068Y-111702834D02*
X76224210Y-111731405D01*
X76224210Y-111731405D02*
X76338496Y-111731405D01*
X76338496Y-111731405D02*
X76395639Y-111702834D01*
X76395639Y-111702834D02*
X76424210Y-111674262D01*
X76424210Y-111674262D02*
X76452782Y-111617119D01*
X76452782Y-111617119D02*
X76452782Y-111445691D01*
X76452782Y-111445691D02*
X76424210Y-111388548D01*
X76424210Y-111388548D02*
X76395639Y-111359976D01*
X76395639Y-111359976D02*
X76338496Y-111331405D01*
X76338496Y-111331405D02*
X76224210Y-111331405D01*
X76224210Y-111331405D02*
X76167068Y-111359976D01*
X75909924Y-111731405D02*
X75909924Y-111131405D01*
X75652782Y-111731405D02*
X75652782Y-111417119D01*
X75652782Y-111417119D02*
X75681353Y-111359976D01*
X75681353Y-111359976D02*
X75738496Y-111331405D01*
X75738496Y-111331405D02*
X75824210Y-111331405D01*
X75824210Y-111331405D02*
X75881353Y-111359976D01*
X75881353Y-111359976D02*
X75909924Y-111388548D01*
X75367067Y-111731405D02*
X75367067Y-111331405D01*
X75367067Y-111131405D02*
X75395639Y-111159976D01*
X75395639Y-111159976D02*
X75367067Y-111188548D01*
X75367067Y-111188548D02*
X75338496Y-111159976D01*
X75338496Y-111159976D02*
X75367067Y-111131405D01*
X75367067Y-111131405D02*
X75367067Y-111188548D01*
X75081353Y-111331405D02*
X75081353Y-111931405D01*
X75081353Y-111359976D02*
X75024211Y-111331405D01*
X75024211Y-111331405D02*
X74909925Y-111331405D01*
X74909925Y-111331405D02*
X74852782Y-111359976D01*
X74852782Y-111359976D02*
X74824211Y-111388548D01*
X74824211Y-111388548D02*
X74795639Y-111445691D01*
X74795639Y-111445691D02*
X74795639Y-111617119D01*
X74795639Y-111617119D02*
X74824211Y-111674262D01*
X74824211Y-111674262D02*
X74852782Y-111702834D01*
X74852782Y-111702834D02*
X74909925Y-111731405D01*
X74909925Y-111731405D02*
X75024211Y-111731405D01*
X75024211Y-111731405D02*
X75081353Y-111702834D01*
X74081353Y-111331405D02*
X74081353Y-111931405D01*
X74081353Y-111359976D02*
X74024211Y-111331405D01*
X74024211Y-111331405D02*
X73909925Y-111331405D01*
X73909925Y-111331405D02*
X73852782Y-111359976D01*
X73852782Y-111359976D02*
X73824211Y-111388548D01*
X73824211Y-111388548D02*
X73795639Y-111445691D01*
X73795639Y-111445691D02*
X73795639Y-111617119D01*
X73795639Y-111617119D02*
X73824211Y-111674262D01*
X73824211Y-111674262D02*
X73852782Y-111702834D01*
X73852782Y-111702834D02*
X73909925Y-111731405D01*
X73909925Y-111731405D02*
X74024211Y-111731405D01*
X74024211Y-111731405D02*
X74081353Y-111702834D01*
X73538496Y-111731405D02*
X73538496Y-111331405D01*
X73538496Y-111445691D02*
X73509925Y-111388548D01*
X73509925Y-111388548D02*
X73481354Y-111359976D01*
X73481354Y-111359976D02*
X73424211Y-111331405D01*
X73424211Y-111331405D02*
X73367068Y-111331405D01*
X73081353Y-111731405D02*
X73138496Y-111702834D01*
X73138496Y-111702834D02*
X73167067Y-111674262D01*
X73167067Y-111674262D02*
X73195639Y-111617119D01*
X73195639Y-111617119D02*
X73195639Y-111445691D01*
X73195639Y-111445691D02*
X73167067Y-111388548D01*
X73167067Y-111388548D02*
X73138496Y-111359976D01*
X73138496Y-111359976D02*
X73081353Y-111331405D01*
X73081353Y-111331405D02*
X72995639Y-111331405D01*
X72995639Y-111331405D02*
X72938496Y-111359976D01*
X72938496Y-111359976D02*
X72909925Y-111388548D01*
X72909925Y-111388548D02*
X72881353Y-111445691D01*
X72881353Y-111445691D02*
X72881353Y-111617119D01*
X72881353Y-111617119D02*
X72909925Y-111674262D01*
X72909925Y-111674262D02*
X72938496Y-111702834D01*
X72938496Y-111702834D02*
X72995639Y-111731405D01*
X72995639Y-111731405D02*
X73081353Y-111731405D01*
X72367068Y-111331405D02*
X72367068Y-111817119D01*
X72367068Y-111817119D02*
X72395639Y-111874262D01*
X72395639Y-111874262D02*
X72424210Y-111902834D01*
X72424210Y-111902834D02*
X72481353Y-111931405D01*
X72481353Y-111931405D02*
X72567068Y-111931405D01*
X72567068Y-111931405D02*
X72624210Y-111902834D01*
X72367068Y-111702834D02*
X72424210Y-111731405D01*
X72424210Y-111731405D02*
X72538496Y-111731405D01*
X72538496Y-111731405D02*
X72595639Y-111702834D01*
X72595639Y-111702834D02*
X72624210Y-111674262D01*
X72624210Y-111674262D02*
X72652782Y-111617119D01*
X72652782Y-111617119D02*
X72652782Y-111445691D01*
X72652782Y-111445691D02*
X72624210Y-111388548D01*
X72624210Y-111388548D02*
X72595639Y-111359976D01*
X72595639Y-111359976D02*
X72538496Y-111331405D01*
X72538496Y-111331405D02*
X72424210Y-111331405D01*
X72424210Y-111331405D02*
X72367068Y-111359976D01*
X72081353Y-111731405D02*
X72081353Y-111331405D01*
X72081353Y-111445691D02*
X72052782Y-111388548D01*
X72052782Y-111388548D02*
X72024211Y-111359976D01*
X72024211Y-111359976D02*
X71967068Y-111331405D01*
X71967068Y-111331405D02*
X71909925Y-111331405D01*
X71452782Y-111731405D02*
X71452782Y-111417119D01*
X71452782Y-111417119D02*
X71481353Y-111359976D01*
X71481353Y-111359976D02*
X71538496Y-111331405D01*
X71538496Y-111331405D02*
X71652782Y-111331405D01*
X71652782Y-111331405D02*
X71709924Y-111359976D01*
X71452782Y-111702834D02*
X71509924Y-111731405D01*
X71509924Y-111731405D02*
X71652782Y-111731405D01*
X71652782Y-111731405D02*
X71709924Y-111702834D01*
X71709924Y-111702834D02*
X71738496Y-111645691D01*
X71738496Y-111645691D02*
X71738496Y-111588548D01*
X71738496Y-111588548D02*
X71709924Y-111531405D01*
X71709924Y-111531405D02*
X71652782Y-111502834D01*
X71652782Y-111502834D02*
X71509924Y-111502834D01*
X71509924Y-111502834D02*
X71452782Y-111474262D01*
X71167067Y-111731405D02*
X71167067Y-111331405D01*
X71167067Y-111388548D02*
X71138496Y-111359976D01*
X71138496Y-111359976D02*
X71081353Y-111331405D01*
X71081353Y-111331405D02*
X70995639Y-111331405D01*
X70995639Y-111331405D02*
X70938496Y-111359976D01*
X70938496Y-111359976D02*
X70909925Y-111417119D01*
X70909925Y-111417119D02*
X70909925Y-111731405D01*
X70909925Y-111417119D02*
X70881353Y-111359976D01*
X70881353Y-111359976D02*
X70824210Y-111331405D01*
X70824210Y-111331405D02*
X70738496Y-111331405D01*
X70738496Y-111331405D02*
X70681353Y-111359976D01*
X70681353Y-111359976D02*
X70652782Y-111417119D01*
X70652782Y-111417119D02*
X70652782Y-111731405D01*
X70367067Y-111731405D02*
X70367067Y-111331405D01*
X70367067Y-111388548D02*
X70338496Y-111359976D01*
X70338496Y-111359976D02*
X70281353Y-111331405D01*
X70281353Y-111331405D02*
X70195639Y-111331405D01*
X70195639Y-111331405D02*
X70138496Y-111359976D01*
X70138496Y-111359976D02*
X70109925Y-111417119D01*
X70109925Y-111417119D02*
X70109925Y-111731405D01*
X70109925Y-111417119D02*
X70081353Y-111359976D01*
X70081353Y-111359976D02*
X70024210Y-111331405D01*
X70024210Y-111331405D02*
X69938496Y-111331405D01*
X69938496Y-111331405D02*
X69881353Y-111359976D01*
X69881353Y-111359976D02*
X69852782Y-111417119D01*
X69852782Y-111417119D02*
X69852782Y-111731405D01*
X69338496Y-111702834D02*
X69395639Y-111731405D01*
X69395639Y-111731405D02*
X69509925Y-111731405D01*
X69509925Y-111731405D02*
X69567067Y-111702834D01*
X69567067Y-111702834D02*
X69595639Y-111645691D01*
X69595639Y-111645691D02*
X69595639Y-111417119D01*
X69595639Y-111417119D02*
X69567067Y-111359976D01*
X69567067Y-111359976D02*
X69509925Y-111331405D01*
X69509925Y-111331405D02*
X69395639Y-111331405D01*
X69395639Y-111331405D02*
X69338496Y-111359976D01*
X69338496Y-111359976D02*
X69309925Y-111417119D01*
X69309925Y-111417119D02*
X69309925Y-111474262D01*
X69309925Y-111474262D02*
X69595639Y-111531405D01*
X69052781Y-111731405D02*
X69052781Y-111331405D01*
X69052781Y-111445691D02*
X69024210Y-111388548D01*
X69024210Y-111388548D02*
X68995639Y-111359976D01*
X68995639Y-111359976D02*
X68938496Y-111331405D01*
X68938496Y-111331405D02*
X68881353Y-111331405D01*
X67967067Y-111731405D02*
X67967067Y-111417119D01*
X67967067Y-111417119D02*
X67995638Y-111359976D01*
X67995638Y-111359976D02*
X68052781Y-111331405D01*
X68052781Y-111331405D02*
X68167067Y-111331405D01*
X68167067Y-111331405D02*
X68224209Y-111359976D01*
X67967067Y-111702834D02*
X68024209Y-111731405D01*
X68024209Y-111731405D02*
X68167067Y-111731405D01*
X68167067Y-111731405D02*
X68224209Y-111702834D01*
X68224209Y-111702834D02*
X68252781Y-111645691D01*
X68252781Y-111645691D02*
X68252781Y-111588548D01*
X68252781Y-111588548D02*
X68224209Y-111531405D01*
X68224209Y-111531405D02*
X68167067Y-111502834D01*
X68167067Y-111502834D02*
X68024209Y-111502834D01*
X68024209Y-111502834D02*
X67967067Y-111474262D01*
X67681352Y-111331405D02*
X67681352Y-111731405D01*
X67681352Y-111388548D02*
X67652781Y-111359976D01*
X67652781Y-111359976D02*
X67595638Y-111331405D01*
X67595638Y-111331405D02*
X67509924Y-111331405D01*
X67509924Y-111331405D02*
X67452781Y-111359976D01*
X67452781Y-111359976D02*
X67424210Y-111417119D01*
X67424210Y-111417119D02*
X67424210Y-111731405D01*
X66881353Y-111731405D02*
X66881353Y-111131405D01*
X66881353Y-111702834D02*
X66938495Y-111731405D01*
X66938495Y-111731405D02*
X67052781Y-111731405D01*
X67052781Y-111731405D02*
X67109924Y-111702834D01*
X67109924Y-111702834D02*
X67138495Y-111674262D01*
X67138495Y-111674262D02*
X67167067Y-111617119D01*
X67167067Y-111617119D02*
X67167067Y-111445691D01*
X67167067Y-111445691D02*
X67138495Y-111388548D01*
X67138495Y-111388548D02*
X67109924Y-111359976D01*
X67109924Y-111359976D02*
X67052781Y-111331405D01*
X67052781Y-111331405D02*
X66938495Y-111331405D01*
X66938495Y-111331405D02*
X66881353Y-111359976D01*
X66195638Y-111331405D02*
X66052781Y-111731405D01*
X65909924Y-111331405D02*
X66052781Y-111731405D01*
X66052781Y-111731405D02*
X66109924Y-111874262D01*
X66109924Y-111874262D02*
X66138495Y-111902834D01*
X66138495Y-111902834D02*
X66195638Y-111931405D01*
X65595638Y-111731405D02*
X65652781Y-111702834D01*
X65652781Y-111702834D02*
X65681352Y-111674262D01*
X65681352Y-111674262D02*
X65709924Y-111617119D01*
X65709924Y-111617119D02*
X65709924Y-111445691D01*
X65709924Y-111445691D02*
X65681352Y-111388548D01*
X65681352Y-111388548D02*
X65652781Y-111359976D01*
X65652781Y-111359976D02*
X65595638Y-111331405D01*
X65595638Y-111331405D02*
X65509924Y-111331405D01*
X65509924Y-111331405D02*
X65452781Y-111359976D01*
X65452781Y-111359976D02*
X65424210Y-111388548D01*
X65424210Y-111388548D02*
X65395638Y-111445691D01*
X65395638Y-111445691D02*
X65395638Y-111617119D01*
X65395638Y-111617119D02*
X65424210Y-111674262D01*
X65424210Y-111674262D02*
X65452781Y-111702834D01*
X65452781Y-111702834D02*
X65509924Y-111731405D01*
X65509924Y-111731405D02*
X65595638Y-111731405D01*
X64881353Y-111331405D02*
X64881353Y-111731405D01*
X65138495Y-111331405D02*
X65138495Y-111645691D01*
X65138495Y-111645691D02*
X65109924Y-111702834D01*
X65109924Y-111702834D02*
X65052781Y-111731405D01*
X65052781Y-111731405D02*
X64967067Y-111731405D01*
X64967067Y-111731405D02*
X64909924Y-111702834D01*
X64909924Y-111702834D02*
X64881353Y-111674262D01*
X63881353Y-111731405D02*
X63881353Y-111417119D01*
X63881353Y-111417119D02*
X63909924Y-111359976D01*
X63909924Y-111359976D02*
X63967067Y-111331405D01*
X63967067Y-111331405D02*
X64081353Y-111331405D01*
X64081353Y-111331405D02*
X64138495Y-111359976D01*
X63881353Y-111702834D02*
X63938495Y-111731405D01*
X63938495Y-111731405D02*
X64081353Y-111731405D01*
X64081353Y-111731405D02*
X64138495Y-111702834D01*
X64138495Y-111702834D02*
X64167067Y-111645691D01*
X64167067Y-111645691D02*
X64167067Y-111588548D01*
X64167067Y-111588548D02*
X64138495Y-111531405D01*
X64138495Y-111531405D02*
X64081353Y-111502834D01*
X64081353Y-111502834D02*
X63938495Y-111502834D01*
X63938495Y-111502834D02*
X63881353Y-111474262D01*
X63595638Y-111731405D02*
X63595638Y-111331405D01*
X63595638Y-111445691D02*
X63567067Y-111388548D01*
X63567067Y-111388548D02*
X63538496Y-111359976D01*
X63538496Y-111359976D02*
X63481353Y-111331405D01*
X63481353Y-111331405D02*
X63424210Y-111331405D01*
X62995638Y-111702834D02*
X63052781Y-111731405D01*
X63052781Y-111731405D02*
X63167067Y-111731405D01*
X63167067Y-111731405D02*
X63224209Y-111702834D01*
X63224209Y-111702834D02*
X63252781Y-111645691D01*
X63252781Y-111645691D02*
X63252781Y-111417119D01*
X63252781Y-111417119D02*
X63224209Y-111359976D01*
X63224209Y-111359976D02*
X63167067Y-111331405D01*
X63167067Y-111331405D02*
X63052781Y-111331405D01*
X63052781Y-111331405D02*
X62995638Y-111359976D01*
X62995638Y-111359976D02*
X62967067Y-111417119D01*
X62967067Y-111417119D02*
X62967067Y-111474262D01*
X62967067Y-111474262D02*
X63252781Y-111531405D01*
X61995638Y-111331405D02*
X61995638Y-111731405D01*
X62252780Y-111331405D02*
X62252780Y-111645691D01*
X62252780Y-111645691D02*
X62224209Y-111702834D01*
X62224209Y-111702834D02*
X62167066Y-111731405D01*
X62167066Y-111731405D02*
X62081352Y-111731405D01*
X62081352Y-111731405D02*
X62024209Y-111702834D01*
X62024209Y-111702834D02*
X61995638Y-111674262D01*
X61738495Y-111702834D02*
X61681352Y-111731405D01*
X61681352Y-111731405D02*
X61567066Y-111731405D01*
X61567066Y-111731405D02*
X61509923Y-111702834D01*
X61509923Y-111702834D02*
X61481352Y-111645691D01*
X61481352Y-111645691D02*
X61481352Y-111617119D01*
X61481352Y-111617119D02*
X61509923Y-111559976D01*
X61509923Y-111559976D02*
X61567066Y-111531405D01*
X61567066Y-111531405D02*
X61652781Y-111531405D01*
X61652781Y-111531405D02*
X61709923Y-111502834D01*
X61709923Y-111502834D02*
X61738495Y-111445691D01*
X61738495Y-111445691D02*
X61738495Y-111417119D01*
X61738495Y-111417119D02*
X61709923Y-111359976D01*
X61709923Y-111359976D02*
X61652781Y-111331405D01*
X61652781Y-111331405D02*
X61567066Y-111331405D01*
X61567066Y-111331405D02*
X61509923Y-111359976D01*
X61224209Y-111731405D02*
X61224209Y-111331405D01*
X61224209Y-111131405D02*
X61252781Y-111159976D01*
X61252781Y-111159976D02*
X61224209Y-111188548D01*
X61224209Y-111188548D02*
X61195638Y-111159976D01*
X61195638Y-111159976D02*
X61224209Y-111131405D01*
X61224209Y-111131405D02*
X61224209Y-111188548D01*
X60938495Y-111331405D02*
X60938495Y-111731405D01*
X60938495Y-111388548D02*
X60909924Y-111359976D01*
X60909924Y-111359976D02*
X60852781Y-111331405D01*
X60852781Y-111331405D02*
X60767067Y-111331405D01*
X60767067Y-111331405D02*
X60709924Y-111359976D01*
X60709924Y-111359976D02*
X60681353Y-111417119D01*
X60681353Y-111417119D02*
X60681353Y-111731405D01*
X60138496Y-111331405D02*
X60138496Y-111817119D01*
X60138496Y-111817119D02*
X60167067Y-111874262D01*
X60167067Y-111874262D02*
X60195638Y-111902834D01*
X60195638Y-111902834D02*
X60252781Y-111931405D01*
X60252781Y-111931405D02*
X60338496Y-111931405D01*
X60338496Y-111931405D02*
X60395638Y-111902834D01*
X60138496Y-111702834D02*
X60195638Y-111731405D01*
X60195638Y-111731405D02*
X60309924Y-111731405D01*
X60309924Y-111731405D02*
X60367067Y-111702834D01*
X60367067Y-111702834D02*
X60395638Y-111674262D01*
X60395638Y-111674262D02*
X60424210Y-111617119D01*
X60424210Y-111617119D02*
X60424210Y-111445691D01*
X60424210Y-111445691D02*
X60395638Y-111388548D01*
X60395638Y-111388548D02*
X60367067Y-111359976D01*
X60367067Y-111359976D02*
X60309924Y-111331405D01*
X60309924Y-111331405D02*
X60195638Y-111331405D01*
X60195638Y-111331405D02*
X60138496Y-111359976D01*
X59138496Y-111731405D02*
X59138496Y-111417119D01*
X59138496Y-111417119D02*
X59167067Y-111359976D01*
X59167067Y-111359976D02*
X59224210Y-111331405D01*
X59224210Y-111331405D02*
X59338496Y-111331405D01*
X59338496Y-111331405D02*
X59395638Y-111359976D01*
X59138496Y-111702834D02*
X59195638Y-111731405D01*
X59195638Y-111731405D02*
X59338496Y-111731405D01*
X59338496Y-111731405D02*
X59395638Y-111702834D01*
X59395638Y-111702834D02*
X59424210Y-111645691D01*
X59424210Y-111645691D02*
X59424210Y-111588548D01*
X59424210Y-111588548D02*
X59395638Y-111531405D01*
X59395638Y-111531405D02*
X59338496Y-111502834D01*
X59338496Y-111502834D02*
X59195638Y-111502834D01*
X59195638Y-111502834D02*
X59138496Y-111474262D01*
X58424210Y-111188548D02*
X58395638Y-111159976D01*
X58395638Y-111159976D02*
X58338496Y-111131405D01*
X58338496Y-111131405D02*
X58195638Y-111131405D01*
X58195638Y-111131405D02*
X58138496Y-111159976D01*
X58138496Y-111159976D02*
X58109924Y-111188548D01*
X58109924Y-111188548D02*
X58081353Y-111245691D01*
X58081353Y-111245691D02*
X58081353Y-111302834D01*
X58081353Y-111302834D02*
X58109924Y-111388548D01*
X58109924Y-111388548D02*
X58452781Y-111731405D01*
X58452781Y-111731405D02*
X58081353Y-111731405D01*
X57738495Y-111388548D02*
X57795638Y-111359976D01*
X57795638Y-111359976D02*
X57824209Y-111331405D01*
X57824209Y-111331405D02*
X57852781Y-111274262D01*
X57852781Y-111274262D02*
X57852781Y-111245691D01*
X57852781Y-111245691D02*
X57824209Y-111188548D01*
X57824209Y-111188548D02*
X57795638Y-111159976D01*
X57795638Y-111159976D02*
X57738495Y-111131405D01*
X57738495Y-111131405D02*
X57624209Y-111131405D01*
X57624209Y-111131405D02*
X57567067Y-111159976D01*
X57567067Y-111159976D02*
X57538495Y-111188548D01*
X57538495Y-111188548D02*
X57509924Y-111245691D01*
X57509924Y-111245691D02*
X57509924Y-111274262D01*
X57509924Y-111274262D02*
X57538495Y-111331405D01*
X57538495Y-111331405D02*
X57567067Y-111359976D01*
X57567067Y-111359976D02*
X57624209Y-111388548D01*
X57624209Y-111388548D02*
X57738495Y-111388548D01*
X57738495Y-111388548D02*
X57795638Y-111417119D01*
X57795638Y-111417119D02*
X57824209Y-111445691D01*
X57824209Y-111445691D02*
X57852781Y-111502834D01*
X57852781Y-111502834D02*
X57852781Y-111617119D01*
X57852781Y-111617119D02*
X57824209Y-111674262D01*
X57824209Y-111674262D02*
X57795638Y-111702834D01*
X57795638Y-111702834D02*
X57738495Y-111731405D01*
X57738495Y-111731405D02*
X57624209Y-111731405D01*
X57624209Y-111731405D02*
X57567067Y-111702834D01*
X57567067Y-111702834D02*
X57538495Y-111674262D01*
X57538495Y-111674262D02*
X57509924Y-111617119D01*
X57509924Y-111617119D02*
X57509924Y-111502834D01*
X57509924Y-111502834D02*
X57538495Y-111445691D01*
X57538495Y-111445691D02*
X57567067Y-111417119D01*
X57567067Y-111417119D02*
X57624209Y-111388548D01*
X57252780Y-111502834D02*
X56795638Y-111502834D01*
X56509923Y-111331405D02*
X56509923Y-111931405D01*
X56509923Y-111359976D02*
X56452781Y-111331405D01*
X56452781Y-111331405D02*
X56338495Y-111331405D01*
X56338495Y-111331405D02*
X56281352Y-111359976D01*
X56281352Y-111359976D02*
X56252781Y-111388548D01*
X56252781Y-111388548D02*
X56224209Y-111445691D01*
X56224209Y-111445691D02*
X56224209Y-111617119D01*
X56224209Y-111617119D02*
X56252781Y-111674262D01*
X56252781Y-111674262D02*
X56281352Y-111702834D01*
X56281352Y-111702834D02*
X56338495Y-111731405D01*
X56338495Y-111731405D02*
X56452781Y-111731405D01*
X56452781Y-111731405D02*
X56509923Y-111702834D01*
X55967066Y-111731405D02*
X55967066Y-111331405D01*
X55967066Y-111131405D02*
X55995638Y-111159976D01*
X55995638Y-111159976D02*
X55967066Y-111188548D01*
X55967066Y-111188548D02*
X55938495Y-111159976D01*
X55938495Y-111159976D02*
X55967066Y-111131405D01*
X55967066Y-111131405D02*
X55967066Y-111188548D01*
X55681352Y-111331405D02*
X55681352Y-111731405D01*
X55681352Y-111388548D02*
X55652781Y-111359976D01*
X55652781Y-111359976D02*
X55595638Y-111331405D01*
X55595638Y-111331405D02*
X55509924Y-111331405D01*
X55509924Y-111331405D02*
X55452781Y-111359976D01*
X55452781Y-111359976D02*
X55424210Y-111417119D01*
X55424210Y-111417119D02*
X55424210Y-111731405D01*
X54424210Y-111702834D02*
X54481352Y-111731405D01*
X54481352Y-111731405D02*
X54595638Y-111731405D01*
X54595638Y-111731405D02*
X54652781Y-111702834D01*
X54652781Y-111702834D02*
X54681352Y-111674262D01*
X54681352Y-111674262D02*
X54709924Y-111617119D01*
X54709924Y-111617119D02*
X54709924Y-111445691D01*
X54709924Y-111445691D02*
X54681352Y-111388548D01*
X54681352Y-111388548D02*
X54652781Y-111359976D01*
X54652781Y-111359976D02*
X54595638Y-111331405D01*
X54595638Y-111331405D02*
X54481352Y-111331405D01*
X54481352Y-111331405D02*
X54424210Y-111359976D01*
X54167066Y-111731405D02*
X54167066Y-111131405D01*
X53909924Y-111731405D02*
X53909924Y-111417119D01*
X53909924Y-111417119D02*
X53938495Y-111359976D01*
X53938495Y-111359976D02*
X53995638Y-111331405D01*
X53995638Y-111331405D02*
X54081352Y-111331405D01*
X54081352Y-111331405D02*
X54138495Y-111359976D01*
X54138495Y-111359976D02*
X54167066Y-111388548D01*
X53624209Y-111731405D02*
X53624209Y-111331405D01*
X53624209Y-111131405D02*
X53652781Y-111159976D01*
X53652781Y-111159976D02*
X53624209Y-111188548D01*
X53624209Y-111188548D02*
X53595638Y-111159976D01*
X53595638Y-111159976D02*
X53624209Y-111131405D01*
X53624209Y-111131405D02*
X53624209Y-111188548D01*
X53338495Y-111331405D02*
X53338495Y-111931405D01*
X53338495Y-111359976D02*
X53281353Y-111331405D01*
X53281353Y-111331405D02*
X53167067Y-111331405D01*
X53167067Y-111331405D02*
X53109924Y-111359976D01*
X53109924Y-111359976D02*
X53081353Y-111388548D01*
X53081353Y-111388548D02*
X53052781Y-111445691D01*
X53052781Y-111445691D02*
X53052781Y-111617119D01*
X53052781Y-111617119D02*
X53081353Y-111674262D01*
X53081353Y-111674262D02*
X53109924Y-111702834D01*
X53109924Y-111702834D02*
X53167067Y-111731405D01*
X53167067Y-111731405D02*
X53281353Y-111731405D01*
X53281353Y-111731405D02*
X53338495Y-111702834D01*
X52252781Y-111731405D02*
X52309924Y-111702834D01*
X52309924Y-111702834D02*
X52338495Y-111674262D01*
X52338495Y-111674262D02*
X52367067Y-111617119D01*
X52367067Y-111617119D02*
X52367067Y-111445691D01*
X52367067Y-111445691D02*
X52338495Y-111388548D01*
X52338495Y-111388548D02*
X52309924Y-111359976D01*
X52309924Y-111359976D02*
X52252781Y-111331405D01*
X52252781Y-111331405D02*
X52167067Y-111331405D01*
X52167067Y-111331405D02*
X52109924Y-111359976D01*
X52109924Y-111359976D02*
X52081353Y-111388548D01*
X52081353Y-111388548D02*
X52052781Y-111445691D01*
X52052781Y-111445691D02*
X52052781Y-111617119D01*
X52052781Y-111617119D02*
X52081353Y-111674262D01*
X52081353Y-111674262D02*
X52109924Y-111702834D01*
X52109924Y-111702834D02*
X52167067Y-111731405D01*
X52167067Y-111731405D02*
X52252781Y-111731405D01*
X51795638Y-111731405D02*
X51795638Y-111331405D01*
X51795638Y-111445691D02*
X51767067Y-111388548D01*
X51767067Y-111388548D02*
X51738496Y-111359976D01*
X51738496Y-111359976D02*
X51681353Y-111331405D01*
X51681353Y-111331405D02*
X51624210Y-111331405D01*
X51024209Y-111131405D02*
X50652781Y-111131405D01*
X50652781Y-111131405D02*
X50852781Y-111359976D01*
X50852781Y-111359976D02*
X50767066Y-111359976D01*
X50767066Y-111359976D02*
X50709924Y-111388548D01*
X50709924Y-111388548D02*
X50681352Y-111417119D01*
X50681352Y-111417119D02*
X50652781Y-111474262D01*
X50652781Y-111474262D02*
X50652781Y-111617119D01*
X50652781Y-111617119D02*
X50681352Y-111674262D01*
X50681352Y-111674262D02*
X50709924Y-111702834D01*
X50709924Y-111702834D02*
X50767066Y-111731405D01*
X50767066Y-111731405D02*
X50938495Y-111731405D01*
X50938495Y-111731405D02*
X50995638Y-111702834D01*
X50995638Y-111702834D02*
X51024209Y-111674262D01*
X50281352Y-111131405D02*
X50224209Y-111131405D01*
X50224209Y-111131405D02*
X50167066Y-111159976D01*
X50167066Y-111159976D02*
X50138495Y-111188548D01*
X50138495Y-111188548D02*
X50109923Y-111245691D01*
X50109923Y-111245691D02*
X50081352Y-111359976D01*
X50081352Y-111359976D02*
X50081352Y-111502834D01*
X50081352Y-111502834D02*
X50109923Y-111617119D01*
X50109923Y-111617119D02*
X50138495Y-111674262D01*
X50138495Y-111674262D02*
X50167066Y-111702834D01*
X50167066Y-111702834D02*
X50224209Y-111731405D01*
X50224209Y-111731405D02*
X50281352Y-111731405D01*
X50281352Y-111731405D02*
X50338495Y-111702834D01*
X50338495Y-111702834D02*
X50367066Y-111674262D01*
X50367066Y-111674262D02*
X50395637Y-111617119D01*
X50395637Y-111617119D02*
X50424209Y-111502834D01*
X50424209Y-111502834D02*
X50424209Y-111359976D01*
X50424209Y-111359976D02*
X50395637Y-111245691D01*
X50395637Y-111245691D02*
X50367066Y-111188548D01*
X50367066Y-111188548D02*
X50338495Y-111159976D01*
X50338495Y-111159976D02*
X50281352Y-111131405D01*
X49824208Y-111502834D02*
X49367066Y-111502834D01*
X49081351Y-111331405D02*
X49081351Y-111931405D01*
X49081351Y-111359976D02*
X49024209Y-111331405D01*
X49024209Y-111331405D02*
X48909923Y-111331405D01*
X48909923Y-111331405D02*
X48852780Y-111359976D01*
X48852780Y-111359976D02*
X48824209Y-111388548D01*
X48824209Y-111388548D02*
X48795637Y-111445691D01*
X48795637Y-111445691D02*
X48795637Y-111617119D01*
X48795637Y-111617119D02*
X48824209Y-111674262D01*
X48824209Y-111674262D02*
X48852780Y-111702834D01*
X48852780Y-111702834D02*
X48909923Y-111731405D01*
X48909923Y-111731405D02*
X49024209Y-111731405D01*
X49024209Y-111731405D02*
X49081351Y-111702834D01*
X48538494Y-111731405D02*
X48538494Y-111331405D01*
X48538494Y-111131405D02*
X48567066Y-111159976D01*
X48567066Y-111159976D02*
X48538494Y-111188548D01*
X48538494Y-111188548D02*
X48509923Y-111159976D01*
X48509923Y-111159976D02*
X48538494Y-111131405D01*
X48538494Y-111131405D02*
X48538494Y-111188548D01*
X48252780Y-111331405D02*
X48252780Y-111731405D01*
X48252780Y-111388548D02*
X48224209Y-111359976D01*
X48224209Y-111359976D02*
X48167066Y-111331405D01*
X48167066Y-111331405D02*
X48081352Y-111331405D01*
X48081352Y-111331405D02*
X48024209Y-111359976D01*
X48024209Y-111359976D02*
X47995638Y-111417119D01*
X47995638Y-111417119D02*
X47995638Y-111731405D01*
X46995638Y-111702834D02*
X47052780Y-111731405D01*
X47052780Y-111731405D02*
X47167066Y-111731405D01*
X47167066Y-111731405D02*
X47224209Y-111702834D01*
X47224209Y-111702834D02*
X47252780Y-111674262D01*
X47252780Y-111674262D02*
X47281352Y-111617119D01*
X47281352Y-111617119D02*
X47281352Y-111445691D01*
X47281352Y-111445691D02*
X47252780Y-111388548D01*
X47252780Y-111388548D02*
X47224209Y-111359976D01*
X47224209Y-111359976D02*
X47167066Y-111331405D01*
X47167066Y-111331405D02*
X47052780Y-111331405D01*
X47052780Y-111331405D02*
X46995638Y-111359976D01*
X46738494Y-111731405D02*
X46738494Y-111131405D01*
X46481352Y-111731405D02*
X46481352Y-111417119D01*
X46481352Y-111417119D02*
X46509923Y-111359976D01*
X46509923Y-111359976D02*
X46567066Y-111331405D01*
X46567066Y-111331405D02*
X46652780Y-111331405D01*
X46652780Y-111331405D02*
X46709923Y-111359976D01*
X46709923Y-111359976D02*
X46738494Y-111388548D01*
X46195637Y-111731405D02*
X46195637Y-111331405D01*
X46195637Y-111131405D02*
X46224209Y-111159976D01*
X46224209Y-111159976D02*
X46195637Y-111188548D01*
X46195637Y-111188548D02*
X46167066Y-111159976D01*
X46167066Y-111159976D02*
X46195637Y-111131405D01*
X46195637Y-111131405D02*
X46195637Y-111188548D01*
X45909923Y-111331405D02*
X45909923Y-111931405D01*
X45909923Y-111359976D02*
X45852781Y-111331405D01*
X45852781Y-111331405D02*
X45738495Y-111331405D01*
X45738495Y-111331405D02*
X45681352Y-111359976D01*
X45681352Y-111359976D02*
X45652781Y-111388548D01*
X45652781Y-111388548D02*
X45624209Y-111445691D01*
X45624209Y-111445691D02*
X45624209Y-111617119D01*
X45624209Y-111617119D02*
X45652781Y-111674262D01*
X45652781Y-111674262D02*
X45681352Y-111702834D01*
X45681352Y-111702834D02*
X45738495Y-111731405D01*
X45738495Y-111731405D02*
X45852781Y-111731405D01*
X45852781Y-111731405D02*
X45909923Y-111702834D01*
X45367066Y-111674262D02*
X45338495Y-111702834D01*
X45338495Y-111702834D02*
X45367066Y-111731405D01*
X45367066Y-111731405D02*
X45395638Y-111702834D01*
X45395638Y-111702834D02*
X45367066Y-111674262D01*
X45367066Y-111674262D02*
X45367066Y-111731405D01*
X84881353Y-112697371D02*
X84881353Y-112097371D01*
X84881353Y-112097371D02*
X84738496Y-112097371D01*
X84738496Y-112097371D02*
X84652782Y-112125942D01*
X84652782Y-112125942D02*
X84595639Y-112183085D01*
X84595639Y-112183085D02*
X84567068Y-112240228D01*
X84567068Y-112240228D02*
X84538496Y-112354514D01*
X84538496Y-112354514D02*
X84538496Y-112440228D01*
X84538496Y-112440228D02*
X84567068Y-112554514D01*
X84567068Y-112554514D02*
X84595639Y-112611657D01*
X84595639Y-112611657D02*
X84652782Y-112668800D01*
X84652782Y-112668800D02*
X84738496Y-112697371D01*
X84738496Y-112697371D02*
X84881353Y-112697371D01*
X84281353Y-112697371D02*
X84281353Y-112297371D01*
X84281353Y-112097371D02*
X84309925Y-112125942D01*
X84309925Y-112125942D02*
X84281353Y-112154514D01*
X84281353Y-112154514D02*
X84252782Y-112125942D01*
X84252782Y-112125942D02*
X84281353Y-112097371D01*
X84281353Y-112097371D02*
X84281353Y-112154514D01*
X84024211Y-112668800D02*
X83967068Y-112697371D01*
X83967068Y-112697371D02*
X83852782Y-112697371D01*
X83852782Y-112697371D02*
X83795639Y-112668800D01*
X83795639Y-112668800D02*
X83767068Y-112611657D01*
X83767068Y-112611657D02*
X83767068Y-112583085D01*
X83767068Y-112583085D02*
X83795639Y-112525942D01*
X83795639Y-112525942D02*
X83852782Y-112497371D01*
X83852782Y-112497371D02*
X83938497Y-112497371D01*
X83938497Y-112497371D02*
X83995639Y-112468800D01*
X83995639Y-112468800D02*
X84024211Y-112411657D01*
X84024211Y-112411657D02*
X84024211Y-112383085D01*
X84024211Y-112383085D02*
X83995639Y-112325942D01*
X83995639Y-112325942D02*
X83938497Y-112297371D01*
X83938497Y-112297371D02*
X83852782Y-112297371D01*
X83852782Y-112297371D02*
X83795639Y-112325942D01*
X83252783Y-112668800D02*
X83309925Y-112697371D01*
X83309925Y-112697371D02*
X83424211Y-112697371D01*
X83424211Y-112697371D02*
X83481354Y-112668800D01*
X83481354Y-112668800D02*
X83509925Y-112640228D01*
X83509925Y-112640228D02*
X83538497Y-112583085D01*
X83538497Y-112583085D02*
X83538497Y-112411657D01*
X83538497Y-112411657D02*
X83509925Y-112354514D01*
X83509925Y-112354514D02*
X83481354Y-112325942D01*
X83481354Y-112325942D02*
X83424211Y-112297371D01*
X83424211Y-112297371D02*
X83309925Y-112297371D01*
X83309925Y-112297371D02*
X83252783Y-112325942D01*
X82909925Y-112697371D02*
X82967068Y-112668800D01*
X82967068Y-112668800D02*
X82995639Y-112640228D01*
X82995639Y-112640228D02*
X83024211Y-112583085D01*
X83024211Y-112583085D02*
X83024211Y-112411657D01*
X83024211Y-112411657D02*
X82995639Y-112354514D01*
X82995639Y-112354514D02*
X82967068Y-112325942D01*
X82967068Y-112325942D02*
X82909925Y-112297371D01*
X82909925Y-112297371D02*
X82824211Y-112297371D01*
X82824211Y-112297371D02*
X82767068Y-112325942D01*
X82767068Y-112325942D02*
X82738497Y-112354514D01*
X82738497Y-112354514D02*
X82709925Y-112411657D01*
X82709925Y-112411657D02*
X82709925Y-112583085D01*
X82709925Y-112583085D02*
X82738497Y-112640228D01*
X82738497Y-112640228D02*
X82767068Y-112668800D01*
X82767068Y-112668800D02*
X82824211Y-112697371D01*
X82824211Y-112697371D02*
X82909925Y-112697371D01*
X82452782Y-112297371D02*
X82452782Y-112697371D01*
X82452782Y-112354514D02*
X82424211Y-112325942D01*
X82424211Y-112325942D02*
X82367068Y-112297371D01*
X82367068Y-112297371D02*
X82281354Y-112297371D01*
X82281354Y-112297371D02*
X82224211Y-112325942D01*
X82224211Y-112325942D02*
X82195640Y-112383085D01*
X82195640Y-112383085D02*
X82195640Y-112697371D01*
X81909925Y-112297371D02*
X81909925Y-112697371D01*
X81909925Y-112354514D02*
X81881354Y-112325942D01*
X81881354Y-112325942D02*
X81824211Y-112297371D01*
X81824211Y-112297371D02*
X81738497Y-112297371D01*
X81738497Y-112297371D02*
X81681354Y-112325942D01*
X81681354Y-112325942D02*
X81652783Y-112383085D01*
X81652783Y-112383085D02*
X81652783Y-112697371D01*
X81138497Y-112668800D02*
X81195640Y-112697371D01*
X81195640Y-112697371D02*
X81309926Y-112697371D01*
X81309926Y-112697371D02*
X81367068Y-112668800D01*
X81367068Y-112668800D02*
X81395640Y-112611657D01*
X81395640Y-112611657D02*
X81395640Y-112383085D01*
X81395640Y-112383085D02*
X81367068Y-112325942D01*
X81367068Y-112325942D02*
X81309926Y-112297371D01*
X81309926Y-112297371D02*
X81195640Y-112297371D01*
X81195640Y-112297371D02*
X81138497Y-112325942D01*
X81138497Y-112325942D02*
X81109926Y-112383085D01*
X81109926Y-112383085D02*
X81109926Y-112440228D01*
X81109926Y-112440228D02*
X81395640Y-112497371D01*
X80595640Y-112668800D02*
X80652782Y-112697371D01*
X80652782Y-112697371D02*
X80767068Y-112697371D01*
X80767068Y-112697371D02*
X80824211Y-112668800D01*
X80824211Y-112668800D02*
X80852782Y-112640228D01*
X80852782Y-112640228D02*
X80881354Y-112583085D01*
X80881354Y-112583085D02*
X80881354Y-112411657D01*
X80881354Y-112411657D02*
X80852782Y-112354514D01*
X80852782Y-112354514D02*
X80824211Y-112325942D01*
X80824211Y-112325942D02*
X80767068Y-112297371D01*
X80767068Y-112297371D02*
X80652782Y-112297371D01*
X80652782Y-112297371D02*
X80595640Y-112325942D01*
X80424211Y-112297371D02*
X80195639Y-112297371D01*
X80338496Y-112097371D02*
X80338496Y-112611657D01*
X80338496Y-112611657D02*
X80309925Y-112668800D01*
X80309925Y-112668800D02*
X80252782Y-112697371D01*
X80252782Y-112697371D02*
X80195639Y-112697371D01*
X79624211Y-112297371D02*
X79395639Y-112297371D01*
X79538496Y-112097371D02*
X79538496Y-112611657D01*
X79538496Y-112611657D02*
X79509925Y-112668800D01*
X79509925Y-112668800D02*
X79452782Y-112697371D01*
X79452782Y-112697371D02*
X79395639Y-112697371D01*
X79195639Y-112697371D02*
X79195639Y-112097371D01*
X78938497Y-112697371D02*
X78938497Y-112383085D01*
X78938497Y-112383085D02*
X78967068Y-112325942D01*
X78967068Y-112325942D02*
X79024211Y-112297371D01*
X79024211Y-112297371D02*
X79109925Y-112297371D01*
X79109925Y-112297371D02*
X79167068Y-112325942D01*
X79167068Y-112325942D02*
X79195639Y-112354514D01*
X78424211Y-112668800D02*
X78481354Y-112697371D01*
X78481354Y-112697371D02*
X78595640Y-112697371D01*
X78595640Y-112697371D02*
X78652782Y-112668800D01*
X78652782Y-112668800D02*
X78681354Y-112611657D01*
X78681354Y-112611657D02*
X78681354Y-112383085D01*
X78681354Y-112383085D02*
X78652782Y-112325942D01*
X78652782Y-112325942D02*
X78595640Y-112297371D01*
X78595640Y-112297371D02*
X78481354Y-112297371D01*
X78481354Y-112297371D02*
X78424211Y-112325942D01*
X78424211Y-112325942D02*
X78395640Y-112383085D01*
X78395640Y-112383085D02*
X78395640Y-112440228D01*
X78395640Y-112440228D02*
X78681354Y-112497371D01*
X77681353Y-112297371D02*
X77681353Y-112897371D01*
X77681353Y-112325942D02*
X77624211Y-112297371D01*
X77624211Y-112297371D02*
X77509925Y-112297371D01*
X77509925Y-112297371D02*
X77452782Y-112325942D01*
X77452782Y-112325942D02*
X77424211Y-112354514D01*
X77424211Y-112354514D02*
X77395639Y-112411657D01*
X77395639Y-112411657D02*
X77395639Y-112583085D01*
X77395639Y-112583085D02*
X77424211Y-112640228D01*
X77424211Y-112640228D02*
X77452782Y-112668800D01*
X77452782Y-112668800D02*
X77509925Y-112697371D01*
X77509925Y-112697371D02*
X77624211Y-112697371D01*
X77624211Y-112697371D02*
X77681353Y-112668800D01*
X77138496Y-112697371D02*
X77138496Y-112297371D01*
X77138496Y-112097371D02*
X77167068Y-112125942D01*
X77167068Y-112125942D02*
X77138496Y-112154514D01*
X77138496Y-112154514D02*
X77109925Y-112125942D01*
X77109925Y-112125942D02*
X77138496Y-112097371D01*
X77138496Y-112097371D02*
X77138496Y-112154514D01*
X76852782Y-112297371D02*
X76852782Y-112697371D01*
X76852782Y-112354514D02*
X76824211Y-112325942D01*
X76824211Y-112325942D02*
X76767068Y-112297371D01*
X76767068Y-112297371D02*
X76681354Y-112297371D01*
X76681354Y-112297371D02*
X76624211Y-112325942D01*
X76624211Y-112325942D02*
X76595640Y-112383085D01*
X76595640Y-112383085D02*
X76595640Y-112697371D01*
X76338497Y-112668800D02*
X76281354Y-112697371D01*
X76281354Y-112697371D02*
X76167068Y-112697371D01*
X76167068Y-112697371D02*
X76109925Y-112668800D01*
X76109925Y-112668800D02*
X76081354Y-112611657D01*
X76081354Y-112611657D02*
X76081354Y-112583085D01*
X76081354Y-112583085D02*
X76109925Y-112525942D01*
X76109925Y-112525942D02*
X76167068Y-112497371D01*
X76167068Y-112497371D02*
X76252783Y-112497371D01*
X76252783Y-112497371D02*
X76309925Y-112468800D01*
X76309925Y-112468800D02*
X76338497Y-112411657D01*
X76338497Y-112411657D02*
X76338497Y-112383085D01*
X76338497Y-112383085D02*
X76309925Y-112325942D01*
X76309925Y-112325942D02*
X76252783Y-112297371D01*
X76252783Y-112297371D02*
X76167068Y-112297371D01*
X76167068Y-112297371D02*
X76109925Y-112325942D01*
X75109926Y-112697371D02*
X75109926Y-112383085D01*
X75109926Y-112383085D02*
X75138497Y-112325942D01*
X75138497Y-112325942D02*
X75195640Y-112297371D01*
X75195640Y-112297371D02*
X75309926Y-112297371D01*
X75309926Y-112297371D02*
X75367068Y-112325942D01*
X75109926Y-112668800D02*
X75167068Y-112697371D01*
X75167068Y-112697371D02*
X75309926Y-112697371D01*
X75309926Y-112697371D02*
X75367068Y-112668800D01*
X75367068Y-112668800D02*
X75395640Y-112611657D01*
X75395640Y-112611657D02*
X75395640Y-112554514D01*
X75395640Y-112554514D02*
X75367068Y-112497371D01*
X75367068Y-112497371D02*
X75309926Y-112468800D01*
X75309926Y-112468800D02*
X75167068Y-112468800D01*
X75167068Y-112468800D02*
X75109926Y-112440228D01*
X74567069Y-112668800D02*
X74624211Y-112697371D01*
X74624211Y-112697371D02*
X74738497Y-112697371D01*
X74738497Y-112697371D02*
X74795640Y-112668800D01*
X74795640Y-112668800D02*
X74824211Y-112640228D01*
X74824211Y-112640228D02*
X74852783Y-112583085D01*
X74852783Y-112583085D02*
X74852783Y-112411657D01*
X74852783Y-112411657D02*
X74824211Y-112354514D01*
X74824211Y-112354514D02*
X74795640Y-112325942D01*
X74795640Y-112325942D02*
X74738497Y-112297371D01*
X74738497Y-112297371D02*
X74624211Y-112297371D01*
X74624211Y-112297371D02*
X74567069Y-112325942D01*
X74052783Y-112668800D02*
X74109925Y-112697371D01*
X74109925Y-112697371D02*
X74224211Y-112697371D01*
X74224211Y-112697371D02*
X74281354Y-112668800D01*
X74281354Y-112668800D02*
X74309925Y-112640228D01*
X74309925Y-112640228D02*
X74338497Y-112583085D01*
X74338497Y-112583085D02*
X74338497Y-112411657D01*
X74338497Y-112411657D02*
X74309925Y-112354514D01*
X74309925Y-112354514D02*
X74281354Y-112325942D01*
X74281354Y-112325942D02*
X74224211Y-112297371D01*
X74224211Y-112297371D02*
X74109925Y-112297371D01*
X74109925Y-112297371D02*
X74052783Y-112325942D01*
X73709925Y-112697371D02*
X73767068Y-112668800D01*
X73767068Y-112668800D02*
X73795639Y-112640228D01*
X73795639Y-112640228D02*
X73824211Y-112583085D01*
X73824211Y-112583085D02*
X73824211Y-112411657D01*
X73824211Y-112411657D02*
X73795639Y-112354514D01*
X73795639Y-112354514D02*
X73767068Y-112325942D01*
X73767068Y-112325942D02*
X73709925Y-112297371D01*
X73709925Y-112297371D02*
X73624211Y-112297371D01*
X73624211Y-112297371D02*
X73567068Y-112325942D01*
X73567068Y-112325942D02*
X73538497Y-112354514D01*
X73538497Y-112354514D02*
X73509925Y-112411657D01*
X73509925Y-112411657D02*
X73509925Y-112583085D01*
X73509925Y-112583085D02*
X73538497Y-112640228D01*
X73538497Y-112640228D02*
X73567068Y-112668800D01*
X73567068Y-112668800D02*
X73624211Y-112697371D01*
X73624211Y-112697371D02*
X73709925Y-112697371D01*
X73252782Y-112697371D02*
X73252782Y-112297371D01*
X73252782Y-112411657D02*
X73224211Y-112354514D01*
X73224211Y-112354514D02*
X73195640Y-112325942D01*
X73195640Y-112325942D02*
X73138497Y-112297371D01*
X73138497Y-112297371D02*
X73081354Y-112297371D01*
X72624211Y-112697371D02*
X72624211Y-112097371D01*
X72624211Y-112668800D02*
X72681353Y-112697371D01*
X72681353Y-112697371D02*
X72795639Y-112697371D01*
X72795639Y-112697371D02*
X72852782Y-112668800D01*
X72852782Y-112668800D02*
X72881353Y-112640228D01*
X72881353Y-112640228D02*
X72909925Y-112583085D01*
X72909925Y-112583085D02*
X72909925Y-112411657D01*
X72909925Y-112411657D02*
X72881353Y-112354514D01*
X72881353Y-112354514D02*
X72852782Y-112325942D01*
X72852782Y-112325942D02*
X72795639Y-112297371D01*
X72795639Y-112297371D02*
X72681353Y-112297371D01*
X72681353Y-112297371D02*
X72624211Y-112325942D01*
X72338496Y-112697371D02*
X72338496Y-112297371D01*
X72338496Y-112097371D02*
X72367068Y-112125942D01*
X72367068Y-112125942D02*
X72338496Y-112154514D01*
X72338496Y-112154514D02*
X72309925Y-112125942D01*
X72309925Y-112125942D02*
X72338496Y-112097371D01*
X72338496Y-112097371D02*
X72338496Y-112154514D01*
X72052782Y-112297371D02*
X72052782Y-112697371D01*
X72052782Y-112354514D02*
X72024211Y-112325942D01*
X72024211Y-112325942D02*
X71967068Y-112297371D01*
X71967068Y-112297371D02*
X71881354Y-112297371D01*
X71881354Y-112297371D02*
X71824211Y-112325942D01*
X71824211Y-112325942D02*
X71795640Y-112383085D01*
X71795640Y-112383085D02*
X71795640Y-112697371D01*
X71252783Y-112297371D02*
X71252783Y-112783085D01*
X71252783Y-112783085D02*
X71281354Y-112840228D01*
X71281354Y-112840228D02*
X71309925Y-112868800D01*
X71309925Y-112868800D02*
X71367068Y-112897371D01*
X71367068Y-112897371D02*
X71452783Y-112897371D01*
X71452783Y-112897371D02*
X71509925Y-112868800D01*
X71252783Y-112668800D02*
X71309925Y-112697371D01*
X71309925Y-112697371D02*
X71424211Y-112697371D01*
X71424211Y-112697371D02*
X71481354Y-112668800D01*
X71481354Y-112668800D02*
X71509925Y-112640228D01*
X71509925Y-112640228D02*
X71538497Y-112583085D01*
X71538497Y-112583085D02*
X71538497Y-112411657D01*
X71538497Y-112411657D02*
X71509925Y-112354514D01*
X71509925Y-112354514D02*
X71481354Y-112325942D01*
X71481354Y-112325942D02*
X71424211Y-112297371D01*
X71424211Y-112297371D02*
X71309925Y-112297371D01*
X71309925Y-112297371D02*
X71252783Y-112325942D01*
X70881354Y-112697371D02*
X70938497Y-112668800D01*
X70938497Y-112668800D02*
X70967068Y-112611657D01*
X70967068Y-112611657D02*
X70967068Y-112097371D01*
X70709925Y-112297371D02*
X70567068Y-112697371D01*
X70424211Y-112297371D02*
X70567068Y-112697371D01*
X70567068Y-112697371D02*
X70624211Y-112840228D01*
X70624211Y-112840228D02*
X70652782Y-112868800D01*
X70652782Y-112868800D02*
X70709925Y-112897371D01*
X69738496Y-112697371D02*
X69738496Y-112097371D01*
X69738496Y-112325942D02*
X69681354Y-112297371D01*
X69681354Y-112297371D02*
X69567068Y-112297371D01*
X69567068Y-112297371D02*
X69509925Y-112325942D01*
X69509925Y-112325942D02*
X69481354Y-112354514D01*
X69481354Y-112354514D02*
X69452782Y-112411657D01*
X69452782Y-112411657D02*
X69452782Y-112583085D01*
X69452782Y-112583085D02*
X69481354Y-112640228D01*
X69481354Y-112640228D02*
X69509925Y-112668800D01*
X69509925Y-112668800D02*
X69567068Y-112697371D01*
X69567068Y-112697371D02*
X69681354Y-112697371D01*
X69681354Y-112697371D02*
X69738496Y-112668800D01*
X68967068Y-112668800D02*
X69024211Y-112697371D01*
X69024211Y-112697371D02*
X69138497Y-112697371D01*
X69138497Y-112697371D02*
X69195639Y-112668800D01*
X69195639Y-112668800D02*
X69224211Y-112611657D01*
X69224211Y-112611657D02*
X69224211Y-112383085D01*
X69224211Y-112383085D02*
X69195639Y-112325942D01*
X69195639Y-112325942D02*
X69138497Y-112297371D01*
X69138497Y-112297371D02*
X69024211Y-112297371D01*
X69024211Y-112297371D02*
X68967068Y-112325942D01*
X68967068Y-112325942D02*
X68938497Y-112383085D01*
X68938497Y-112383085D02*
X68938497Y-112440228D01*
X68938497Y-112440228D02*
X69224211Y-112497371D01*
X68424211Y-112668800D02*
X68481353Y-112697371D01*
X68481353Y-112697371D02*
X68595639Y-112697371D01*
X68595639Y-112697371D02*
X68652782Y-112668800D01*
X68652782Y-112668800D02*
X68681353Y-112640228D01*
X68681353Y-112640228D02*
X68709925Y-112583085D01*
X68709925Y-112583085D02*
X68709925Y-112411657D01*
X68709925Y-112411657D02*
X68681353Y-112354514D01*
X68681353Y-112354514D02*
X68652782Y-112325942D01*
X68652782Y-112325942D02*
X68595639Y-112297371D01*
X68595639Y-112297371D02*
X68481353Y-112297371D01*
X68481353Y-112297371D02*
X68424211Y-112325942D01*
X67909925Y-112697371D02*
X67909925Y-112383085D01*
X67909925Y-112383085D02*
X67938496Y-112325942D01*
X67938496Y-112325942D02*
X67995639Y-112297371D01*
X67995639Y-112297371D02*
X68109925Y-112297371D01*
X68109925Y-112297371D02*
X68167067Y-112325942D01*
X67909925Y-112668800D02*
X67967067Y-112697371D01*
X67967067Y-112697371D02*
X68109925Y-112697371D01*
X68109925Y-112697371D02*
X68167067Y-112668800D01*
X68167067Y-112668800D02*
X68195639Y-112611657D01*
X68195639Y-112611657D02*
X68195639Y-112554514D01*
X68195639Y-112554514D02*
X68167067Y-112497371D01*
X68167067Y-112497371D02*
X68109925Y-112468800D01*
X68109925Y-112468800D02*
X67967067Y-112468800D01*
X67967067Y-112468800D02*
X67909925Y-112440228D01*
X67367068Y-112297371D02*
X67367068Y-112697371D01*
X67624210Y-112297371D02*
X67624210Y-112611657D01*
X67624210Y-112611657D02*
X67595639Y-112668800D01*
X67595639Y-112668800D02*
X67538496Y-112697371D01*
X67538496Y-112697371D02*
X67452782Y-112697371D01*
X67452782Y-112697371D02*
X67395639Y-112668800D01*
X67395639Y-112668800D02*
X67367068Y-112640228D01*
X67109925Y-112668800D02*
X67052782Y-112697371D01*
X67052782Y-112697371D02*
X66938496Y-112697371D01*
X66938496Y-112697371D02*
X66881353Y-112668800D01*
X66881353Y-112668800D02*
X66852782Y-112611657D01*
X66852782Y-112611657D02*
X66852782Y-112583085D01*
X66852782Y-112583085D02*
X66881353Y-112525942D01*
X66881353Y-112525942D02*
X66938496Y-112497371D01*
X66938496Y-112497371D02*
X67024211Y-112497371D01*
X67024211Y-112497371D02*
X67081353Y-112468800D01*
X67081353Y-112468800D02*
X67109925Y-112411657D01*
X67109925Y-112411657D02*
X67109925Y-112383085D01*
X67109925Y-112383085D02*
X67081353Y-112325942D01*
X67081353Y-112325942D02*
X67024211Y-112297371D01*
X67024211Y-112297371D02*
X66938496Y-112297371D01*
X66938496Y-112297371D02*
X66881353Y-112325942D01*
X66367068Y-112668800D02*
X66424211Y-112697371D01*
X66424211Y-112697371D02*
X66538497Y-112697371D01*
X66538497Y-112697371D02*
X66595639Y-112668800D01*
X66595639Y-112668800D02*
X66624211Y-112611657D01*
X66624211Y-112611657D02*
X66624211Y-112383085D01*
X66624211Y-112383085D02*
X66595639Y-112325942D01*
X66595639Y-112325942D02*
X66538497Y-112297371D01*
X66538497Y-112297371D02*
X66424211Y-112297371D01*
X66424211Y-112297371D02*
X66367068Y-112325942D01*
X66367068Y-112325942D02*
X66338497Y-112383085D01*
X66338497Y-112383085D02*
X66338497Y-112440228D01*
X66338497Y-112440228D02*
X66624211Y-112497371D01*
X65709925Y-112297371D02*
X65481353Y-112297371D01*
X65624210Y-112097371D02*
X65624210Y-112611657D01*
X65624210Y-112611657D02*
X65595639Y-112668800D01*
X65595639Y-112668800D02*
X65538496Y-112697371D01*
X65538496Y-112697371D02*
X65481353Y-112697371D01*
X65281353Y-112697371D02*
X65281353Y-112097371D01*
X65024211Y-112697371D02*
X65024211Y-112383085D01*
X65024211Y-112383085D02*
X65052782Y-112325942D01*
X65052782Y-112325942D02*
X65109925Y-112297371D01*
X65109925Y-112297371D02*
X65195639Y-112297371D01*
X65195639Y-112297371D02*
X65252782Y-112325942D01*
X65252782Y-112325942D02*
X65281353Y-112354514D01*
X64509925Y-112668800D02*
X64567068Y-112697371D01*
X64567068Y-112697371D02*
X64681354Y-112697371D01*
X64681354Y-112697371D02*
X64738496Y-112668800D01*
X64738496Y-112668800D02*
X64767068Y-112611657D01*
X64767068Y-112611657D02*
X64767068Y-112383085D01*
X64767068Y-112383085D02*
X64738496Y-112325942D01*
X64738496Y-112325942D02*
X64681354Y-112297371D01*
X64681354Y-112297371D02*
X64567068Y-112297371D01*
X64567068Y-112297371D02*
X64509925Y-112325942D01*
X64509925Y-112325942D02*
X64481354Y-112383085D01*
X64481354Y-112383085D02*
X64481354Y-112440228D01*
X64481354Y-112440228D02*
X64767068Y-112497371D01*
X63767067Y-112297371D02*
X63767067Y-112897371D01*
X63767067Y-112325942D02*
X63709925Y-112297371D01*
X63709925Y-112297371D02*
X63595639Y-112297371D01*
X63595639Y-112297371D02*
X63538496Y-112325942D01*
X63538496Y-112325942D02*
X63509925Y-112354514D01*
X63509925Y-112354514D02*
X63481353Y-112411657D01*
X63481353Y-112411657D02*
X63481353Y-112583085D01*
X63481353Y-112583085D02*
X63509925Y-112640228D01*
X63509925Y-112640228D02*
X63538496Y-112668800D01*
X63538496Y-112668800D02*
X63595639Y-112697371D01*
X63595639Y-112697371D02*
X63709925Y-112697371D01*
X63709925Y-112697371D02*
X63767067Y-112668800D01*
X63224210Y-112697371D02*
X63224210Y-112297371D01*
X63224210Y-112411657D02*
X63195639Y-112354514D01*
X63195639Y-112354514D02*
X63167068Y-112325942D01*
X63167068Y-112325942D02*
X63109925Y-112297371D01*
X63109925Y-112297371D02*
X63052782Y-112297371D01*
X62767067Y-112697371D02*
X62824210Y-112668800D01*
X62824210Y-112668800D02*
X62852781Y-112640228D01*
X62852781Y-112640228D02*
X62881353Y-112583085D01*
X62881353Y-112583085D02*
X62881353Y-112411657D01*
X62881353Y-112411657D02*
X62852781Y-112354514D01*
X62852781Y-112354514D02*
X62824210Y-112325942D01*
X62824210Y-112325942D02*
X62767067Y-112297371D01*
X62767067Y-112297371D02*
X62681353Y-112297371D01*
X62681353Y-112297371D02*
X62624210Y-112325942D01*
X62624210Y-112325942D02*
X62595639Y-112354514D01*
X62595639Y-112354514D02*
X62567067Y-112411657D01*
X62567067Y-112411657D02*
X62567067Y-112583085D01*
X62567067Y-112583085D02*
X62595639Y-112640228D01*
X62595639Y-112640228D02*
X62624210Y-112668800D01*
X62624210Y-112668800D02*
X62681353Y-112697371D01*
X62681353Y-112697371D02*
X62767067Y-112697371D01*
X62052782Y-112297371D02*
X62052782Y-112783085D01*
X62052782Y-112783085D02*
X62081353Y-112840228D01*
X62081353Y-112840228D02*
X62109924Y-112868800D01*
X62109924Y-112868800D02*
X62167067Y-112897371D01*
X62167067Y-112897371D02*
X62252782Y-112897371D01*
X62252782Y-112897371D02*
X62309924Y-112868800D01*
X62052782Y-112668800D02*
X62109924Y-112697371D01*
X62109924Y-112697371D02*
X62224210Y-112697371D01*
X62224210Y-112697371D02*
X62281353Y-112668800D01*
X62281353Y-112668800D02*
X62309924Y-112640228D01*
X62309924Y-112640228D02*
X62338496Y-112583085D01*
X62338496Y-112583085D02*
X62338496Y-112411657D01*
X62338496Y-112411657D02*
X62309924Y-112354514D01*
X62309924Y-112354514D02*
X62281353Y-112325942D01*
X62281353Y-112325942D02*
X62224210Y-112297371D01*
X62224210Y-112297371D02*
X62109924Y-112297371D01*
X62109924Y-112297371D02*
X62052782Y-112325942D01*
X61767067Y-112697371D02*
X61767067Y-112297371D01*
X61767067Y-112411657D02*
X61738496Y-112354514D01*
X61738496Y-112354514D02*
X61709925Y-112325942D01*
X61709925Y-112325942D02*
X61652782Y-112297371D01*
X61652782Y-112297371D02*
X61595639Y-112297371D01*
X61138496Y-112697371D02*
X61138496Y-112383085D01*
X61138496Y-112383085D02*
X61167067Y-112325942D01*
X61167067Y-112325942D02*
X61224210Y-112297371D01*
X61224210Y-112297371D02*
X61338496Y-112297371D01*
X61338496Y-112297371D02*
X61395638Y-112325942D01*
X61138496Y-112668800D02*
X61195638Y-112697371D01*
X61195638Y-112697371D02*
X61338496Y-112697371D01*
X61338496Y-112697371D02*
X61395638Y-112668800D01*
X61395638Y-112668800D02*
X61424210Y-112611657D01*
X61424210Y-112611657D02*
X61424210Y-112554514D01*
X61424210Y-112554514D02*
X61395638Y-112497371D01*
X61395638Y-112497371D02*
X61338496Y-112468800D01*
X61338496Y-112468800D02*
X61195638Y-112468800D01*
X61195638Y-112468800D02*
X61138496Y-112440228D01*
X60852781Y-112697371D02*
X60852781Y-112297371D01*
X60852781Y-112354514D02*
X60824210Y-112325942D01*
X60824210Y-112325942D02*
X60767067Y-112297371D01*
X60767067Y-112297371D02*
X60681353Y-112297371D01*
X60681353Y-112297371D02*
X60624210Y-112325942D01*
X60624210Y-112325942D02*
X60595639Y-112383085D01*
X60595639Y-112383085D02*
X60595639Y-112697371D01*
X60595639Y-112383085D02*
X60567067Y-112325942D01*
X60567067Y-112325942D02*
X60509924Y-112297371D01*
X60509924Y-112297371D02*
X60424210Y-112297371D01*
X60424210Y-112297371D02*
X60367067Y-112325942D01*
X60367067Y-112325942D02*
X60338496Y-112383085D01*
X60338496Y-112383085D02*
X60338496Y-112697371D01*
X60052781Y-112697371D02*
X60052781Y-112297371D01*
X60052781Y-112354514D02*
X60024210Y-112325942D01*
X60024210Y-112325942D02*
X59967067Y-112297371D01*
X59967067Y-112297371D02*
X59881353Y-112297371D01*
X59881353Y-112297371D02*
X59824210Y-112325942D01*
X59824210Y-112325942D02*
X59795639Y-112383085D01*
X59795639Y-112383085D02*
X59795639Y-112697371D01*
X59795639Y-112383085D02*
X59767067Y-112325942D01*
X59767067Y-112325942D02*
X59709924Y-112297371D01*
X59709924Y-112297371D02*
X59624210Y-112297371D01*
X59624210Y-112297371D02*
X59567067Y-112325942D01*
X59567067Y-112325942D02*
X59538496Y-112383085D01*
X59538496Y-112383085D02*
X59538496Y-112697371D01*
X59024210Y-112668800D02*
X59081353Y-112697371D01*
X59081353Y-112697371D02*
X59195639Y-112697371D01*
X59195639Y-112697371D02*
X59252781Y-112668800D01*
X59252781Y-112668800D02*
X59281353Y-112611657D01*
X59281353Y-112611657D02*
X59281353Y-112383085D01*
X59281353Y-112383085D02*
X59252781Y-112325942D01*
X59252781Y-112325942D02*
X59195639Y-112297371D01*
X59195639Y-112297371D02*
X59081353Y-112297371D01*
X59081353Y-112297371D02*
X59024210Y-112325942D01*
X59024210Y-112325942D02*
X58995639Y-112383085D01*
X58995639Y-112383085D02*
X58995639Y-112440228D01*
X58995639Y-112440228D02*
X59281353Y-112497371D01*
X58738495Y-112697371D02*
X58738495Y-112297371D01*
X58738495Y-112411657D02*
X58709924Y-112354514D01*
X58709924Y-112354514D02*
X58681353Y-112325942D01*
X58681353Y-112325942D02*
X58624210Y-112297371D01*
X58624210Y-112297371D02*
X58567067Y-112297371D01*
X57909923Y-112697371D02*
X57909923Y-112297371D01*
X57909923Y-112354514D02*
X57881352Y-112325942D01*
X57881352Y-112325942D02*
X57824209Y-112297371D01*
X57824209Y-112297371D02*
X57738495Y-112297371D01*
X57738495Y-112297371D02*
X57681352Y-112325942D01*
X57681352Y-112325942D02*
X57652781Y-112383085D01*
X57652781Y-112383085D02*
X57652781Y-112697371D01*
X57652781Y-112383085D02*
X57624209Y-112325942D01*
X57624209Y-112325942D02*
X57567066Y-112297371D01*
X57567066Y-112297371D02*
X57481352Y-112297371D01*
X57481352Y-112297371D02*
X57424209Y-112325942D01*
X57424209Y-112325942D02*
X57395638Y-112383085D01*
X57395638Y-112383085D02*
X57395638Y-112697371D01*
X57109923Y-112697371D02*
X57109923Y-112297371D01*
X57109923Y-112097371D02*
X57138495Y-112125942D01*
X57138495Y-112125942D02*
X57109923Y-112154514D01*
X57109923Y-112154514D02*
X57081352Y-112125942D01*
X57081352Y-112125942D02*
X57109923Y-112097371D01*
X57109923Y-112097371D02*
X57109923Y-112154514D01*
X56567067Y-112297371D02*
X56567067Y-112783085D01*
X56567067Y-112783085D02*
X56595638Y-112840228D01*
X56595638Y-112840228D02*
X56624209Y-112868800D01*
X56624209Y-112868800D02*
X56681352Y-112897371D01*
X56681352Y-112897371D02*
X56767067Y-112897371D01*
X56767067Y-112897371D02*
X56824209Y-112868800D01*
X56567067Y-112668800D02*
X56624209Y-112697371D01*
X56624209Y-112697371D02*
X56738495Y-112697371D01*
X56738495Y-112697371D02*
X56795638Y-112668800D01*
X56795638Y-112668800D02*
X56824209Y-112640228D01*
X56824209Y-112640228D02*
X56852781Y-112583085D01*
X56852781Y-112583085D02*
X56852781Y-112411657D01*
X56852781Y-112411657D02*
X56824209Y-112354514D01*
X56824209Y-112354514D02*
X56795638Y-112325942D01*
X56795638Y-112325942D02*
X56738495Y-112297371D01*
X56738495Y-112297371D02*
X56624209Y-112297371D01*
X56624209Y-112297371D02*
X56567067Y-112325942D01*
X56281352Y-112697371D02*
X56281352Y-112097371D01*
X56024210Y-112697371D02*
X56024210Y-112383085D01*
X56024210Y-112383085D02*
X56052781Y-112325942D01*
X56052781Y-112325942D02*
X56109924Y-112297371D01*
X56109924Y-112297371D02*
X56195638Y-112297371D01*
X56195638Y-112297371D02*
X56252781Y-112325942D01*
X56252781Y-112325942D02*
X56281352Y-112354514D01*
X55824210Y-112297371D02*
X55595638Y-112297371D01*
X55738495Y-112097371D02*
X55738495Y-112611657D01*
X55738495Y-112611657D02*
X55709924Y-112668800D01*
X55709924Y-112668800D02*
X55652781Y-112697371D01*
X55652781Y-112697371D02*
X55595638Y-112697371D01*
X54681353Y-112668800D02*
X54738495Y-112697371D01*
X54738495Y-112697371D02*
X54852781Y-112697371D01*
X54852781Y-112697371D02*
X54909924Y-112668800D01*
X54909924Y-112668800D02*
X54938495Y-112640228D01*
X54938495Y-112640228D02*
X54967067Y-112583085D01*
X54967067Y-112583085D02*
X54967067Y-112411657D01*
X54967067Y-112411657D02*
X54938495Y-112354514D01*
X54938495Y-112354514D02*
X54909924Y-112325942D01*
X54909924Y-112325942D02*
X54852781Y-112297371D01*
X54852781Y-112297371D02*
X54738495Y-112297371D01*
X54738495Y-112297371D02*
X54681353Y-112325942D01*
X54338495Y-112697371D02*
X54395638Y-112668800D01*
X54395638Y-112668800D02*
X54424209Y-112640228D01*
X54424209Y-112640228D02*
X54452781Y-112583085D01*
X54452781Y-112583085D02*
X54452781Y-112411657D01*
X54452781Y-112411657D02*
X54424209Y-112354514D01*
X54424209Y-112354514D02*
X54395638Y-112325942D01*
X54395638Y-112325942D02*
X54338495Y-112297371D01*
X54338495Y-112297371D02*
X54252781Y-112297371D01*
X54252781Y-112297371D02*
X54195638Y-112325942D01*
X54195638Y-112325942D02*
X54167067Y-112354514D01*
X54167067Y-112354514D02*
X54138495Y-112411657D01*
X54138495Y-112411657D02*
X54138495Y-112583085D01*
X54138495Y-112583085D02*
X54167067Y-112640228D01*
X54167067Y-112640228D02*
X54195638Y-112668800D01*
X54195638Y-112668800D02*
X54252781Y-112697371D01*
X54252781Y-112697371D02*
X54338495Y-112697371D01*
X53881352Y-112697371D02*
X53881352Y-112297371D01*
X53881352Y-112354514D02*
X53852781Y-112325942D01*
X53852781Y-112325942D02*
X53795638Y-112297371D01*
X53795638Y-112297371D02*
X53709924Y-112297371D01*
X53709924Y-112297371D02*
X53652781Y-112325942D01*
X53652781Y-112325942D02*
X53624210Y-112383085D01*
X53624210Y-112383085D02*
X53624210Y-112697371D01*
X53624210Y-112383085D02*
X53595638Y-112325942D01*
X53595638Y-112325942D02*
X53538495Y-112297371D01*
X53538495Y-112297371D02*
X53452781Y-112297371D01*
X53452781Y-112297371D02*
X53395638Y-112325942D01*
X53395638Y-112325942D02*
X53367067Y-112383085D01*
X53367067Y-112383085D02*
X53367067Y-112697371D01*
X53081352Y-112297371D02*
X53081352Y-112897371D01*
X53081352Y-112325942D02*
X53024210Y-112297371D01*
X53024210Y-112297371D02*
X52909924Y-112297371D01*
X52909924Y-112297371D02*
X52852781Y-112325942D01*
X52852781Y-112325942D02*
X52824210Y-112354514D01*
X52824210Y-112354514D02*
X52795638Y-112411657D01*
X52795638Y-112411657D02*
X52795638Y-112583085D01*
X52795638Y-112583085D02*
X52824210Y-112640228D01*
X52824210Y-112640228D02*
X52852781Y-112668800D01*
X52852781Y-112668800D02*
X52909924Y-112697371D01*
X52909924Y-112697371D02*
X53024210Y-112697371D01*
X53024210Y-112697371D02*
X53081352Y-112668800D01*
X52452781Y-112697371D02*
X52509924Y-112668800D01*
X52509924Y-112668800D02*
X52538495Y-112611657D01*
X52538495Y-112611657D02*
X52538495Y-112097371D01*
X51967067Y-112697371D02*
X51967067Y-112383085D01*
X51967067Y-112383085D02*
X51995638Y-112325942D01*
X51995638Y-112325942D02*
X52052781Y-112297371D01*
X52052781Y-112297371D02*
X52167067Y-112297371D01*
X52167067Y-112297371D02*
X52224209Y-112325942D01*
X51967067Y-112668800D02*
X52024209Y-112697371D01*
X52024209Y-112697371D02*
X52167067Y-112697371D01*
X52167067Y-112697371D02*
X52224209Y-112668800D01*
X52224209Y-112668800D02*
X52252781Y-112611657D01*
X52252781Y-112611657D02*
X52252781Y-112554514D01*
X52252781Y-112554514D02*
X52224209Y-112497371D01*
X52224209Y-112497371D02*
X52167067Y-112468800D01*
X52167067Y-112468800D02*
X52024209Y-112468800D01*
X52024209Y-112468800D02*
X51967067Y-112440228D01*
X51681352Y-112697371D02*
X51681352Y-112297371D01*
X51681352Y-112097371D02*
X51709924Y-112125942D01*
X51709924Y-112125942D02*
X51681352Y-112154514D01*
X51681352Y-112154514D02*
X51652781Y-112125942D01*
X51652781Y-112125942D02*
X51681352Y-112097371D01*
X51681352Y-112097371D02*
X51681352Y-112154514D01*
X51395638Y-112297371D02*
X51395638Y-112697371D01*
X51395638Y-112354514D02*
X51367067Y-112325942D01*
X51367067Y-112325942D02*
X51309924Y-112297371D01*
X51309924Y-112297371D02*
X51224210Y-112297371D01*
X51224210Y-112297371D02*
X51167067Y-112325942D01*
X51167067Y-112325942D02*
X51138496Y-112383085D01*
X51138496Y-112383085D02*
X51138496Y-112697371D01*
X50852781Y-112640228D02*
X50824210Y-112668800D01*
X50824210Y-112668800D02*
X50852781Y-112697371D01*
X50852781Y-112697371D02*
X50881353Y-112668800D01*
X50881353Y-112668800D02*
X50852781Y-112640228D01*
X50852781Y-112640228D02*
X50852781Y-112697371D01*
D11*
X21629523Y-113500819D02*
X21629523Y-114215104D01*
X21629523Y-114215104D02*
X21677142Y-114357961D01*
X21677142Y-114357961D02*
X21772380Y-114453200D01*
X21772380Y-114453200D02*
X21915237Y-114500819D01*
X21915237Y-114500819D02*
X22010475Y-114500819D01*
X21153332Y-114500819D02*
X21153332Y-113500819D01*
X21153332Y-113500819D02*
X20772380Y-113500819D01*
X20772380Y-113500819D02*
X20677142Y-113548438D01*
X20677142Y-113548438D02*
X20629523Y-113596057D01*
X20629523Y-113596057D02*
X20581904Y-113691295D01*
X20581904Y-113691295D02*
X20581904Y-113834152D01*
X20581904Y-113834152D02*
X20629523Y-113929390D01*
X20629523Y-113929390D02*
X20677142Y-113977009D01*
X20677142Y-113977009D02*
X20772380Y-114024628D01*
X20772380Y-114024628D02*
X21153332Y-114024628D01*
X20248570Y-113500819D02*
X19629523Y-113500819D01*
X19629523Y-113500819D02*
X19962856Y-113881771D01*
X19962856Y-113881771D02*
X19819999Y-113881771D01*
X19819999Y-113881771D02*
X19724761Y-113929390D01*
X19724761Y-113929390D02*
X19677142Y-113977009D01*
X19677142Y-113977009D02*
X19629523Y-114072247D01*
X19629523Y-114072247D02*
X19629523Y-114310342D01*
X19629523Y-114310342D02*
X19677142Y-114405580D01*
X19677142Y-114405580D02*
X19724761Y-114453200D01*
X19724761Y-114453200D02*
X19819999Y-114500819D01*
X19819999Y-114500819D02*
X20105713Y-114500819D01*
X20105713Y-114500819D02*
X20200951Y-114453200D01*
X20200951Y-114453200D02*
X20248570Y-114405580D01*
X19058094Y-113929390D02*
X19153332Y-113881771D01*
X19153332Y-113881771D02*
X19200951Y-113834152D01*
X19200951Y-113834152D02*
X19248570Y-113738914D01*
X19248570Y-113738914D02*
X19248570Y-113691295D01*
X19248570Y-113691295D02*
X19200951Y-113596057D01*
X19200951Y-113596057D02*
X19153332Y-113548438D01*
X19153332Y-113548438D02*
X19058094Y-113500819D01*
X19058094Y-113500819D02*
X18867618Y-113500819D01*
X18867618Y-113500819D02*
X18772380Y-113548438D01*
X18772380Y-113548438D02*
X18724761Y-113596057D01*
X18724761Y-113596057D02*
X18677142Y-113691295D01*
X18677142Y-113691295D02*
X18677142Y-113738914D01*
X18677142Y-113738914D02*
X18724761Y-113834152D01*
X18724761Y-113834152D02*
X18772380Y-113881771D01*
X18772380Y-113881771D02*
X18867618Y-113929390D01*
X18867618Y-113929390D02*
X19058094Y-113929390D01*
X19058094Y-113929390D02*
X19153332Y-113977009D01*
X19153332Y-113977009D02*
X19200951Y-114024628D01*
X19200951Y-114024628D02*
X19248570Y-114119866D01*
X19248570Y-114119866D02*
X19248570Y-114310342D01*
X19248570Y-114310342D02*
X19200951Y-114405580D01*
X19200951Y-114405580D02*
X19153332Y-114453200D01*
X19153332Y-114453200D02*
X19058094Y-114500819D01*
X19058094Y-114500819D02*
X18867618Y-114500819D01*
X18867618Y-114500819D02*
X18772380Y-114453200D01*
X18772380Y-114453200D02*
X18724761Y-114405580D01*
X18724761Y-114405580D02*
X18677142Y-114310342D01*
X18677142Y-114310342D02*
X18677142Y-114119866D01*
X18677142Y-114119866D02*
X18724761Y-114024628D01*
X18724761Y-114024628D02*
X18772380Y-113977009D01*
X18772380Y-113977009D02*
X18867618Y-113929390D01*
X21153333Y-111976819D02*
X21153333Y-112691104D01*
X21153333Y-112691104D02*
X21200952Y-112833961D01*
X21200952Y-112833961D02*
X21296190Y-112929200D01*
X21296190Y-112929200D02*
X21439047Y-112976819D01*
X21439047Y-112976819D02*
X21534285Y-112976819D01*
X20677142Y-112976819D02*
X20677142Y-111976819D01*
X20677142Y-111976819D02*
X20296190Y-111976819D01*
X20296190Y-111976819D02*
X20200952Y-112024438D01*
X20200952Y-112024438D02*
X20153333Y-112072057D01*
X20153333Y-112072057D02*
X20105714Y-112167295D01*
X20105714Y-112167295D02*
X20105714Y-112310152D01*
X20105714Y-112310152D02*
X20153333Y-112405390D01*
X20153333Y-112405390D02*
X20200952Y-112453009D01*
X20200952Y-112453009D02*
X20296190Y-112500628D01*
X20296190Y-112500628D02*
X20677142Y-112500628D01*
X19153333Y-112976819D02*
X19724761Y-112976819D01*
X19439047Y-112976819D02*
X19439047Y-111976819D01*
X19439047Y-111976819D02*
X19534285Y-112119676D01*
X19534285Y-112119676D02*
X19629523Y-112214914D01*
X19629523Y-112214914D02*
X19724761Y-112262533D01*
X22645523Y-110198819D02*
X22645523Y-110913104D01*
X22645523Y-110913104D02*
X22693142Y-111055961D01*
X22693142Y-111055961D02*
X22788380Y-111151200D01*
X22788380Y-111151200D02*
X22931237Y-111198819D01*
X22931237Y-111198819D02*
X23026475Y-111198819D01*
X22169332Y-111198819D02*
X22169332Y-110198819D01*
X22169332Y-110198819D02*
X21788380Y-110198819D01*
X21788380Y-110198819D02*
X21693142Y-110246438D01*
X21693142Y-110246438D02*
X21645523Y-110294057D01*
X21645523Y-110294057D02*
X21597904Y-110389295D01*
X21597904Y-110389295D02*
X21597904Y-110532152D01*
X21597904Y-110532152D02*
X21645523Y-110627390D01*
X21645523Y-110627390D02*
X21693142Y-110675009D01*
X21693142Y-110675009D02*
X21788380Y-110722628D01*
X21788380Y-110722628D02*
X22169332Y-110722628D01*
X20645523Y-111198819D02*
X21216951Y-111198819D01*
X20931237Y-111198819D02*
X20931237Y-110198819D01*
X20931237Y-110198819D02*
X21026475Y-110341676D01*
X21026475Y-110341676D02*
X21121713Y-110436914D01*
X21121713Y-110436914D02*
X21216951Y-110484533D01*
X20074094Y-110627390D02*
X20169332Y-110579771D01*
X20169332Y-110579771D02*
X20216951Y-110532152D01*
X20216951Y-110532152D02*
X20264570Y-110436914D01*
X20264570Y-110436914D02*
X20264570Y-110389295D01*
X20264570Y-110389295D02*
X20216951Y-110294057D01*
X20216951Y-110294057D02*
X20169332Y-110246438D01*
X20169332Y-110246438D02*
X20074094Y-110198819D01*
X20074094Y-110198819D02*
X19883618Y-110198819D01*
X19883618Y-110198819D02*
X19788380Y-110246438D01*
X19788380Y-110246438D02*
X19740761Y-110294057D01*
X19740761Y-110294057D02*
X19693142Y-110389295D01*
X19693142Y-110389295D02*
X19693142Y-110436914D01*
X19693142Y-110436914D02*
X19740761Y-110532152D01*
X19740761Y-110532152D02*
X19788380Y-110579771D01*
X19788380Y-110579771D02*
X19883618Y-110627390D01*
X19883618Y-110627390D02*
X20074094Y-110627390D01*
X20074094Y-110627390D02*
X20169332Y-110675009D01*
X20169332Y-110675009D02*
X20216951Y-110722628D01*
X20216951Y-110722628D02*
X20264570Y-110817866D01*
X20264570Y-110817866D02*
X20264570Y-111008342D01*
X20264570Y-111008342D02*
X20216951Y-111103580D01*
X20216951Y-111103580D02*
X20169332Y-111151200D01*
X20169332Y-111151200D02*
X20074094Y-111198819D01*
X20074094Y-111198819D02*
X19883618Y-111198819D01*
X19883618Y-111198819D02*
X19788380Y-111151200D01*
X19788380Y-111151200D02*
X19740761Y-111103580D01*
X19740761Y-111103580D02*
X19693142Y-111008342D01*
X19693142Y-111008342D02*
X19693142Y-110817866D01*
X19693142Y-110817866D02*
X19740761Y-110722628D01*
X19740761Y-110722628D02*
X19788380Y-110675009D01*
X19788380Y-110675009D02*
X19883618Y-110627390D01*
X22137523Y-108420819D02*
X22137523Y-109135104D01*
X22137523Y-109135104D02*
X22185142Y-109277961D01*
X22185142Y-109277961D02*
X22280380Y-109373200D01*
X22280380Y-109373200D02*
X22423237Y-109420819D01*
X22423237Y-109420819D02*
X22518475Y-109420819D01*
X21661332Y-109420819D02*
X21661332Y-108420819D01*
X21661332Y-108420819D02*
X21280380Y-108420819D01*
X21280380Y-108420819D02*
X21185142Y-108468438D01*
X21185142Y-108468438D02*
X21137523Y-108516057D01*
X21137523Y-108516057D02*
X21089904Y-108611295D01*
X21089904Y-108611295D02*
X21089904Y-108754152D01*
X21089904Y-108754152D02*
X21137523Y-108849390D01*
X21137523Y-108849390D02*
X21185142Y-108897009D01*
X21185142Y-108897009D02*
X21280380Y-108944628D01*
X21280380Y-108944628D02*
X21661332Y-108944628D01*
X20756570Y-108420819D02*
X20137523Y-108420819D01*
X20137523Y-108420819D02*
X20470856Y-108801771D01*
X20470856Y-108801771D02*
X20327999Y-108801771D01*
X20327999Y-108801771D02*
X20232761Y-108849390D01*
X20232761Y-108849390D02*
X20185142Y-108897009D01*
X20185142Y-108897009D02*
X20137523Y-108992247D01*
X20137523Y-108992247D02*
X20137523Y-109230342D01*
X20137523Y-109230342D02*
X20185142Y-109325580D01*
X20185142Y-109325580D02*
X20232761Y-109373200D01*
X20232761Y-109373200D02*
X20327999Y-109420819D01*
X20327999Y-109420819D02*
X20613713Y-109420819D01*
X20613713Y-109420819D02*
X20708951Y-109373200D01*
X20708951Y-109373200D02*
X20756570Y-109325580D01*
X19232761Y-108420819D02*
X19708951Y-108420819D01*
X19708951Y-108420819D02*
X19756570Y-108897009D01*
X19756570Y-108897009D02*
X19708951Y-108849390D01*
X19708951Y-108849390D02*
X19613713Y-108801771D01*
X19613713Y-108801771D02*
X19375618Y-108801771D01*
X19375618Y-108801771D02*
X19280380Y-108849390D01*
X19280380Y-108849390D02*
X19232761Y-108897009D01*
X19232761Y-108897009D02*
X19185142Y-108992247D01*
X19185142Y-108992247D02*
X19185142Y-109230342D01*
X19185142Y-109230342D02*
X19232761Y-109325580D01*
X19232761Y-109325580D02*
X19280380Y-109373200D01*
X19280380Y-109373200D02*
X19375618Y-109420819D01*
X19375618Y-109420819D02*
X19613713Y-109420819D01*
X19613713Y-109420819D02*
X19708951Y-109373200D01*
X19708951Y-109373200D02*
X19756570Y-109325580D01*
D12*
%TO.C,JP38*%
X39855000Y-115060000D02*
X37055000Y-115060000D01*
X39855000Y-113060000D02*
X39855000Y-115060000D01*
X37055000Y-115060000D02*
X37055000Y-113060000D01*
X37055000Y-113060000D02*
X39855000Y-113060000D01*
%TO.C,JP1*%
X30585001Y-115020000D02*
X27785001Y-115020000D01*
X30585001Y-113020000D02*
X30585001Y-115020000D01*
X27785001Y-115020000D02*
X27785001Y-113020000D01*
X27785001Y-113020000D02*
X30585001Y-113020000D01*
%TO.C,JP18*%
X30595000Y-112500000D02*
X27795000Y-112500000D01*
X30595000Y-110500000D02*
X30595000Y-112500000D01*
X27795000Y-112500000D02*
X27795000Y-110500000D01*
X27795000Y-110500000D02*
X30595000Y-110500000D01*
%TO.C,JP35*%
X39855000Y-112510000D02*
X37055000Y-112510000D01*
X39855000Y-110510000D02*
X39855000Y-112510000D01*
X37055000Y-112510000D02*
X37055000Y-110510000D01*
X37055000Y-110510000D02*
X39855000Y-110510000D01*
%TD*%
M02*
