M48
; DRILL file {KiCad 8.0.4} date 2025-02-24T13:32:20+0100
; FORMAT={-:-/ absolute / metric / decimal}
; #@! TF.CreationDate,2025-02-24T13:32:20+01:00
; #@! TF.GenerationSoftware,Kicad,Pcbnew,8.0.4
; #@! TF.FileFunction,Plated,1,2,PTH
FMAT,2
METRIC
; #@! TA.AperFunction,Plated,PTH,ViaDrill
T1C0.300
; #@! TA.AperFunction,Plated,PTH,ComponentDrill
T2C0.800
; #@! TA.AperFunction,Plated,PTH,ComponentDrill
T3C1.000
; #@! TA.AperFunction,Plated,PTH,ComponentDrill
T4C1.100
%
G90
G05
T1
X39.64Y-71.95
X39.94Y-74.17
X40.93Y-66.96
X46.16Y-138.79
X47.15Y-67.05
X47.16Y-82.82
X47.45Y-84.75
X47.45Y-116.59
X49.68Y-140.78
X49.76Y-136.29
X51.51Y-80.3
X51.53Y-110.31
X53.21Y-118.08
X53.26Y-133.59
X54.18Y-74.12
X54.22Y-109.21
X56.71Y-129.33
X56.76Y-130.99
X58.11Y-147.36
X58.12Y-112.84
X59.71Y-115.46
X59.76Y-128.29
X61.42Y-149.75
X61.43Y-71.93
X63.21Y-121.74
X63.26Y-125.69
X66.66Y-123.19
X66.67Y-130.34
X70.26Y-120.59
X72.01Y-146.65
X72.035Y-149.79
X73.69Y-128.94
X73.76Y-117.89
X75.54Y-97.11
X75.585Y-137.71
X77.16Y-112.79
X77.81Y-119.15
X77.86Y-102.44
X79.83Y-91.88
X79.835Y-131.85
X80.76Y-115.39
X80.81Y-126.73
X83.66Y-149.75
X84.26Y-107.59
X87.11Y-136.29
X88.26Y-110.19
X88.26Y-134.45
X89.235Y-142.81
X89.29Y-68.49
X90.68Y-65.83
X91.385Y-144.11
X91.66Y-102.39
X93.48Y-112.79
X95.26Y-104.99
X95.585Y-144.903
X95.93Y-64.32
X97.685Y-143.47
X97.7Y-107.59
X98.36Y-97.29
X99.785Y-141.98
X99.79Y-120.59
X101.66Y-99.79
X101.885Y-139.44
X102.36Y-94.36
X105.0Y-149.81
X105.26Y-91.89
X108.44Y-138.79
X109.26Y-94.39
X110.535Y-135.44
X110.55Y-86.65
X112.56Y-81.5
X112.61Y-132.94
X113.26Y-86.69
X114.73Y-123.09
X116.85Y-117.99
X117.16Y-89.29
X118.935Y-124.86
X118.95Y-99.79
X120.97Y-104.99
X120.985Y-122.35
X121.16Y-81.49
X123.05Y-84.13
X123.085Y-121.49
X124.76Y-84.09
X125.17Y-89.29
X125.185Y-124.17
X127.29Y-115.39
X128.16Y-76.29
X129.39Y-110.19
X131.5Y-130.99
X131.76Y-78.89
X133.58Y-133.59
X135.26Y-71.09
X135.72Y-125.69
X137.8Y-128.29
X138.76Y-73.69
X139.88Y-73.69
X141.98Y-78.89
X141.985Y-108.6
X142.06Y-68.49
X144.05Y-76.29
X144.085Y-116.59
X145.76Y-65.89
X146.18Y-71.09
X146.185Y-106.94
X147.47Y-113.5
X149.21Y-63.227
X150.96Y-123.09
X150.96Y-128.29
X150.96Y-130.99
X150.96Y-133.59
X151.06Y-65.89
X151.06Y-73.69
X151.06Y-76.29
X151.06Y-78.89
X151.06Y-84.09
X151.06Y-97.09
X151.06Y-99.79
X151.06Y-102.39
X151.06Y-115.39
X151.06Y-117.99
X151.06Y-120.59
X151.06Y-125.69
X151.06Y-136.09
X151.06Y-138.79
X151.16Y-68.49
X151.16Y-71.09
X151.16Y-81.49
X151.16Y-86.69
X151.16Y-89.29
X151.16Y-104.99
X151.16Y-110.19
X151.16Y-112.79
X151.26Y-91.89
X151.26Y-94.49
X151.26Y-107.59
X151.55Y-150.0
X153.36Y-141.09
X154.76Y-84.09
X154.76Y-86.69
X154.76Y-89.29
X154.76Y-94.49
X154.76Y-97.09
X154.76Y-99.69
X154.76Y-102.29
X154.76Y-104.89
X154.76Y-107.49
X154.76Y-123.19
X154.76Y-128.29
X154.86Y-76.29
X154.86Y-81.49
X154.86Y-91.89
X154.86Y-110.09
X154.86Y-112.79
X154.86Y-125.79
X154.86Y-133.49
X154.86Y-136.09
X154.91Y-65.89
X154.91Y-68.49
X154.91Y-71.09
X154.91Y-73.69
X154.91Y-78.89
X154.96Y-115.39
X154.96Y-117.99
X154.96Y-120.49
X154.96Y-130.89
X154.96Y-138.69
X156.11Y-63.39
X159.11Y-65.89
X160.36Y-132.39
X162.06Y-68.49
X162.46Y-137.29
X162.86Y-141.09
X165.11Y-71.09
X165.96Y-73.69
X165.96Y-134.49
X168.61Y-73.69
X171.26Y-141.09
X172.11Y-76.29
X172.36Y-132.39
X174.26Y-97.09
X175.61Y-78.89
X175.86Y-90.29
X176.36Y-121.99
X178.46Y-102.29
X178.46Y-150.39
X179.06Y-124.19
X179.11Y-81.49
X182.61Y-84.09
X184.46Y-137.29
X184.46Y-141.09
X185.06Y-71.59
X185.66Y-90.29
X186.11Y-86.69
X186.16Y-128.29
X186.66Y-133.49
X187.26Y-84.19
X187.86Y-104.89
X188.46Y-99.69
X188.66Y-117.99
X189.16Y-123.19
X189.61Y-89.29
X189.66Y-124.39
X190.61Y-86.79
X190.66Y-136.09
X190.66Y-138.69
X191.66Y-69.09
X192.11Y-65.69
X193.06Y-150.09
X193.11Y-91.89
X193.46Y-122.09
X193.96Y-112.79
X194.46Y-64.99
X195.16Y-107.49
X195.66Y-120.49
X196.61Y-94.49
X196.86Y-97.09
X197.46Y-110.09
X197.66Y-122.09
X198.16Y-130.89
X198.66Y-115.39
X199.11Y-89.69
X199.86Y-125.79
X200.11Y-97.09
X200.36Y-102.29
X200.66Y-132.49
X201.16Y-134.49
X201.66Y-140.732
X202.06Y-137.29
X202.06Y-141.19
X203.61Y-99.59
X206.56Y-102.29
X209.86Y-104.89
X211.26Y-112.79
X213.36Y-107.49
X214.36Y-65.09
X214.96Y-65.69
X215.86Y-107.39
X216.86Y-110.09
X217.86Y-68.89
X218.86Y-120.49
X220.06Y-136.09
X220.36Y-112.79
X221.36Y-94.69
X222.66Y-138.69
X222.86Y-96.89
X223.86Y-115.39
X224.86Y-86.29
X226.36Y-110.09
X227.36Y-117.99
X227.76Y-124.49
X229.06Y-122.19
X230.26Y-123.19
X230.86Y-120.49
X231.46Y-130.89
X232.96Y-118.09
X233.36Y-115.39
X234.36Y-123.19
X235.36Y-99.59
X236.66Y-89.69
X237.86Y-125.79
X238.86Y-104.99
X239.06Y-126.99
X240.36Y-85.19
X241.36Y-128.29
X242.36Y-102.29
X243.06Y-133.49
X244.26Y-132.49
X244.86Y-130.89
X245.86Y-128.29
X246.76Y-134.79
X248.16Y-133.49
X249.16Y-78.79
X249.36Y-137.39
X249.36Y-141.09
X250.36Y-71.79
X251.46Y-136.09
X254.96Y-138.79
X255.56Y-54.09
X257.95Y-37.51
X259.66Y-54.29
X259.66Y-59.69
X261.46Y-37.49
T2
X26.12Y-111.51
X26.12Y-114.05
X26.12Y-116.59
X26.12Y-119.13
X26.12Y-121.67
X26.12Y-124.21
X26.12Y-126.75
X26.12Y-129.29
X26.12Y-131.83
X26.12Y-134.37
X26.12Y-136.91
X26.12Y-139.45
X26.12Y-141.99
X26.12Y-144.53
X26.12Y-147.07
X26.12Y-149.61
X41.36Y-111.51
X41.36Y-114.05
X41.36Y-116.59
X41.36Y-119.13
X41.36Y-121.67
X41.36Y-124.21
X41.36Y-126.75
X41.36Y-129.29
X41.36Y-131.83
X41.36Y-134.37
X41.36Y-136.91
X41.36Y-139.45
X41.36Y-141.99
X41.36Y-144.53
X41.36Y-147.07
X41.36Y-149.61
T3
X40.07Y-77.76
X40.07Y-80.3
X40.07Y-82.84
X44.07Y-77.76
X44.07Y-80.3
X44.07Y-82.84
X160.38Y-145.89
X162.92Y-145.89
X165.46Y-145.89
X211.26Y-146.95
X211.26Y-149.49
X213.8Y-146.95
X213.8Y-149.49
X216.34Y-146.95
X216.34Y-149.49
X218.88Y-146.95
X218.88Y-149.49
X221.42Y-146.95
X221.42Y-149.49
X223.96Y-146.95
X223.96Y-149.49
X226.5Y-146.95
X226.5Y-149.49
X229.04Y-146.95
X229.04Y-149.49
X231.58Y-146.95
X231.58Y-149.49
X234.12Y-146.95
X234.12Y-149.49
X236.66Y-146.95
X236.66Y-149.49
X239.2Y-146.95
X239.2Y-149.49
X241.74Y-146.95
X241.74Y-149.49
X244.28Y-146.95
X244.28Y-149.49
X246.82Y-146.95
X246.82Y-149.49
X249.36Y-146.95
X249.36Y-149.49
T4
X39.56Y-34.59
X39.56Y-49.83
X42.1Y-34.59
X42.1Y-49.83
X44.64Y-34.59
X44.64Y-49.83
X47.18Y-34.59
X47.18Y-49.83
X49.72Y-34.59
X49.72Y-49.83
X52.26Y-34.59
X52.26Y-49.83
X54.8Y-34.59
X54.8Y-49.83
X57.34Y-34.59
X57.34Y-49.83
X59.88Y-34.59
X59.88Y-49.83
X62.42Y-34.59
X62.42Y-49.83
X64.96Y-34.59
X64.96Y-49.83
X67.5Y-34.59
X67.5Y-49.83
X70.04Y-34.59
X70.04Y-49.83
X72.58Y-34.59
X72.58Y-49.83
X75.12Y-34.59
X75.12Y-49.83
X77.66Y-34.59
X77.66Y-49.83
X80.2Y-34.59
X80.2Y-49.83
X82.74Y-34.59
X82.74Y-49.83
X85.28Y-34.59
X85.28Y-49.83
X87.82Y-34.59
X87.82Y-49.83
X90.36Y-34.59
X90.36Y-49.83
X92.9Y-34.59
X92.9Y-49.83
X95.44Y-34.59
X95.44Y-49.83
X97.98Y-34.59
X97.98Y-49.83
X202.2Y-34.74
X202.2Y-49.98
X204.74Y-34.74
X204.74Y-49.98
X207.28Y-34.74
X207.28Y-49.98
X209.82Y-34.74
X209.82Y-49.98
X212.36Y-34.74
X212.36Y-49.98
X214.9Y-34.74
X214.9Y-49.98
X217.44Y-34.74
X217.44Y-49.98
X219.98Y-34.74
X219.98Y-49.98
X222.52Y-34.74
X222.52Y-49.98
X225.06Y-34.74
X225.06Y-49.98
X227.6Y-34.74
X227.6Y-49.98
X230.14Y-34.74
X230.14Y-49.98
X232.68Y-34.74
X232.68Y-49.98
X235.22Y-34.74
X235.22Y-49.98
X237.76Y-34.74
X237.76Y-49.98
X240.3Y-34.74
X240.3Y-49.98
X242.84Y-34.74
X242.84Y-49.98
X245.38Y-34.74
X245.38Y-49.98
X247.92Y-34.74
X247.92Y-49.98
X250.46Y-34.74
X250.46Y-49.98
X253.0Y-34.74
X253.0Y-49.98
X255.54Y-34.74
X255.54Y-49.98
X258.08Y-34.74
X258.08Y-49.98
X260.62Y-34.74
X260.62Y-49.98
M30
